<?xml version="1.0" encoding="utf-8"?>
<!-- Generator: Adobe Illustrator 20.1.0, SVG Export Plug-In . SVG Version: 6.00 Build 0)  -->
<svg version="1.1" xmlns="http://www.w3.org/2000/svg" xmlns:xlink="http://www.w3.org/1999/xlink" x="0px" y="0px"
	 viewBox="0 0 58.2 58.2" style="enable-background:new 0 0 58.2 58.2;" xml:space="preserve">
<style type="text/css">
	.st0{fill:#942C2D;}
	.st1{fill:#B2A193;}
	.st2{fill:#EADBCB;}
	.st3{opacity:0.5;fill:#B2A193;}
</style>
<g id="Layer_2">
</g>
<g id="Layer_3">
</g>
<g id="Layer_1">
	<path class="st0" d="M29.1,58.2c-16,0-29.1-13-29.1-29.1S13.1,0,29.1,0s29.1,13.1,29.1,29.1S45.2,58.2,29.1,58.2z M29.1,4.1
		c-13.8,0-25,11.2-25,25s11.2,25,25,25s25-11.2,25-25S42.9,4.1,29.1,4.1z"/>
	<g>
		<path class="st1" d="M48.8,19.4l-15.3-3.9c-0.5-0.1-1.1,0.2-1.2,0.7l-5.9,23.1c-0.1,0.5,0.2,1.1,0.7,1.2l15.3,3.9
			c0.5,0.1,1.1-0.2,1.2-0.7l5.9-23.1C49.6,20,49.3,19.5,48.8,19.4z"/>
		<path class="st2" d="M46.8,20.5l-12.2-3.1c-0.5-0.1-1.1,0.2-1.2,0.7l-5.1,20c-0.1,0.5,0.2,1.1,0.7,1.2l12.2,3.1
			c0.5,0.1,1.1-0.2,1.2-0.7l5.1-20C47.7,21.2,47.4,20.6,46.8,20.5z"/>
		<g>
			<g>
				<g>
					<path class="st1" d="M32.7,29.8c0.3-0.1,0.6,0,0.7,0.2c0.1,0.2,0.1,0.6-0.2,0.8C33,31,32.6,31,32.4,30.6
						C32.2,30.3,32.4,29.9,32.7,29.8z"/>
				</g>
				<g>
					<path class="st1" d="M32.6,28.7c0.2,0,0.3,0.1,0.4,0.2c0.1,0.1,0.1,0.2,0.2,0.3c0,0.2-0.2,0.5-0.5,0.6C32.4,30,32,29.7,32,29.3
						c0-0.2,0.1-0.4,0.2-0.5C32.3,28.7,32.5,28.7,32.6,28.7z"/>
				</g>
				<g>
					<path class="st1" d="M33.2,27.8c0.1,0.1,0.2,0.3,0.2,0.4c0,0.1,0,0.3-0.1,0.3c-0.1,0.1-0.2,0.1-0.3,0.2c-0.1,0-0.3,0.1-0.4,0
						c-0.2,0-0.3-0.1-0.3-0.3c-0.1-0.2,0-0.4,0.1-0.5c0.1-0.2,0.3-0.3,0.4-0.3C33,27.6,33.1,27.6,33.2,27.8z"/>
				</g>
				<g>
					<path class="st1" d="M34.2,27.2c0.1,0.3,0,0.6-0.2,0.8c-0.1,0.1-0.2,0.1-0.4,0c-0.1,0-0.3-0.1-0.4-0.2
						c-0.1-0.1-0.2-0.3-0.1-0.4c0-0.1,0.1-0.3,0.3-0.4C33.7,26.7,34.1,26.9,34.2,27.2z"/>
				</g>
				<g>
					<path class="st1" d="M35.3,26.9c0,0.2,0,0.3-0.1,0.4c-0.1,0.1-0.2,0.2-0.3,0.2c-0.3,0.1-0.6-0.1-0.7-0.4
						c-0.1-0.3,0-0.6,0.4-0.7c0.2,0,0.3,0,0.5,0.1C35.2,26.6,35.3,26.7,35.3,26.9z"/>
				</g>
				<g>
					<path class="st1" d="M36.4,26.8c0,0.3-0.2,0.6-0.5,0.6c-0.3,0-0.6-0.2-0.6-0.5c-0.1-0.3,0.2-0.6,0.5-0.7
						C36.2,26.2,36.4,26.5,36.4,26.8z"/>
				</g>
				<g>
					<path class="st1" d="M37.6,26.8c0,0.3-0.3,0.5-0.6,0.5c-0.3,0-0.5-0.3-0.5-0.6c0-0.3,0.3-0.6,0.6-0.6
						C37.4,26.2,37.6,26.5,37.6,26.8z"/>
				</g>
				<g>
					<path class="st1" d="M38.7,27.1c-0.1,0.3-0.4,0.5-0.7,0.4c-0.3,0-0.5-0.3-0.5-0.7c0-0.3,0.3-0.5,0.7-0.5
						C38.6,26.4,38.8,26.7,38.7,27.1z"/>
				</g>
				<g>
					<path class="st1" d="M39.8,27.4c-0.1,0.3-0.4,0.5-0.7,0.4c-0.3-0.1-0.4-0.4-0.4-0.7c0.1-0.3,0.4-0.5,0.7-0.4
						C39.7,26.8,39.9,27.1,39.8,27.4z"/>
				</g>
				<g>
					<path class="st1" d="M40.8,27.9c-0.2,0.3-0.5,0.4-0.8,0.3c-0.3-0.1-0.4-0.4-0.3-0.8c0.1-0.3,0.5-0.4,0.8-0.3
						C40.9,27.2,41,27.6,40.8,27.9z"/>
				</g>
				<g>
					<path class="st1" d="M41.8,28.5c-0.2,0.3-0.5,0.3-0.8,0.2c-0.2-0.2-0.3-0.5-0.2-0.8c0.1-0.3,0.5-0.4,0.8-0.2
						C41.9,27.9,42,28.3,41.8,28.5z"/>
				</g>
				<g>
					<path class="st1" d="M42.6,29.3c-0.2,0.2-0.6,0.2-0.8,0c-0.1-0.1-0.2-0.2-0.2-0.4c0-0.1,0-0.3,0.1-0.4c0.1-0.1,0.2-0.2,0.4-0.2
						c0.2,0,0.3,0,0.4,0.2C42.9,28.7,42.9,29.1,42.6,29.3z"/>
				</g>
				<g>
					<path class="st1" d="M43.2,30.3c-0.2,0.1-0.3,0-0.4,0c-0.1,0-0.2-0.1-0.3-0.2c-0.1-0.2-0.1-0.6,0.2-0.8
						c0.2-0.2,0.6-0.2,0.8,0.2c0.1,0.2,0.1,0.4,0.1,0.5C43.4,30.1,43.3,30.2,43.2,30.3z"/>
				</g>
				<g>
					<path class="st1" d="M43.3,31.4c-0.2,0-0.3-0.1-0.4-0.2c-0.1-0.1-0.2-0.2-0.2-0.3c0-0.1,0-0.2,0.1-0.3c0.1-0.1,0.2-0.2,0.3-0.3
						c0.2-0.1,0.3,0,0.5,0.1c0.1,0.1,0.2,0.3,0.3,0.5c0,0.2-0.1,0.4-0.2,0.5C43.6,31.4,43.4,31.4,43.3,31.4z"/>
				</g>
				<g>
					<path class="st1" d="M42.7,32.4c-0.2-0.2-0.2-0.6-0.1-0.7c0.1-0.1,0.2-0.2,0.3-0.2c0.1,0,0.3-0.1,0.4,0c0.2,0,0.3,0.1,0.3,0.3
						c0.1,0.2,0,0.4-0.1,0.5C43.3,32.6,42.9,32.6,42.7,32.4z"/>
				</g>
				<g>
					<path class="st1" d="M41.7,33c-0.1-0.3,0-0.6,0.2-0.8c0.2-0.1,0.5-0.1,0.8,0.2c0.2,0.2,0.2,0.6-0.1,0.8
						C42.2,33.4,41.8,33.3,41.7,33z"/>
				</g>
			</g>
			<ellipse transform="matrix(0.2462 -0.9692 0.9692 0.2462 -0.5567 59.4416)" class="st2" cx="37.9" cy="30.1" rx="3.1" ry="5.5"/>
			<path class="st1" d="M38.6,27.4c2.7,0.7,4.7,2.5,4.3,3.9c-0.4,1.4-3,2.1-5.6,1.4c-2.7-0.7-4.7-2.5-4.3-3.9
				C33.3,27.4,35.9,26.7,38.6,27.4 M38.7,27.1c-2.9-0.7-5.7,0-6.1,1.7c-0.4,1.7,1.6,3.6,4.5,4.4c2.9,0.7,5.7,0,6.1-1.7
				C43.7,29.8,41.6,27.8,38.7,27.1L38.7,27.1z"/>
			<g>
				<g>
					<path class="st1" d="M41.4,29.9c-0.3,0-0.6-0.1-0.7-0.3c-0.1-0.2,0.1-0.5,0.4-0.7c0.3-0.2,0.6,0,0.8,0.3
						C42,29.6,41.8,29.9,41.4,29.9z"/>
				</g>
				<g>
					<path class="st1" d="M41.4,31c-0.3-0.1-0.5-0.3-0.5-0.6c0-0.2,0.2-0.4,0.6-0.5c0.3-0.1,0.6,0.2,0.6,0.6
						C42,30.8,41.7,31,41.4,31z"/>
				</g>
				<g>
					<path class="st1" d="M40.9,31.9c-0.3-0.2-0.4-0.5-0.3-0.7c0.1-0.2,0.4-0.3,0.7-0.2c0.3,0.1,0.5,0.4,0.4,0.7
						C41.6,32,41.2,32.1,40.9,31.9z"/>
				</g>
				<g>
					<path class="st1" d="M40.2,32.6c-0.2-0.3-0.2-0.6,0-0.8c0.2-0.2,0.5-0.2,0.7,0c0.3,0.2,0.3,0.6,0.1,0.8
						C40.7,33,40.3,32.9,40.2,32.6z"/>
				</g>
			</g>
			<g>
				<g>
					<path class="st1" d="M34.4,30.3c0.3,0,0.6,0.1,0.7,0.3c0.1,0.2-0.1,0.5-0.4,0.7c-0.3,0.2-0.6,0-0.8-0.3
						C33.9,30.6,34.1,30.3,34.4,30.3z"/>
				</g>
				<g>
					<path class="st1" d="M34.5,29.2c0.3,0.1,0.5,0.3,0.5,0.6c0,0.2-0.2,0.4-0.6,0.5c-0.3,0.1-0.6-0.2-0.6-0.6
						C33.9,29.3,34.2,29.1,34.5,29.2z"/>
				</g>
				<g>
					<path class="st1" d="M34.9,28.3c0.3,0.2,0.4,0.5,0.3,0.7c-0.1,0.2-0.4,0.3-0.7,0.2c-0.3-0.1-0.5-0.4-0.4-0.7
						C34.3,28.1,34.7,28.1,34.9,28.3z"/>
				</g>
				<g>
					<path class="st1" d="M35.7,27.5c0.2,0.3,0.2,0.6,0,0.8c-0.2,0.2-0.5,0.2-0.7,0c-0.3-0.2-0.3-0.6-0.1-0.8
						C35.1,27.2,35.5,27.3,35.7,27.5z"/>
				</g>
			</g>
			<ellipse transform="matrix(0.2462 -0.9692 0.9692 0.2462 -0.5567 59.4416)" class="st2" cx="37.9" cy="30.1" rx="3.1" ry="3.5"/>
			<path class="st1" d="M38.6,27.4c1.7,0.4,2.8,2,2.4,3.5c-0.4,1.5-2.1,2.3-3.8,1.9c-1.7-0.4-2.8-2-2.4-3.5
				C35.2,27.8,36.9,27,38.6,27.4 M38.7,27.1c-1.9-0.5-3.8,0.5-4.2,2.1c-0.4,1.7,0.8,3.4,2.7,3.9c1.9,0.5,3.8-0.5,4.2-2.1
				C41.8,29.3,40.6,27.5,38.7,27.1L38.7,27.1z"/>
			<path class="st1" d="M38.6,27.4c0.4,0.1,0.7,1.3,0.3,2.9s-1.3,2.5-1.7,2.4s-0.7-1.3-0.3-2.9S38.2,27.3,38.6,27.4 M38.7,27.1
				c-0.7-0.2-1.7,1-2.1,2.7c-0.4,1.7-0.2,3.2,0.6,3.4c0.7,0.2,1.7-1,2.1-2.7C39.7,28.8,39.4,27.2,38.7,27.1L38.7,27.1z"/>
			<path class="st1" d="M33.2,30.8c0.1-0.5,2.2-0.4,4.5,0.2c2.4,0.6,4.2,1.5,4.1,2"/>
			<rect x="32.9" y="31.9" transform="matrix(0.9692 0.2462 -0.2462 0.9692 9.1267 -8.1966)" class="st1" width="8.9" height="1"/>
			<ellipse transform="matrix(0.2462 -0.9692 0.9692 0.2462 -3.8354 60.8755)" class="st2" cx="37.2" cy="32.9" rx="0.9" ry="4.4"/>
			<path class="st1" d="M37.4,32.3c2.2,0.6,3.5,1.2,3.8,1.6c-0.4,0.1-1.8,0.1-4-0.4s-3.5-1.2-3.8-1.6C33.7,31.8,35.1,31.8,37.4,32.3
				 M37.5,32c-2.4-0.6-4.4-0.7-4.5-0.2c-0.1,0.5,1.7,1.4,4.1,2c2.4,0.6,4.4,0.7,4.5,0.2C41.7,33.5,39.8,32.6,37.5,32L37.5,32z"/>
			<ellipse transform="matrix(0.2462 -0.9692 0.9692 0.2462 -0.9319 59.6057)" class="st1" cx="37.9" cy="30.4" rx="0.4" ry="0.4"/>
			<ellipse transform="matrix(0.2462 -0.9692 0.9692 0.2462 0.3052 59.0647)" class="st1" cx="38.1" cy="29.3" rx="0.4" ry="0.4"/>
			<ellipse transform="matrix(0.2462 -0.9692 0.9692 0.2462 1.5423 58.5236)" class="st1" cx="38.4" cy="28.3" rx="0.4" ry="0.4"/>
			<path class="st1" d="M40.6,25.9L40.6,25.9c0.1-0.2-0.1-0.4-0.3-0.5L38,24.9c-0.2-0.1-0.4,0.1-0.5,0.3l0,0
				c-0.1,0.2,0.1,0.4,0.3,0.5l2.3,0.6C40.3,26.3,40.5,26.1,40.6,25.9z"/>
			<path class="st1" d="M38.3,27l0.7,0.2l0.7-2.6c0.1-0.2-0.1-0.4-0.3-0.5l0,0c-0.2-0.1-0.4,0.1-0.5,0.3L38.3,27z"/>
			<g>
				<g>
					<path class="st2" d="M34.5,31.2c0,0.2-0.2,0.4-0.4,0.4c-0.2,0-0.4-0.2-0.5-0.4c0-0.2,0.2-0.4,0.4-0.4
						C34.3,30.8,34.5,31,34.5,31.2z"/>
				</g>
				<g>
					<path class="st2" d="M36.2,31.4c0,0.2-0.3,0.3-0.5,0.3c-0.2,0-0.4-0.2-0.4-0.5c0-0.2,0.2-0.4,0.5-0.3
						C36.1,31,36.3,31.2,36.2,31.4z"/>
				</g>
				<g>
					
						<ellipse transform="matrix(0.2462 -0.9692 0.9692 0.2462 -2.4862 60.2855)" class="st2" cx="37.5" cy="31.7" rx="0.4" ry="0.4"/>
				</g>
				<g>
					<path class="st2" d="M39.6,32.4c-0.1,0.2-0.3,0.3-0.6,0.2c-0.2-0.1-0.4-0.3-0.3-0.5c0.1-0.2,0.3-0.3,0.6-0.2
						C39.6,32,39.7,32.2,39.6,32.4z"/>
				</g>
				<g>
					<path class="st2" d="M41.2,33.1c-0.1,0.2-0.4,0.2-0.6,0.1c-0.2-0.1-0.3-0.3-0.2-0.5c0.1-0.2,0.4-0.3,0.6-0.2
						C41.3,32.7,41.4,32.9,41.2,33.1z"/>
				</g>
			</g>
		</g>
		<path class="st1" d="M9.5,19.4l15.3-3.9c0.5-0.1,1.1,0.2,1.2,0.7l5.9,23.1c0.1,0.5-0.2,1.1-0.7,1.2l-15.3,3.9
			c-0.5,0.1-1.1-0.2-1.2-0.7L8.7,20.6C8.6,20,8.9,19.5,9.5,19.4z"/>
		<path class="st2" d="M11.4,20.5l12.2-3.1c0.5-0.1,1.1,0.2,1.2,0.7l5.1,20c0.1,0.5-0.2,1.1-0.7,1.2L17,42.5
			c-0.5,0.1-1.1-0.2-1.2-0.7l-5.1-20C10.5,21.2,10.9,20.6,11.4,20.5z"/>
		<g>
			<g>
				<g>
					<path class="st1" d="M25.6,29.8c-0.3-0.1-0.6,0-0.7,0.2c-0.1,0.2-0.1,0.6,0.2,0.8c0.2,0.2,0.6,0.2,0.8-0.2
						C26,30.3,25.9,29.9,25.6,29.8z"/>
				</g>
				<g>
					<path class="st1" d="M25.6,28.7c-0.2,0-0.3,0.1-0.4,0.2c-0.1,0.1-0.1,0.2-0.2,0.3c0,0.2,0.2,0.5,0.5,0.6
						c0.3,0.1,0.7-0.1,0.7-0.5c0-0.2-0.1-0.4-0.2-0.5C25.9,28.7,25.8,28.7,25.6,28.7z"/>
				</g>
				<g>
					<path class="st1" d="M25,27.8c-0.1,0.1-0.2,0.3-0.2,0.4c0,0.1,0,0.3,0.1,0.3c0.1,0.1,0.2,0.1,0.3,0.2c0.1,0,0.3,0.1,0.4,0
						c0.2,0,0.3-0.1,0.3-0.3c0.1-0.2,0-0.4-0.1-0.5c-0.1-0.2-0.3-0.3-0.4-0.3C25.3,27.6,25.1,27.6,25,27.8z"/>
				</g>
				<g>
					<path class="st1" d="M24,27.2c-0.1,0.3,0,0.6,0.2,0.8c0.1,0.1,0.2,0.1,0.4,0c0.1,0,0.3-0.1,0.4-0.2c0.1-0.1,0.2-0.3,0.1-0.4
						c0-0.1-0.1-0.3-0.3-0.4C24.5,26.7,24.1,26.9,24,27.2z"/>
				</g>
				<g>
					<path class="st1" d="M22.9,26.9c0,0.2,0,0.3,0.1,0.4c0.1,0.1,0.2,0.2,0.3,0.2c0.3,0.1,0.6-0.1,0.7-0.4c0.1-0.3,0-0.6-0.4-0.7
						c-0.2,0-0.3,0-0.5,0.1C23,26.6,23,26.7,22.9,26.9z"/>
				</g>
				<g>
					<path class="st1" d="M21.8,26.8c0,0.3,0.2,0.6,0.5,0.6c0.3,0,0.6-0.2,0.6-0.5c0.1-0.3-0.2-0.6-0.5-0.7
						C22.1,26.2,21.8,26.5,21.8,26.8z"/>
				</g>
				<g>
					<path class="st1" d="M20.7,26.8c0,0.3,0.3,0.5,0.6,0.5c0.3,0,0.5-0.3,0.5-0.6c0-0.3-0.3-0.6-0.6-0.6
						C20.8,26.2,20.6,26.5,20.7,26.8z"/>
				</g>
				<g>
					<path class="st1" d="M19.5,27.1c0.1,0.3,0.4,0.5,0.7,0.4c0.3,0,0.5-0.3,0.5-0.7c0-0.3-0.3-0.5-0.7-0.5
						C19.6,26.4,19.4,26.7,19.5,27.1z"/>
				</g>
				<g>
					<path class="st1" d="M18.4,27.4c0.1,0.3,0.4,0.5,0.7,0.4c0.3-0.1,0.4-0.4,0.4-0.7c-0.1-0.3-0.4-0.5-0.7-0.4
						C18.5,26.8,18.3,27.1,18.4,27.4z"/>
				</g>
				<g>
					<path class="st1" d="M17.4,27.9c0.2,0.3,0.5,0.4,0.8,0.3c0.3-0.1,0.4-0.4,0.3-0.8c-0.1-0.3-0.5-0.4-0.8-0.3
						C17.4,27.2,17.2,27.6,17.4,27.9z"/>
				</g>
				<g>
					<path class="st1" d="M16.4,28.5c0.2,0.3,0.5,0.3,0.8,0.2c0.2-0.2,0.3-0.5,0.2-0.8c-0.1-0.3-0.5-0.4-0.8-0.2
						C16.3,27.9,16.2,28.3,16.4,28.5z"/>
				</g>
				<g>
					<path class="st1" d="M15.6,29.3c0.2,0.2,0.6,0.2,0.8,0c0.1-0.1,0.2-0.2,0.2-0.4c0-0.1,0-0.3-0.1-0.4c-0.1-0.1-0.2-0.2-0.4-0.2
						c-0.2,0-0.3,0-0.4,0.2C15.4,28.7,15.4,29.1,15.6,29.3z"/>
				</g>
				<g>
					<path class="st1" d="M15.1,30.3c0.2,0.1,0.3,0,0.4,0c0.1,0,0.2-0.1,0.3-0.2c0.1-0.2,0.1-0.6-0.2-0.8c-0.2-0.2-0.6-0.2-0.8,0.2
						c-0.1,0.2-0.1,0.4-0.1,0.5C14.8,30.1,14.9,30.2,15.1,30.3z"/>
				</g>
				<g>
					<path class="st1" d="M15,31.4c0.2,0,0.3-0.1,0.4-0.2c0.1-0.1,0.2-0.2,0.2-0.3c0-0.1,0-0.2-0.1-0.3c-0.1-0.1-0.2-0.2-0.3-0.3
						c-0.2-0.1-0.3,0-0.5,0.1c-0.1,0.1-0.2,0.3-0.3,0.5c0,0.2,0.1,0.4,0.2,0.5C14.7,31.4,14.8,31.4,15,31.4z"/>
				</g>
				<g>
					<path class="st1" d="M15.6,32.4c0.2-0.2,0.2-0.6,0.1-0.7c-0.1-0.1-0.2-0.2-0.3-0.2c-0.1,0-0.3-0.1-0.4,0
						c-0.2,0-0.3,0.1-0.3,0.3c-0.1,0.2,0,0.4,0.1,0.5C14.9,32.6,15.3,32.6,15.6,32.4z"/>
				</g>
				<g>
					<path class="st1" d="M16.5,33c0.1-0.3,0-0.6-0.2-0.8c-0.2-0.1-0.5-0.1-0.8,0.2c-0.2,0.2-0.2,0.6,0.1,0.8
						C16,33.4,16.4,33.3,16.5,33z"/>
				</g>
			</g>
			<ellipse transform="matrix(0.9692 -0.2462 0.2462 0.9692 -6.7804 5.922)" class="st2" cx="20.3" cy="30.1" rx="5.5" ry="3.1"/>
			<path class="st1" d="M19.6,27.4c2.7-0.7,5.3,0,5.6,1.4c0.4,1.4-1.6,3.3-4.3,3.9c-2.7,0.7-5.3,0-5.6-1.4
				C15,29.9,16.9,28.1,19.6,27.4 M19.5,27.1c-2.9,0.7-5,2.7-4.5,4.4c0.4,1.7,3.1,2.4,6.1,1.7c2.9-0.7,5-2.7,4.5-4.4
				C25.2,27.1,22.5,26.3,19.5,27.1L19.5,27.1z"/>
			<g>
				<g>
					<path class="st1" d="M16.8,29.9c0.3,0,0.6-0.1,0.7-0.3c0.1-0.2-0.1-0.5-0.4-0.7c-0.3-0.2-0.6,0-0.8,0.3
						C16.2,29.6,16.5,29.9,16.8,29.9z"/>
				</g>
				<g>
					<path class="st1" d="M16.9,31c0.3-0.1,0.5-0.3,0.5-0.6c0-0.2-0.2-0.4-0.6-0.5c-0.3-0.1-0.6,0.2-0.6,0.6
						C16.2,30.8,16.6,31,16.9,31z"/>
				</g>
				<g>
					<path class="st1" d="M17.3,31.9c0.3-0.2,0.4-0.5,0.3-0.7c-0.1-0.2-0.4-0.3-0.7-0.2c-0.3,0.1-0.5,0.4-0.4,0.7
						C16.7,32,17,32.1,17.3,31.9z"/>
				</g>
				<g>
					<path class="st1" d="M18.1,32.6c0.2-0.3,0.2-0.6,0-0.8c-0.2-0.2-0.5-0.2-0.7,0c-0.3,0.2-0.3,0.6-0.1,0.8
						C17.5,33,17.9,32.9,18.1,32.6z"/>
				</g>
			</g>
			<g>
				<g>
					<path class="st1" d="M23.8,30.3c-0.3,0-0.6,0.1-0.7,0.3c-0.1,0.2,0.1,0.5,0.4,0.7c0.3,0.2,0.6,0,0.8-0.3
						C24.3,30.6,24.1,30.3,23.8,30.3z"/>
				</g>
				<g>
					<path class="st1" d="M23.7,29.2c-0.3,0.1-0.5,0.3-0.5,0.6c0,0.2,0.2,0.4,0.6,0.5c0.3,0.1,0.6-0.2,0.6-0.6
						C24.4,29.3,24,29.1,23.7,29.2z"/>
				</g>
				<g>
					<path class="st1" d="M23.3,28.3C23,28.5,22.9,28.8,23,29c0.1,0.2,0.4,0.3,0.7,0.2c0.3-0.1,0.5-0.4,0.4-0.7
						C23.9,28.1,23.5,28.1,23.3,28.3z"/>
				</g>
				<g>
					<path class="st1" d="M22.5,27.5c-0.2,0.3-0.2,0.6,0,0.8c0.2,0.2,0.5,0.2,0.7,0c0.3-0.2,0.3-0.6,0.1-0.8
						C23.1,27.2,22.7,27.3,22.5,27.5z"/>
				</g>
			</g>
			<ellipse transform="matrix(0.9692 -0.2462 0.2462 0.9692 -6.7804 5.922)" class="st2" cx="20.3" cy="30.1" rx="3.5" ry="3.1"/>
			<path class="st1" d="M19.6,27.4c1.7-0.4,3.4,0.4,3.8,1.9c0.4,1.5-0.7,3-2.4,3.5c-1.7,0.4-3.4-0.4-3.8-1.9
				C16.8,29.4,17.9,27.8,19.6,27.4 M19.5,27.1c-1.9,0.5-3.1,2.2-2.7,3.9c0.4,1.7,2.3,2.6,4.2,2.1c1.9-0.5,3.1-2.2,2.7-3.9
				C23.3,27.5,21.4,26.6,19.5,27.1L19.5,27.1z"/>
			<path class="st1" d="M19.6,27.4c0.4-0.1,1.3,0.8,1.7,2.4c0.4,1.6,0.1,2.8-0.3,2.9s-1.3-0.8-1.7-2.4S19.2,27.5,19.6,27.4
				 M19.5,27.1c-0.7,0.2-1,1.7-0.6,3.4c0.4,1.7,1.4,2.9,2.1,2.7c0.7-0.2,1-1.7,0.6-3.4C21.2,28.1,20.3,26.9,19.5,27.1L19.5,27.1z"/>
			<path class="st1" d="M25.1,30.8c-0.1-0.5-2.2-0.4-4.5,0.2s-4.2,1.5-4.1,2"/>
			
				<rect x="16.4" y="31.9" transform="matrix(-0.9692 0.2462 -0.2462 -0.9692 49.1041 58.6675)" class="st1" width="8.9" height="1"/>
			<ellipse transform="matrix(0.9692 -0.2462 0.2462 0.9692 -7.4537 6.1856)" class="st2" cx="21" cy="32.9" rx="4.4" ry="0.9"/>
			<path class="st1" d="M20.9,32.3c2.2-0.6,3.6-0.6,4-0.4c-0.3,0.3-1.5,1-3.8,1.6s-3.6,0.6-4,0.4C17.4,33.6,18.6,32.9,20.9,32.3
				 M20.8,32c-2.4,0.6-4.2,1.5-4.1,2c0.1,0.5,2.2,0.4,4.5-0.2c2.4-0.6,4.2-1.5,4.1-2S23.2,31.4,20.8,32L20.8,32z"/>
			<ellipse transform="matrix(0.9692 -0.2462 0.2462 0.9692 -6.8574 5.9522)" class="st1" cx="20.4" cy="30.4" rx="0.4" ry="0.4"/>
			<ellipse transform="matrix(0.9692 -0.2462 0.2462 0.9692 -6.6034 5.8527)" class="st1" cx="20.1" cy="29.3" rx="0.4" ry="0.4"/>
			<ellipse transform="matrix(0.9692 -0.2462 0.2462 0.9692 -6.3493 5.7533)" class="st1" cx="19.8" cy="28.3" rx="0.4" ry="0.4"/>
			<path class="st1" d="M17.6,25.9L17.6,25.9c-0.1-0.2,0.1-0.4,0.3-0.5l2.3-0.6c0.2-0.1,0.4,0.1,0.5,0.3l0,0
				c0.1,0.2-0.1,0.4-0.3,0.5l-2.3,0.6C17.9,26.3,17.7,26.1,17.6,25.9z"/>
			<path class="st1" d="M19.9,27l-0.7,0.2l-0.7-2.6c-0.1-0.2,0.1-0.4,0.3-0.5l0,0c0.2-0.1,0.4,0.1,0.5,0.3L19.9,27z"/>
			<g>
				<g>
					<path class="st2" d="M23.8,31.2c0,0.2,0.2,0.4,0.4,0.4c0.2,0,0.4-0.2,0.5-0.4c0-0.2-0.2-0.4-0.4-0.4C24,30.8,23.8,31,23.8,31.2
						z"/>
				</g>
				<g>
					<path class="st2" d="M22,31.4c0,0.2,0.3,0.3,0.5,0.3c0.2,0,0.4-0.2,0.4-0.5c0-0.2-0.2-0.4-0.5-0.3C22.1,31,22,31.2,22,31.4z"/>
				</g>
				<g>
					
						<ellipse transform="matrix(0.9692 -0.2462 0.2462 0.9692 -7.1767 6.0771)" class="st2" cx="20.7" cy="31.7" rx="0.4" ry="0.4"/>
				</g>
				<g>
					<path class="st2" d="M18.6,32.4c0.1,0.2,0.3,0.3,0.6,0.2c0.2-0.1,0.4-0.3,0.3-0.5c-0.1-0.2-0.3-0.3-0.6-0.2
						C18.6,32,18.5,32.2,18.6,32.4z"/>
				</g>
				<g>
					<path class="st2" d="M17,33.1c0.1,0.2,0.4,0.2,0.6,0.1c0.2-0.1,0.3-0.3,0.2-0.5c-0.1-0.2-0.4-0.3-0.6-0.2
						C16.9,32.7,16.8,32.9,17,33.1z"/>
				</g>
			</g>
		</g>
		<path class="st3" d="M9.5,19.4l15.3-3.9c0.5-0.1,1.1,0.2,1.2,0.7l5.9,23.1c0.1,0.5-0.2,1.1-0.7,1.2l-15.3,3.9
			c-0.5,0.1-1.1-0.2-1.2-0.7L8.7,20.6C8.6,20,8.9,19.5,9.5,19.4z"/>
		<path class="st3" d="M48.8,19.4l-15.3-3.9c-0.5-0.1-1.1,0.2-1.2,0.7l-5.9,23.1c-0.1,0.5,0.2,1.1,0.7,1.2l15.3,3.9
			c0.5,0.1,1.1-0.2,1.2-0.7l5.9-23.1C49.6,20,49.3,19.5,48.8,19.4z"/>
		<path class="st1" d="M37,19.2H21.2c-0.6,0-1,0.4-1,1V44c0,0.6,0.4,1,1,1H37c0.6,0,1-0.4,1-1V20.2C38,19.6,37.5,19.2,37,19.2z"/>
		<path class="st2" d="M35.4,20.8H22.8c-0.6,0-1,0.4-1,1v20.7c0,0.6,0.4,1,1,1h12.5c0.6,0,1-0.4,1-1V21.8
			C36.4,21.2,35.9,20.8,35.4,20.8z"/>
		<g>
			<g>
				<g>
					<path class="st1" d="M23.9,33.3c0.3-0.2,0.6-0.1,0.8,0c0.2,0.2,0.2,0.5,0,0.8c-0.2,0.3-0.6,0.3-0.8,0
						C23.6,33.9,23.7,33.4,23.9,33.3z"/>
				</g>
				<g>
					<path class="st1" d="M23.6,32.2c0.2,0,0.3,0.1,0.4,0.1c0.1,0.1,0.2,0.2,0.2,0.3c0.1,0.2,0,0.5-0.3,0.7
						c-0.3,0.2-0.7,0.1-0.8-0.3c-0.1-0.2,0-0.4,0.1-0.5C23.3,32.3,23.5,32.2,23.6,32.2z"/>
				</g>
				<g>
					<path class="st1" d="M24,31.1c0.1,0.1,0.2,0.2,0.3,0.3c0.1,0.1,0.1,0.2,0,0.4c0,0.1-0.1,0.2-0.2,0.3c-0.1,0.1-0.3,0.1-0.4,0.1
						c-0.2,0-0.3-0.1-0.4-0.2c-0.1-0.1-0.1-0.3-0.1-0.5c0.1-0.2,0.2-0.3,0.4-0.4C23.7,31,23.8,31,24,31.1z"/>
				</g>
				<g>
					<path class="st1" d="M24.8,30.3c0.2,0.3,0.2,0.6,0,0.8c-0.1,0.1-0.2,0.1-0.4,0.1c-0.1,0-0.3,0-0.4-0.1
						c-0.1-0.1-0.2-0.2-0.2-0.4c0-0.2,0-0.3,0.2-0.5C24.2,30,24.6,30.1,24.8,30.3z"/>
				</g>
				<g>
					<path class="st1" d="M25.8,29.8c0.1,0.1,0.1,0.3,0,0.4c0,0.1-0.1,0.3-0.2,0.3c-0.2,0.1-0.6,0.1-0.8-0.2
						c-0.2-0.3-0.1-0.6,0.2-0.8c0.2-0.1,0.3-0.1,0.5-0.1C25.6,29.5,25.7,29.6,25.8,29.8z"/>
				</g>
				<g>
					<path class="st1" d="M26.8,29.4c0.1,0.3-0.1,0.6-0.4,0.7c-0.3,0.1-0.6,0-0.7-0.3c-0.1-0.3,0-0.7,0.3-0.8
						C26.4,28.9,26.8,29.1,26.8,29.4z"/>
				</g>
				<g>
					<path class="st1" d="M28,29.2c0,0.3-0.2,0.6-0.5,0.7c-0.3,0.1-0.6-0.1-0.7-0.4c-0.1-0.3,0.1-0.6,0.5-0.7
						C27.6,28.6,27.9,28.9,28,29.2z"/>
				</g>
				<g>
					<path class="st1" d="M29.1,29.1c0,0.3-0.2,0.6-0.5,0.6c-0.3,0-0.6-0.2-0.6-0.5c0-0.3,0.2-0.6,0.5-0.6
						C28.8,28.5,29.1,28.8,29.1,29.1z"/>
				</g>
				<g>
					<path class="st1" d="M30.2,29.2c0,0.3-0.3,0.6-0.6,0.5c-0.3,0-0.5-0.3-0.5-0.6c0-0.3,0.3-0.6,0.6-0.6
						C30,28.6,30.3,28.9,30.2,29.2z"/>
				</g>
				<g>
					<path class="st1" d="M31.4,29.4c-0.1,0.3-0.4,0.5-0.7,0.4c-0.3-0.1-0.5-0.3-0.5-0.7c0-0.3,0.3-0.5,0.7-0.5
						C31.2,28.8,31.4,29.1,31.4,29.4z"/>
				</g>
				<g>
					<path class="st1" d="M32.4,29.8c-0.1,0.3-0.4,0.4-0.7,0.3c-0.3-0.1-0.4-0.4-0.4-0.7c0.1-0.3,0.4-0.5,0.7-0.4
						C32.4,29.1,32.6,29.5,32.4,29.8z"/>
				</g>
				<g>
					<path class="st1" d="M33.4,30.3c-0.2,0.3-0.5,0.3-0.8,0.2c-0.1-0.1-0.2-0.2-0.2-0.3c0-0.1,0-0.3,0-0.4c0.1-0.1,0.2-0.3,0.3-0.3
						c0.1,0,0.3,0,0.5,0.1C33.6,29.7,33.6,30.1,33.4,30.3z"/>
				</g>
				<g>
					<path class="st1" d="M34.2,31.1c-0.1,0.1-0.3,0.1-0.4,0.1c-0.1,0-0.3-0.1-0.4-0.1c-0.2-0.2-0.2-0.5,0-0.8
						c0.2-0.3,0.6-0.3,0.8,0c0.1,0.1,0.2,0.3,0.2,0.5C34.5,30.9,34.4,31.1,34.2,31.1z"/>
				</g>
				<g>
					<path class="st1" d="M34.6,32.2c-0.2,0-0.3-0.1-0.4-0.1c-0.1-0.1-0.2-0.1-0.2-0.3c0-0.1,0-0.2,0-0.4c0-0.1,0.1-0.3,0.3-0.3
						c0.1-0.1,0.3-0.1,0.5-0.1c0.1,0.1,0.3,0.2,0.4,0.4c0.1,0.2,0,0.4-0.1,0.5C34.9,32.1,34.7,32.2,34.6,32.2z"/>
				</g>
				<g>
					<path class="st1" d="M34.3,33.3c-0.3-0.2-0.4-0.5-0.3-0.7c0-0.1,0.1-0.2,0.2-0.3c0.1-0.1,0.3-0.1,0.4-0.1
						c0.2,0,0.3,0.1,0.4,0.2c0.1,0.1,0.1,0.3,0.1,0.5C34.9,33.4,34.5,33.5,34.3,33.3z"/>
				</g>
				<g>
					<path class="st1" d="M33.5,34.1c-0.2-0.3-0.2-0.6,0-0.8c0.2-0.2,0.5-0.2,0.8,0c0.3,0.2,0.3,0.6,0.1,0.9
						C34,34.4,33.7,34.4,33.5,34.1z"/>
				</g>
			</g>
			<ellipse class="st2" cx="29.1" cy="32.2" rx="5.5" ry="3.1"/>
			<path class="st1" d="M29.1,29.5c2.8,0,5.1,1.3,5.1,2.8c0,1.5-2.3,2.8-5.1,2.8S24,33.7,24,32.2C24,30.7,26.3,29.5,29.1,29.5
				 M29.1,29.1c-3,0-5.5,1.4-5.5,3.1c0,1.7,2.5,3.1,5.5,3.1s5.5-1.4,5.5-3.1C34.6,30.5,32.1,29.1,29.1,29.1L29.1,29.1z"/>
			<g>
				<g>
					<path class="st1" d="M32.4,31.2c-0.3,0.1-0.6,0-0.7-0.2c-0.1-0.2-0.1-0.5,0.2-0.7c0.2-0.2,0.6-0.2,0.8,0.1
						C32.9,30.7,32.7,31.1,32.4,31.2z"/>
				</g>
				<g>
					<path class="st1" d="M32.6,32.2c-0.3,0-0.6-0.2-0.6-0.4c0-0.2,0.1-0.5,0.4-0.6c0.3-0.1,0.7,0,0.7,0.4
						C33.2,32,33,32.2,32.6,32.2z"/>
				</g>
				<g>
					<path class="st1" d="M32.4,33.3c-0.3-0.1-0.5-0.4-0.4-0.6c0-0.2,0.3-0.4,0.6-0.4c0.3,0,0.6,0.3,0.5,0.6
						C33.1,33.2,32.7,33.4,32.4,33.3z"/>
				</g>
				<g>
					<path class="st1" d="M31.9,34.1c-0.2-0.2-0.3-0.5-0.2-0.7c0.1-0.2,0.4-0.3,0.7-0.2c0.3,0.1,0.4,0.5,0.3,0.8
						C32.5,34.3,32.1,34.4,31.9,34.1z"/>
				</g>
			</g>
			<g>
				<g>
					<path class="st1" d="M25.8,33.3c0.3-0.1,0.6,0,0.7,0.2c0.1,0.2,0.1,0.5-0.2,0.7c-0.2,0.2-0.6,0.2-0.8-0.1
						C25.3,33.7,25.4,33.4,25.8,33.3z"/>
				</g>
				<g>
					<path class="st1" d="M25.6,32.2c0.3,0,0.6,0.2,0.6,0.4c0,0.2-0.1,0.5-0.4,0.6c-0.3,0.1-0.7,0-0.7-0.4
						C25,32.5,25.2,32.2,25.6,32.2z"/>
				</g>
				<g>
					<path class="st1" d="M25.8,31.2c0.3,0.1,0.5,0.4,0.4,0.6c0,0.2-0.3,0.4-0.6,0.4c-0.3,0-0.6-0.3-0.5-0.6
						C25.1,31.2,25.5,31.1,25.8,31.2z"/>
				</g>
				<g>
					<path class="st1" d="M26.3,30.3c0.2,0.2,0.3,0.5,0.2,0.7c-0.1,0.2-0.4,0.3-0.7,0.2c-0.3-0.1-0.4-0.5-0.3-0.8
						C25.7,30.1,26.1,30.1,26.3,30.3z"/>
				</g>
			</g>
			<ellipse class="st2" cx="29.1" cy="32.2" rx="3.5" ry="3.1"/>
			<path class="st1" d="M29.1,29.5c1.8,0,3.2,1.2,3.2,2.8c0,1.5-1.4,2.8-3.2,2.8c-1.8,0-3.2-1.2-3.2-2.8
				C25.9,30.7,27.3,29.5,29.1,29.5 M29.1,29.1c-2,0-3.5,1.4-3.5,3.1c0,1.7,1.6,3.1,3.5,3.1s3.5-1.4,3.5-3.1
				C32.6,30.5,31.1,29.1,29.1,29.1L29.1,29.1z"/>
			<path class="st1" d="M29.1,29.5c0.4,0,1,1.1,1,2.8c0,1.7-0.6,2.8-1,2.8c-0.4,0-1-1.1-1-2.8C28.1,30.5,28.7,29.5,29.1,29.5
				 M29.1,29.1c-0.8,0-1.4,1.4-1.4,3.1c0,1.7,0.6,3.1,1.4,3.1c0.8,0,1.4-1.4,1.4-3.1C30.5,30.5,29.9,29.1,29.1,29.1L29.1,29.1z"/>
			<path class="st1" d="M24.7,34.1c0-0.5,2-0.9,4.4-0.9s4.4,0.4,4.4,0.9"/>
			<rect x="24.7" y="34.1" class="st1" width="8.9" height="1"/>
			<ellipse class="st2" cx="29.1" cy="35.1" rx="4.4" ry="0.9"/>
			<path class="st1" d="M29.1,34.6c2.3,0,3.7,0.4,4,0.6c-0.4,0.2-1.7,0.6-4,0.6s-3.7-0.4-4-0.6C25.4,34.9,26.8,34.6,29.1,34.6
				 M29.1,34.2c-2.5,0-4.4,0.4-4.4,0.9c0,0.5,2,0.9,4.4,0.9s4.4-0.4,4.4-0.9C33.5,34.6,31.6,34.2,29.1,34.2L29.1,34.2z"/>
			<circle class="st1" cx="29.1" cy="32.6" r="0.4"/>
			<circle class="st1" cx="29.1" cy="31.5" r="0.4"/>
			<circle class="st1" cx="29.1" cy="30.4" r="0.4"/>
			<path class="st1" d="M30.6,27.6L30.6,27.6c0-0.2-0.2-0.4-0.4-0.4h-2.3c-0.2,0-0.4,0.2-0.4,0.4v0c0,0.2,0.2,0.4,0.4,0.4h2.3
				C30.5,27.9,30.6,27.8,30.6,27.6z"/>
			<path class="st1" d="M28.7,29.1h0.8v-2.7c0-0.2-0.2-0.4-0.4-0.4h0c-0.2,0-0.4,0.2-0.4,0.4V29.1z"/>
			<g>
				<g>
					<path class="st2" d="M26,34.2c0,0.2-0.1,0.4-0.3,0.5c-0.2,0-0.4-0.1-0.5-0.3c-0.1-0.2,0.1-0.4,0.3-0.5
						C25.7,33.8,26,33.9,26,34.2z"/>
				</g>
				<g>
					<path class="st2" d="M27.8,34c0,0.2-0.2,0.4-0.4,0.4c-0.2,0-0.5-0.1-0.5-0.4c0-0.2,0.1-0.4,0.4-0.4
						C27.5,33.6,27.8,33.8,27.8,34z"/>
				</g>
				<g>
					<ellipse class="st2" cx="29.1" cy="33.9" rx="0.4" ry="0.4"/>
				</g>
				<g>
					<path class="st2" d="M31.3,34c0,0.2-0.2,0.4-0.5,0.4c-0.2,0-0.4-0.2-0.4-0.4c0-0.2,0.2-0.4,0.5-0.4
						C31.2,33.6,31.3,33.8,31.3,34z"/>
				</g>
				<g>
					<path class="st2" d="M33.1,34.3c-0.1,0.2-0.3,0.3-0.5,0.3c-0.2,0-0.4-0.2-0.3-0.5c0-0.2,0.3-0.4,0.5-0.3
						C33,33.9,33.1,34.1,33.1,34.3z"/>
				</g>
			</g>
		</g>
		<path class="st2" d="M22.9,20.8h12.5c0.6,0,1,0.4,1,1v20.7c0,0.6-0.4,1-1,1H22.9c-0.6,0-1-0.4-1-1V21.8
			C21.9,21.2,22.3,20.8,22.9,20.8z"/>
		<g>
			<g>
				<g>
					<path class="st1" d="M34.3,33.3c-0.3-0.2-0.6-0.1-0.8,0c-0.2,0.2-0.2,0.5,0,0.8c0.2,0.3,0.6,0.3,0.8,0
						C34.6,33.9,34.6,33.4,34.3,33.3z"/>
				</g>
				<g>
					<path class="st1" d="M34.6,32.2c-0.2,0-0.3,0.1-0.4,0.1c-0.1,0.1-0.2,0.2-0.2,0.3c-0.1,0.2,0,0.5,0.3,0.7
						c0.3,0.2,0.7,0.1,0.8-0.3c0.1-0.2,0-0.4-0.1-0.5C34.9,32.3,34.8,32.2,34.6,32.2z"/>
				</g>
				<g>
					<path class="st1" d="M34.3,31.1c-0.1,0.1-0.2,0.2-0.3,0.3c-0.1,0.1-0.1,0.2,0,0.4c0,0.1,0.1,0.2,0.2,0.3
						c0.1,0.1,0.3,0.1,0.4,0.1c0.2,0,0.3-0.1,0.4-0.2c0.1-0.1,0.1-0.3,0.1-0.5c-0.1-0.2-0.2-0.3-0.4-0.4C34.6,31,34.4,31,34.3,31.1z
						"/>
				</g>
				<g>
					<path class="st1" d="M33.5,30.3c-0.2,0.3-0.2,0.6,0,0.8c0.1,0.1,0.2,0.1,0.4,0.1c0.1,0,0.3,0,0.4-0.1c0.1-0.1,0.2-0.2,0.2-0.4
						c0-0.2,0-0.3-0.2-0.5C34,30,33.7,30.1,33.5,30.3z"/>
				</g>
				<g>
					<path class="st1" d="M32.5,29.8c-0.1,0.1-0.1,0.3,0,0.4c0,0.1,0.1,0.3,0.2,0.3c0.2,0.1,0.6,0.1,0.8-0.2
						c0.2-0.3,0.1-0.6-0.2-0.8c-0.2-0.1-0.3-0.1-0.5-0.1C32.7,29.5,32.5,29.6,32.5,29.8z"/>
				</g>
				<g>
					<path class="st1" d="M31.4,29.4c-0.1,0.3,0.1,0.6,0.4,0.7c0.3,0.1,0.6,0,0.7-0.3c0.1-0.3,0-0.7-0.3-0.8
						C31.8,28.9,31.5,29.1,31.4,29.4z"/>
				</g>
				<g>
					<path class="st1" d="M30.3,29.2c0,0.3,0.2,0.6,0.5,0.7c0.3,0.1,0.6-0.1,0.7-0.4c0.1-0.3-0.1-0.6-0.5-0.7
						C30.6,28.6,30.3,28.9,30.3,29.2z"/>
				</g>
				<g>
					<path class="st1" d="M29.1,29.1c0,0.3,0.2,0.6,0.5,0.6c0.3,0,0.6-0.2,0.6-0.5c0-0.3-0.2-0.6-0.5-0.6
						C29.4,28.5,29.1,28.8,29.1,29.1z"/>
				</g>
				<g>
					<path class="st1" d="M28,29.2c0,0.3,0.3,0.6,0.6,0.5c0.3,0,0.5-0.3,0.5-0.6c0-0.3-0.3-0.6-0.6-0.6C28.2,28.6,27.9,28.9,28,29.2
						z"/>
				</g>
				<g>
					<path class="st1" d="M26.9,29.4c0.1,0.3,0.4,0.5,0.7,0.4c0.3-0.1,0.5-0.3,0.5-0.7c0-0.3-0.3-0.5-0.7-0.5
						C27,28.8,26.8,29.1,26.9,29.4z"/>
				</g>
				<g>
					<path class="st1" d="M25.8,29.8c0.1,0.3,0.4,0.4,0.7,0.3c0.3-0.1,0.4-0.4,0.4-0.7c-0.1-0.3-0.4-0.5-0.7-0.4
						C25.8,29.1,25.7,29.5,25.8,29.8z"/>
				</g>
				<g>
					<path class="st1" d="M24.8,30.3c0.2,0.3,0.5,0.3,0.8,0.2c0.1-0.1,0.2-0.2,0.2-0.3c0-0.1,0-0.3,0-0.4c-0.1-0.1-0.2-0.3-0.3-0.3
						c-0.1,0-0.3,0-0.5,0.1C24.7,29.7,24.6,30.1,24.8,30.3z"/>
				</g>
				<g>
					<path class="st1" d="M24,31.1c0.1,0.1,0.3,0.1,0.4,0.1c0.1,0,0.3-0.1,0.4-0.1c0.2-0.2,0.2-0.5,0-0.8c-0.2-0.3-0.6-0.3-0.8,0
						c-0.1,0.1-0.2,0.3-0.2,0.5C23.8,30.9,23.9,31.1,24,31.1z"/>
				</g>
				<g>
					<path class="st1" d="M23.7,32.2c0.2,0,0.3-0.1,0.4-0.1c0.1-0.1,0.2-0.1,0.2-0.3c0-0.1,0-0.2,0-0.4c0-0.1-0.1-0.3-0.3-0.3
						c-0.1-0.1-0.3-0.1-0.5-0.1c-0.1,0.1-0.3,0.2-0.4,0.4c-0.1,0.2,0,0.4,0.1,0.5C23.3,32.1,23.5,32.2,23.7,32.2z"/>
				</g>
				<g>
					<path class="st1" d="M24,33.3c0.3-0.2,0.4-0.5,0.3-0.7c0-0.1-0.1-0.2-0.2-0.3c-0.1-0.1-0.3-0.1-0.4-0.1c-0.2,0-0.3,0.1-0.4,0.2
						c-0.1,0.1-0.1,0.3-0.1,0.5C23.3,33.4,23.7,33.5,24,33.3z"/>
				</g>
				<g>
					<path class="st1" d="M24.8,34.1c0.2-0.3,0.2-0.6,0-0.8c-0.2-0.2-0.5-0.2-0.8,0c-0.3,0.2-0.3,0.6-0.1,0.9
						C24.2,34.4,24.6,34.4,24.8,34.1z"/>
				</g>
			</g>
			<ellipse class="st2" cx="29.1" cy="32.2" rx="5.5" ry="3.1"/>
			<path class="st1" d="M29.1,29.5c2.8,0,5.1,1.3,5.1,2.8c0,1.5-2.3,2.8-5.1,2.8S24,33.7,24,32.2C24,30.7,26.4,29.5,29.1,29.5
				 M29.1,29.1c-3,0-5.5,1.4-5.5,3.1c0,1.7,2.5,3.1,5.5,3.1s5.5-1.4,5.5-3.1C34.6,30.5,32.2,29.1,29.1,29.1L29.1,29.1z"/>
			<g>
				<g>
					<path class="st1" d="M25.8,31.2c0.3,0.1,0.6,0,0.7-0.2c0.1-0.2,0.1-0.5-0.2-0.7c-0.2-0.2-0.6-0.2-0.8,0.1
						C25.3,30.7,25.5,31.1,25.8,31.2z"/>
				</g>
				<g>
					<path class="st1" d="M25.6,32.2c0.3,0,0.6-0.2,0.6-0.4c0-0.2-0.1-0.5-0.4-0.6c-0.3-0.1-0.7,0-0.7,0.4
						C25,32,25.3,32.2,25.6,32.2z"/>
				</g>
				<g>
					<path class="st1" d="M25.8,33.3c0.3-0.1,0.5-0.4,0.4-0.6c0-0.2-0.3-0.4-0.6-0.4c-0.3,0-0.6,0.3-0.5,0.6
						C25.1,33.2,25.5,33.4,25.8,33.3z"/>
				</g>
				<g>
					<path class="st1" d="M26.3,34.1c0.2-0.2,0.3-0.5,0.2-0.7c-0.1-0.2-0.4-0.3-0.7-0.2c-0.3,0.1-0.4,0.5-0.3,0.8
						C25.7,34.3,26.1,34.4,26.3,34.1z"/>
				</g>
			</g>
			<g>
				<g>
					<path class="st1" d="M32.5,33.3c-0.3-0.1-0.6,0-0.7,0.2c-0.1,0.2-0.1,0.5,0.2,0.7c0.2,0.2,0.6,0.2,0.8-0.1
						C32.9,33.7,32.8,33.4,32.5,33.3z"/>
				</g>
				<g>
					<path class="st1" d="M32.7,32.2c-0.3,0-0.6,0.2-0.6,0.4c0,0.2,0.1,0.5,0.4,0.6c0.3,0.1,0.7,0,0.7-0.4
						C33.3,32.5,33,32.2,32.7,32.2z"/>
				</g>
				<g>
					<path class="st1" d="M32.5,31.2c-0.3,0.1-0.5,0.4-0.4,0.6c0,0.2,0.3,0.4,0.6,0.4c0.3,0,0.6-0.3,0.5-0.6
						C33.1,31.2,32.8,31.1,32.5,31.2z"/>
				</g>
				<g>
					<path class="st1" d="M31.9,30.3c-0.2,0.2-0.3,0.5-0.2,0.7c0.1,0.2,0.4,0.3,0.7,0.2c0.3-0.1,0.4-0.5,0.3-0.8
						C32.5,30.1,32.2,30.1,31.9,30.3z"/>
				</g>
			</g>
			<ellipse class="st2" cx="29.1" cy="32.2" rx="3.5" ry="3.1"/>
			<path class="st1" d="M29.1,29.5c1.8,0,3.2,1.2,3.2,2.8c0,1.5-1.4,2.8-3.2,2.8s-3.2-1.2-3.2-2.8C25.9,30.7,27.4,29.5,29.1,29.5
				 M29.1,29.1c-2,0-3.5,1.4-3.5,3.1c0,1.7,1.6,3.1,3.5,3.1s3.5-1.4,3.5-3.1C32.7,30.5,31.1,29.1,29.1,29.1L29.1,29.1z"/>
			<path class="st1" d="M29.1,29.5c0.4,0,1,1.1,1,2.8c0,1.7-0.6,2.8-1,2.8s-1-1.1-1-2.8C28.1,30.5,28.7,29.5,29.1,29.5 M29.1,29.1
				c-0.8,0-1.4,1.4-1.4,3.1c0,1.7,0.6,3.1,1.4,3.1s1.4-1.4,1.4-3.1C30.5,30.5,29.9,29.1,29.1,29.1L29.1,29.1z"/>
			<path class="st1" d="M33.6,34.1c0-0.5-2-0.9-4.4-0.9s-4.4,0.4-4.4,0.9"/>
			
				<rect x="24.7" y="34.1" transform="matrix(-1 -4.502766e-11 4.502766e-11 -1 58.2629 69.2521)" class="st1" width="8.9" height="1"/>
			<ellipse class="st2" cx="29.1" cy="35.1" rx="4.4" ry="0.9"/>
			<path class="st1" d="M29.1,34.6c2.3,0,3.7,0.4,4,0.6c-0.4,0.2-1.7,0.6-4,0.6s-3.7-0.4-4-0.6C25.5,34.9,26.8,34.6,29.1,34.6
				 M29.1,34.2c-2.5,0-4.4,0.4-4.4,0.9c0,0.5,2,0.9,4.4,0.9s4.4-0.4,4.4-0.9C33.6,34.6,31.6,34.2,29.1,34.2L29.1,34.2z"/>
			<circle class="st1" cx="29.1" cy="32.6" r="0.4"/>
			<circle class="st1" cx="29.1" cy="31.5" r="0.4"/>
			<circle class="st1" cx="29.1" cy="30.4" r="0.4"/>
			<path class="st1" d="M27.6,27.6L27.6,27.6c0-0.2,0.2-0.4,0.4-0.4h2.3c0.2,0,0.4,0.2,0.4,0.4v0c0,0.2-0.2,0.4-0.4,0.4H28
				C27.8,27.9,27.6,27.8,27.6,27.6z"/>
			<path class="st1" d="M29.5,29.1h-0.8v-2.7c0-0.2,0.2-0.4,0.4-0.4h0c0.2,0,0.4,0.2,0.4,0.4V29.1z"/>
			<g>
				<g>
					<path class="st2" d="M32.2,34.2c0,0.2,0.1,0.4,0.3,0.5c0.2,0,0.4-0.1,0.5-0.3c0.1-0.2-0.1-0.4-0.3-0.5
						C32.5,33.8,32.3,33.9,32.2,34.2z"/>
				</g>
				<g>
					<path class="st2" d="M30.5,34c0,0.2,0.2,0.4,0.4,0.4c0.2,0,0.5-0.1,0.5-0.4c0-0.2-0.1-0.4-0.4-0.4C30.7,33.6,30.5,33.8,30.5,34
						z"/>
				</g>
				<g>
					<ellipse class="st2" cx="29.1" cy="33.9" rx="0.4" ry="0.4"/>
				</g>
				<g>
					<path class="st2" d="M26.9,34c0,0.2,0.2,0.4,0.5,0.4c0.2,0,0.4-0.2,0.4-0.4c0-0.2-0.2-0.4-0.5-0.4C27.1,33.6,26.9,33.8,26.9,34
						z"/>
				</g>
				<g>
					<path class="st2" d="M25.2,34.3c0.1,0.2,0.3,0.3,0.5,0.3c0.2,0,0.4-0.2,0.3-0.5c0-0.2-0.3-0.4-0.5-0.3
						C25.2,33.9,25.1,34.1,25.2,34.3z"/>
				</g>
			</g>
		</g>
	</g>
</g>
</svg>
