<?xml version="1.0" encoding="utf-8"?>
<!-- Generator: Adobe Illustrator 20.1.0, SVG Export Plug-In . SVG Version: 6.00 Build 0)  -->
<svg version="1.1" id="Layer_1" xmlns="http://www.w3.org/2000/svg" xmlns:xlink="http://www.w3.org/1999/xlink" x="0px" y="0px"
	 viewBox="0 0 58.2 58.2" style="enable-background:new 0 0 58.2 58.2;" xml:space="preserve">
<style type="text/css">
	.st0{fill:#B73332;}
	.st1{fill:#473535;}
	.st2{fill:#333333;}
	.st3{fill:#FFFFFF;}
	.st4{fill:#D8C5BC;}
	.st5{fill:#EFE0D7;}
	.st6{fill:#EACE7D;}
	.st7{fill:#DDB546;}
	.st8{fill:#7B2020;}
	.st9{fill:#C8B9AE;}
	.st10{fill:#443C31;}
	.st11{fill:#9C2929;}
	.st12{fill:#C69A2C;}
	.st13{fill:#594141;}
</style>
<path class="st0" d="M29.3,58.2c-16.1,0-29.1-13.1-29.1-29.1S13.2,0,29.3,0s29.1,13.1,29.1,29.1S45.4,58.2,29.3,58.2z M29.3,4.1
	c-13.8,0-25,11.2-25,25s11.2,25,25,25s25-11.2,25-25S43.1,4.1,29.3,4.1z"/>
<g>
	<rect x="14.4" y="41.6" class="st1" width="13.5" height="3.7"/>
	<rect x="32.3" y="36.3" class="st2" width="9.6" height="3.2"/>
	<path class="st3" d="M37.6,47.9h-1c-0.9,0-1.6-0.7-1.6-1.6v-2.7h4.3v2.7C39.2,47.2,38.5,47.9,37.6,47.9z"/>
	<circle class="st4" cx="43.8" cy="37.8" r="0.8"/>
	<circle class="st4" cx="30.3" cy="37.8" r="0.8"/>
	<path class="st5" d="M40.2,31.1H34c-2,0-3.6,1.6-3.6,3.6v6.2c0,2,1.6,3.6,3.6,3.6h6.2c2,0,3.6-1.6,3.6-3.6v-6.2
		C43.8,32.7,42.2,31.1,40.2,31.1z M34.1,38.7c-0.5,0-0.9-0.4-0.9-0.9s0.4-0.9,0.9-0.9s0.9,0.4,0.9,0.9S34.6,38.7,34.1,38.7z
		 M40,38.7c-0.5,0-0.9-0.4-0.9-0.9s0.4-0.9,0.9-0.9s0.9,0.4,0.9,0.9S40.6,38.7,40,38.7z"/>
	<path class="st6" d="M43.8,31.1c-0.1-0.8-0.7-1.4-1.5-1.4H31.9c-0.8,0-1.5,0.6-1.5,1.4l0,0v0.1v1.2v2.7c0.8,0,1.4-0.6,1.4-1.4v-1
		c0-0.5,0.4-0.8,0.8-0.8h9c0.5,0,0.8,0.4,0.8,0.8v1c0,0.8,0.6,1.4,1.4,1.4v-3.2v-0.7L43.8,31.1L43.8,31.1z"/>
	<path class="st6" d="M30.5,31.8c0-0.4-0.8-1.6-0.8-1.6c0.2-0.1,1,0.2,1,0.2c-0.2-0.4-0.3-0.8-0.3-1.1c0-0.2,0.2-0.2,0.3-0.2
		c0.3,0.3,0.7,0.6,0.7,0.6c0.3-0.7,0.6-1,0.8-1.1c0.2-0.1,0.3,0.1,0.3,0.2c-0.1,0.4-0.2,0.8-0.2,0.8c3.3-1.6,5.8-1.8,7-1.8
		c0.2,0,0.3,0.3,0.1,0.4c-0.4,0.3-0.8,0.6-0.8,0.6c3.3-0.7,6,1.1,6,1.3s-0.9,0.5-0.9,0.5c0.2-0.1,1,0.6,0.9,0.7
		c-2.9,2.4-8.6,0.5-8.6,0.5c0.1,0.2,0.8,0.6,1.2,0.9c0.1,0.1,0.1,0.2-0.1,0.3C34.7,33.8,30.5,31.8,30.5,31.8L30.5,31.8z"/>
	<path class="st7" d="M41.7,48.5c0.4-0.2,0.6-0.7,0.4-1.1c-0.5-0.7-1.3-1.2-2.2-1.2h-5.6c-0.9,0-1.8,0.5-2.2,1.2
		c-0.3,0.4-0.1,0.9,0.4,1.1c1.4,0.6,3,1,4.7,1C38.7,49.5,40.3,49.1,41.7,48.5z"/>
	<rect x="34.1" y="44.5" class="st8" width="5.9" height="1.7"/>
	<path class="st3" d="M39,40.9c0.4,0,0.6,0.3,0.5,0.7c-0.3,1-1.2,1.8-2.4,1.8s-2.1-0.8-2.4-1.8c-0.1-0.3,0.2-0.7,0.5-0.7H39z"/>
	<path class="st9" d="M37.6,38.4L37.6,38.4c0-0.4-0.3-0.6-0.6-0.6s-0.6,0.3-0.6,0.6v1.1l0,0c0,0.3,0.3,0.5,0.6,0.5s0.6-0.3,0.6-0.6
		v-0.1V38.4z"/>
	<path class="st10" d="M34.7,35.3h-1.2c-0.2,0-0.3,0.2-0.3,0.3v0.2c0,0.2,0.2,0.3,0.3,0.3h1.2c0.2,0,0.3-0.2,0.3-0.3v-0.2
		C35,35.5,34.9,35.3,34.7,35.3z"/>
	<path class="st10" d="M40.6,35.3h-1.2c-0.2,0-0.3,0.2-0.3,0.3v0.2c0,0.2,0.2,0.3,0.3,0.3h1.2c0.2,0,0.3-0.2,0.3-0.3v-0.2
		C40.9,35.5,40.8,35.3,40.6,35.3z"/>
	<g>
		<rect x="33.9" y="48.4" class="st11" width="1.7" height="1.4"/>
		<rect x="34.6" y="47.4" class="st11" width="0.3" height="2.9"/>
		<rect x="35.1" y="47.3" class="st11" width="0.3" height="2.9"/>
		<rect x="34.1" y="47.3" class="st11" width="0.3" height="2.9"/>
		<rect x="33.9" y="47" class="st12" width="1.7" height="1.4"/>
		<rect x="33.9" y="45.6" class="st11" width="1.7" height="1.4"/>
		<rect x="33.9" y="44.5" class="st12" width="1.7" height="1.1"/>
	</g>
	<g>
		<rect x="39.1" y="48.3" class="st11" width="1.7" height="1.4"/>
		<rect x="39.9" y="47.4" class="st11" width="0.3" height="2.9"/>
		<rect x="40.3" y="47.3" class="st11" width="0.3" height="2.9"/>
		<rect x="39.4" y="47.3" class="st11" width="0.3" height="2.9"/>
		<rect x="39.2" y="47" class="st12" width="1.7" height="1.4"/>
		<rect x="39.1" y="45.6" class="st11" width="1.7" height="1.4"/>
		<rect x="39.1" y="44.5" class="st12" width="1.7" height="1.1"/>
	</g>
	<rect x="24.4" y="14.7" class="st2" width="9.6" height="3.2"/>
	<path class="st3" d="M29.7,26.4h-1c-0.9,0-1.6-0.7-1.6-1.6v-2.7h4.3v2.7C31.3,25.6,30.6,26.4,29.7,26.4z"/>
	<circle class="st4" cx="35.9" cy="16.2" r="0.8"/>
	<circle class="st4" cx="22.4" cy="16.2" r="0.8"/>
	<path class="st5" d="M32.3,9.5h-6.2c-2,0-3.6,1.6-3.6,3.6v6.2c0,2,1.6,3.6,3.6,3.6h6.2c2,0,3.6-1.6,3.6-3.6v-6.2
		C35.9,11.1,34.3,9.5,32.3,9.5z M26.2,17.1c-0.5,0-0.9-0.4-0.9-0.9c0-0.5,0.4-0.9,0.9-0.9s0.9,0.4,0.9,0.9
		C27.1,16.7,26.7,17.1,26.2,17.1z M32.1,17.1c-0.5,0-0.9-0.4-0.9-0.9c0-0.5,0.4-0.9,0.9-0.9c0.5,0,0.9,0.4,0.9,0.9
		C33.1,16.7,32.6,17.1,32.1,17.1z"/>
	<path class="st13" d="M35.9,9.5c-0.1-0.8-0.7-1.4-1.5-1.4H24c-0.8,0-1.5,0.6-1.5,1.4l0,0v0.1v1.2v2.7c0.8,0,1.4-0.6,1.4-1.4v-1
		c0-0.5,0.4-0.8,0.8-0.8h9c0.5,0,0.8,0.4,0.8,0.8v1c0,0.8,0.6,1.4,1.4,1.4v-3.2V9.6L35.9,9.5L35.9,9.5z"/>
	<path class="st7" d="M33.8,26.9c0.4-0.2,0.6-0.7,0.4-1.1c-0.5-0.7-1.3-1.2-2.2-1.2h-5.6c-0.9,0-1.8,0.5-2.2,1.2
		c-0.3,0.4-0.1,0.9,0.4,1.1c1.4,0.6,3,1,4.7,1C30.8,27.9,32.4,27.6,33.8,26.9z"/>
	<rect x="26.2" y="22.9" class="st8" width="5.9" height="1.7"/>
	<path class="st3" d="M31.1,19.3c0.4,0,0.6,0.3,0.5,0.7c-0.3,1-1.2,1.8-2.4,1.8S27.1,21,26.8,20c-0.1-0.3,0.2-0.7,0.5-0.7H31.1z"/>
	<path class="st9" d="M29.7,16.8L29.7,16.8c0-0.4-0.3-0.6-0.6-0.6s-0.6,0.3-0.6,0.6v1.1l0,0c0,0.3,0.3,0.5,0.6,0.5s0.6-0.3,0.6-0.6
		v-0.1V16.8z"/>
	<path class="st10" d="M26.8,13.7h-1.2c-0.2,0-0.3,0.2-0.3,0.3v0.2c0,0.2,0.2,0.3,0.3,0.3h1.2c0.2,0,0.3-0.2,0.3-0.3V14
		C27.1,13.9,27,13.7,26.8,13.7z"/>
	<path class="st10" d="M32.7,13.7h-1.2c-0.2,0-0.3,0.2-0.3,0.3v0.2c0,0.2,0.2,0.3,0.3,0.3h1.2c0.2,0,0.3-0.2,0.3-0.3V14
		C33,13.9,32.9,13.7,32.7,13.7z"/>
	<g>
		<rect x="26" y="26.7" class="st11" width="1.7" height="1.4"/>
		<rect x="26.7" y="25.7" class="st11" width="0.3" height="2.9"/>
		<rect x="27.2" y="25.7" class="st11" width="0.3" height="2.9"/>
		<rect x="26.2" y="25.7" class="st11" width="0.3" height="2.9"/>
		<rect x="26" y="25.4" class="st12" width="1.7" height="1.4"/>
		<rect x="26" y="24" class="st11" width="1.7" height="1.4"/>
		<rect x="26" y="22.9" class="st12" width="1.7" height="1.1"/>
	</g>
	<g>
		<rect x="31.2" y="26.7" class="st11" width="1.7" height="1.4"/>
		<rect x="32" y="25.7" class="st11" width="0.3" height="2.9"/>
		<rect x="32.4" y="25.7" class="st11" width="0.3" height="2.9"/>
		<rect x="31.4" y="25.7" class="st11" width="0.3" height="2.9"/>
		<rect x="31.3" y="25.3" class="st12" width="1.7" height="1.4"/>
		<rect x="31.2" y="24" class="st11" width="1.7" height="1.4"/>
		<rect x="31.2" y="22.9" class="st12" width="1.7" height="1.1"/>
	</g>
	<rect x="16.4" y="36.3" class="st2" width="9.6" height="3.2"/>
	<path class="st3" d="M21.7,47.9h-1c-0.9,0-1.6-0.7-1.6-1.6v-2.7h4.3v2.7C23.3,47.2,22.5,47.9,21.7,47.9z"/>
	<circle class="st4" cx="27.9" cy="37.8" r="0.8"/>
	<circle class="st4" cx="14.4" cy="37.8" r="0.8"/>
	<path class="st5" d="M24.3,31.1h-6.2c-2,0-3.6,1.6-3.6,3.6v6.2c0,2,1.6,3.6,3.6,3.6h6.2c2,0,3.6-1.6,3.6-3.6v-6.2
		C27.9,32.7,26.2,31.1,24.3,31.1z M18.2,38.7c-0.5,0-0.9-0.4-0.9-0.9s0.4-0.9,0.9-0.9s0.9,0.4,0.9,0.9
		C19.1,38.3,18.7,38.7,18.2,38.7z M24.1,38.7c-0.5,0-0.9-0.4-0.9-0.9s0.4-0.9,0.9-0.9s0.9,0.4,0.9,0.9S24.6,38.7,24.1,38.7z"/>
	<path class="st13" d="M27.9,31.1c-0.1-0.8-0.7-1.4-1.5-1.4H15.9c-0.8,0-1.5,0.6-1.5,1.4l0,0v0.1v1.2v2.7c0.8,0,1.4-0.6,1.4-1.4v-1
		c0-0.5,0.4-0.8,0.8-0.8h9c0.5,0,0.8,0.4,0.8,0.8v1c0,0.8,0.6,1.4,1.4,1.4v-3.2v-0.7L27.9,31.1L27.9,31.1z"/>
	<path class="st7" d="M25.8,48.5c0.4-0.2,0.6-0.7,0.4-1.1c-0.5-0.7-1.3-1.2-2.2-1.2h-5.6c-0.9,0-1.8,0.5-2.2,1.2
		c-0.3,0.4-0.1,0.9,0.4,1.1c1.4,0.6,3,1,4.7,1C22.8,49.5,24.4,49.1,25.8,48.5z"/>
	<rect x="18.2" y="44.5" class="st8" width="5.9" height="1.7"/>
	<path class="st3" d="M23.1,40.9c0.4,0,0.6,0.3,0.5,0.7c-0.3,1-1.2,1.8-2.4,1.8s-2.1-0.8-2.4-1.8c-0.1-0.3,0.2-0.7,0.5-0.7H23.1z"/>
	<path class="st9" d="M21.7,38.4L21.7,38.4c0-0.4-0.3-0.6-0.6-0.6c-0.3,0-0.6,0.3-0.6,0.6v1.1l0,0c0,0.3,0.3,0.5,0.6,0.5
		c0.3,0,0.6-0.3,0.6-0.6v-0.1V38.4z"/>
	<path class="st10" d="M18.8,35.5h-1.2c-0.2,0-0.3,0.1-0.3,0.2v0.1c0,0.1,0.2,0.2,0.3,0.2h1.2c0.2,0,0.3-0.1,0.3-0.2v-0.1
		C19.1,35.6,18.9,35.5,18.8,35.5z"/>
	<path class="st10" d="M24.7,35.5h-1.2c-0.2,0-0.3,0.1-0.3,0.2v0.1c0,0.1,0.2,0.2,0.3,0.2h1.2c0.2,0,0.3-0.1,0.3-0.2v-0.1
		C25,35.6,24.8,35.5,24.7,35.5z"/>
	<g>
		<rect x="18" y="48.3" class="st11" width="1.7" height="1.4"/>
		<rect x="18.7" y="47.3" class="st11" width="0.3" height="2.9"/>
		<rect x="19.2" y="47.3" class="st11" width="0.3" height="2.9"/>
		<rect x="18.2" y="47.3" class="st11" width="0.3" height="2.9"/>
		<rect x="18" y="47" class="st12" width="1.7" height="1.4"/>
		<rect x="18" y="45.6" class="st11" width="1.7" height="1.4"/>
		<rect x="18" y="44.5" class="st12" width="1.7" height="1.1"/>
	</g>
	<g>
		<rect x="23.2" y="48.3" class="st11" width="1.7" height="1.4"/>
		<rect x="23.9" y="47.3" class="st11" width="0.3" height="2.9"/>
		<rect x="24.4" y="47.3" class="st11" width="0.3" height="2.9"/>
		<rect x="23.4" y="47.3" class="st11" width="0.3" height="2.9"/>
		<rect x="23.3" y="46.9" class="st12" width="1.7" height="1.4"/>
		<rect x="23.2" y="45.6" class="st11" width="1.7" height="1.4"/>
		<rect x="23.2" y="44.5" class="st12" width="1.7" height="1.1"/>
	</g>
	<path class="st13" d="M14.7,45.4h-0.3V31.3h1.4v12.9C15.8,44.8,15.3,45.4,14.7,45.4z"/>
	<path class="st13" d="M27.9,45.4h-0.3c-0.6,0-1.2-0.5-1.2-1.2V31.3h1.4V45.4z"/>
	<rect x="15.8" y="31.3" class="st13" width="10.9" height="2.4"/>
</g>
</svg>
