<?xml version="1.0" encoding="utf-8"?>
<!-- Generator: Adobe Illustrator 21.0.2, SVG Export Plug-In . SVG Version: 6.00 Build 0)  -->
<svg version="1.1" id="Layer_1" xmlns="http://www.w3.org/2000/svg" xmlns:xlink="http://www.w3.org/1999/xlink" x="0px" y="0px"
	 viewBox="0 0 121.5 139.6" style="enable-background:new 0 0 121.5 139.6;" xml:space="preserve">
<style type="text/css">
	.st0{fill:#373127;}
	.st1{fill:#6B5845;}
	.st2{fill:#E63F40;}
	.st3{fill:#F6C54D;}
	.st4{fill:none;stroke:#BA393B;stroke-width:7;stroke-miterlimit:10;}
	.st5{fill:#D1D3D2;}
	.st6{fill:#B1B3B4;}
	.st7{fill:#9C9FA1;}
	.st8{fill:#FFFFFF;}
	.st9{fill:#BB373A;}
	.st10{fill:none;stroke:#912C30;stroke-width:7;stroke-miterlimit:10;}
	.st11{fill:#912C30;}
	.st12{fill:#C2AC91;}
	.st13{fill:#2B2E31;}
</style>
<path class="st0" d="M39.3,89.3c-6.8,0-15.2-2.1-25-8.3c-3.4-2.1-4.3-6.6-2.2-9.9c2.1-3.4,6.6-4.3,9.9-2.2
	c20.4,12.9,29.3,1.3,30.3-0.1l-0.1,0.1l12.1,7.9c-0.5,0.7-4.6,6.9-13.1,10.3C48.1,88.2,44.1,89.3,39.3,89.3z"/>
<rect x="36.4" y="55.1" class="st1" width="48.6" height="77.5"/>
<rect x="36.4" y="65.2" class="st2" width="48.6" height="57.9"/>
<rect x="42.5" y="65.2" class="st3" width="6.1" height="57.9"/>
<rect x="54.7" y="65.2" class="st3" width="6.1" height="57.9"/>
<rect x="66.8" y="65.2" class="st3" width="6.1" height="57.9"/>
<path class="st4" d="M36.4,65.2H49c0,4.2,3.4,7.6,7.6,7.6s7.6-3.4,7.6-7.6H85"/>
<path class="st5" d="M56.6,71.1c3.3,0,5.9-2.7,5.9-5.9H50.7C50.7,68.5,53.4,71.1,56.6,71.1z"/>
<path class="st5" d="M23.4,86.4l-1.8-0.2c-2.7-0.3-4.7-2.8-4.4-5.5l1.6-14.1c0.3-2.7,2.8-4.7,5.5-4.4l1.8,0.2
	c2.7,0.3,4.7,2.8,4.4,5.5L29,82C28.7,84.7,26.2,86.7,23.4,86.4z"/>
<path class="st6" d="M27.5,84.5l-1.5,1C23.6,87,20.5,86.3,19,84l-7.7-12c-1.5-2.3-0.8-5.4,1.5-6.9l1.5-1c2.3-1.5,5.4-0.8,6.9,1.5
	l7.7,12C30.5,79.9,29.8,83,27.5,84.5z"/>
<path class="st7" d="M25.7,85.6l-1,1.5c-1.6,2.3-4.7,2.8-7,1.3L6,80.3c-2.3-1.6-2.8-4.7-1.3-7l1-1.5c1.6-2.3,4.7-2.8,7-1.3l11.7,8.1
	C26.7,80.2,27.3,83.3,25.7,85.6z"/>
<rect x="15.2" y="80.7" transform="matrix(-0.5 -0.866 0.866 -0.5 -45.359 140.5121)" class="st8" width="5.3" height="5.3"/>
<rect x="16.1" y="78.5" transform="matrix(6.123234e-17 -1 1 6.123234e-17 -62.3582 99.8901)" class="st8" width="5.3" height="5.3"/>
<rect x="21.4" y="77.3" transform="matrix(0.7746 -0.6325 0.6325 0.7746 -45.1554 33.2131)" class="st8" width="5.3" height="5.3"/>
<path class="st1" d="M44.3,96.3c-7.3,0-15.4-1.4-24.1-5c-3.7-1.5-5.4-5.8-3.8-9.4s5.8-5.4,9.4-3.8C56,90.8,77.4,68.1,77.6,67.8
	c2.7-2.9,7.2-3.1,10.2-0.4c2.9,2.7,3.1,7.2,0.4,10.2c-0.3,0.3-7.3,7.8-19,13.2C62.8,93.7,54.3,96.3,44.3,96.3z"/>
<path class="st9" d="M64.4,77.1c8.3-4.1,13.2-9.2,13.3-9.3c2.7-2.9,7.2-3.1,10.2-0.4c2.9,2.7,3.1,7.2,0.4,10.2
	c-0.3,0.3-6.7,7.2-17.5,12.5L64.4,77.1z"/>
<line class="st10" x1="70.7" y1="90.1" x2="64.4" y2="77.1"/>
<g>
	<rect x="2.5" y="112.1" class="st9" width="116.5" height="25"/>
	<path class="st11" d="M116.5,114.6v20H5v-20H116.5 M121.5,109.6H0v30h121.5V109.6L121.5,109.6z"/>
</g>
<g>
	<path class="st8" d="M33.9,130.3v-7.5h0l-2.6,7.5h-2.2l-2.6-7.6h0v7.6h-2.2v-11.4h3l2.9,8.4h0l2.9-8.4h3v11.4H33.9z"/>
	<path class="st8" d="M45.5,128.4v1.9h-4.9l-1.9-1.1v-6l1.9-1.1h3l1.9,1.1v3.9h-4.5v1.3H45.5z M40.9,124v1.4h2.3V124H40.9z"/>
	<path class="st8" d="M50.2,124.1v4.3h4v1.9h-4.4l-1.9-1.1v-6l1.9-1.1h4.4v1.9H50.2z"/>
	<path class="st8" d="M58.5,130.3h-2.2v-11.9h2.2v4.3l1.2-0.7h2.1l1.9,1.1v7.1h-2.2V124h-3V130.3z"/>
	<path class="st8" d="M72.9,128.4v1.9h-4.9l-1.9-1.1v-6l1.9-1.1h3l1.9,1.1v3.9h-4.5v1.3H72.9z M68.4,124v1.4h2.3V124H68.4z"/>
	<path class="st8" d="M77.3,130.3l-1.9-1.1v-10.8h2.2v10h1.6v1.9H77.3z"/>
	<path class="st8" d="M80.6,120.6v-2.2H83v2.2H80.6z M83,122.2v8.2h-2.2v-8.2H83z"/>
	<path class="st8" d="M92.7,123.2v7.1h-2.2V124h-2.8v6.3h-2.2v-8.2h1.8l0.4,0.7l1.2-0.7h2L92.7,123.2z"/>
	<path class="st8" d="M95,120.6v-2.2h2.4v2.2H95z M97.3,122.2v8.2h-2.2v-8.2H97.3z"/>
</g>
<rect x="54.1" y="10.2" class="st1" width="34.1" height="17.4"/>
<circle class="st1" cx="49.4" cy="10.2" r="10.2"/>
<circle class="st12" cx="49.4" cy="10.2" r="6.7"/>
<circle class="st1" cx="83.9" cy="10.2" r="10.2"/>
<circle class="st12" cx="83.9" cy="10.2" r="6.7"/>
<path class="st1" d="M73.2,65.2h-25c-8.3,0-15-6.7-15-15v-25c0-8.3,6.7-15,15-15h25c8.3,0,15,6.7,15,15v25
	C88.2,58.5,81.5,65.2,73.2,65.2z"/>
<path class="st12" d="M53.2,16.9h15.1c8.3,0,15,6.7,15,15v3.3c0,8.3-6.7,15-15,15H53.2c-8.3,0-15-6.7-15-15v-3.3
	C38.2,23.6,44.9,16.9,53.2,16.9z"/>
<path class="st12" d="M64.2,60.2H32.4c-4,0-7.2-3.2-7.2-7.2v-2.8H27V32.5c0-1.3,1.1-2.4,2.4-2.4h42V53C71.4,57,68.1,60.2,64.2,60.2z
	"/>
<path class="st0" d="M33.6,23.6L33.6,23.6c-3.6,0-6.6,2.9-6.6,6.6v6.6h9.8c1.8,0,3.3-1.5,3.3-3.3v-3.3
	C40.1,26.5,37.2,23.6,33.6,23.6z"/>
<path class="st0" d="M39.8,51.4H25.2V49h14.6c4.5,0,8.2-3.7,8.2-8.2h2.4C50.4,46.7,45.7,51.4,39.8,51.4z"/>
<path class="st0" d="M31.8,28.9h-2.4v10.2c0,0.7,0.5,1.2,1.2,1.2h0c0.7,0,1.2-0.5,1.2-1.2V28.9z"/>
<circle class="st0" cx="49.2" cy="40.8" r="1.2"/>
<circle class="st0" cx="25.2" cy="50.2" r="1.2"/>
<ellipse transform="matrix(0.9911 -0.1333 0.1333 0.9911 -4.9374 5.3525)" class="st1" cx="37.5" cy="39.6" rx="1" ry="1"/>
<ellipse transform="matrix(0.9911 -0.1333 0.1333 0.9911 -4.8594 4.9456)" class="st1" cx="34.5" cy="38.8" rx="1" ry="1"/>
<ellipse transform="matrix(0.9911 -0.1333 0.1333 0.9911 -5.4043 5.0294)" class="st1" cx="34.9" cy="42.9" rx="1" ry="1"/>
<circle class="st13" cx="48.2" cy="27.2" r="5.9"/>
<circle class="st8" cx="46.9" cy="28.9" r="2.2"/>
<circle class="st13" cx="66.7" cy="27.2" r="5.9"/>
<circle class="st8" cx="65.3" cy="28.9" r="2.2"/>
</svg>
