<?xml version="1.0" encoding="utf-8"?>
<!-- Generator: Adobe Illustrator 20.1.0, SVG Export Plug-In . SVG Version: 6.00 Build 0)  -->
<svg version="1.1" id="Layer_1" xmlns="http://www.w3.org/2000/svg" xmlns:xlink="http://www.w3.org/1999/xlink" x="0px" y="0px"
	 viewBox="0 0 58.2 58.2" style="enable-background:new 0 0 58.2 58.2;" xml:space="preserve">
<style type="text/css">
	.st0{fill:#B7312F;}
	.st1{fill:#EADACB;}
</style>
<path class="st0" d="M31.5,58.1C13.6,59.5-1.3,44.6,0.1,26.7C1.2,12.6,12.6,1.2,26.7,0.1c17.9-1.4,32.8,13.5,31.4,31.4
	C57,45.6,45.6,57,31.5,58.1z M31.1,4.2C15.8,3,3,15.8,4.2,31.1C5.2,43.2,15,53,27.1,54c15.4,1.2,28.2-11.6,27-27
	C53,15,43.2,5.2,31.1,4.2z"/>
<polygon class="st1" points="37.3,14.6 21.2,14.6 17,14.6 17,22.9 21.2,22.9 21.2,18.7 37.3,18.7 37.3,27.9 28.7,27.9 28.7,25 
	20,30 28.7,35 28.7,32.1 37.3,32.1 37.3,41.2 21.2,41.2 21.2,37 17,37 17,45.4 21.2,45.4 37.3,45.4 41.5,45.4 41.5,14.6 "/>
</svg>
