<?xml version="1.0" encoding="utf-8"?>
<!-- Generator: Adobe Illustrator 21.0.2, SVG Export Plug-In . SVG Version: 6.00 Build 0)  -->
<svg version="1.1" id="Layer_1" xmlns="http://www.w3.org/2000/svg" xmlns:xlink="http://www.w3.org/1999/xlink" x="0px" y="0px"
	 viewBox="0 0 23.7 23.8" style="enable-background:new 0 0 23.7 23.8;" xml:space="preserve">
<style type="text/css">
	.st0{fill:#2B2E31;}
</style>
<path class="st0" d="M23.2,23.8c-0.3,0-0.5-0.2-0.5-0.5V0.5c0-0.3,0.2-0.5,0.5-0.5s0.5,0.2,0.5,0.5v22.8
	C23.7,23.6,23.5,23.8,23.2,23.8z"/>
<path class="st0" d="M13.2,8.8V6.1c0-2.5-2-4.5-4.5-4.5c-2.5,0-4.5,2-4.5,4.5v2.7C2.9,9.1,2,10.2,2,11.6v7.8c0,1.6,1.3,2.8,2.8,2.8
	h7.8c1.6,0,2.8-1.3,2.8-2.8v-7.8C15.4,10.2,14.5,9.1,13.2,8.8z M10.2,16c-0.2,0.2-0.4,0.5-0.4,0.8v1c0,0.6-0.5,1.1-1.1,1.1H8.6
	c-0.6,0-1.1-0.5-1.1-1.1v-1c0-0.3-0.1-0.6-0.4-0.8c-0.8-0.7-1-1.9-0.2-3.1c0.1-0.1,0.2-0.2,0.3-0.3c1.8-1.2,3.8,0,3.8,1.8
	C11,15,10.7,15.6,10.2,16z M11.8,8.7H5.6V6.1c0-1.7,1.4-3.1,3.1-3.1c1.7,0,3.1,1.4,3.1,3.1V8.7z"/>
</svg>
