<svg xmlns="http://www.w3.org/2000/svg" viewBox="0 0 223.36 435.86"><defs><style>.cls-1{fill:#7c7569;}.cls-2{fill:#56514a;}.cls-3{fill:#f2ae40;}.cls-4{fill:#d3953c;}.cls-5{fill:#e84243;}.cls-6{fill:#d13d3e;}.cls-7{fill:#aa2725;}.cls-8{fill:#c6a99b;}.cls-9{fill:#f5cfba;}.cls-10{fill:#684939;}.cls-11{fill:#333;}.cls-12{fill:#fff;}.cls-13{fill:#58b281;}.cls-14{fill:#2780a8;}.cls-15{fill:#1e1e1e;}.cls-16{fill:#f7c377;}</style></defs><title>people</title><g id="Layer_2" data-name="Layer 2"><rect class="cls-1" y="386.84" width="223.36" height="38.35"/><rect class="cls-1" y="345.15" width="223.36" height="31.02"/><rect class="cls-2" y="376.17" width="223.36" height="10.67"/><rect class="cls-2" y="425.19" width="223.36" height="10.67"/><rect class="cls-1" y="296.12" width="223.36" height="38.35"/><rect class="cls-1" y="254.44" width="223.36" height="31.02"/><rect class="cls-2" y="285.45" width="223.36" height="10.67"/><rect class="cls-2" y="334.48" width="223.36" height="10.67"/><rect class="cls-1" y="205.41" width="223.36" height="38.35"/><rect class="cls-1" y="163.72" width="223.36" height="31.02"/><rect class="cls-2" y="194.74" width="223.36" height="10.67"/><rect class="cls-2" y="243.77" width="223.36" height="10.67"/><rect class="cls-1" y="114.7" width="223.36" height="38.35"/><rect class="cls-1" y="73.01" width="223.36" height="31.02"/><rect class="cls-2" y="104.03" width="223.36" height="10.67"/><rect class="cls-1" y="31.32" width="223.36" height="31.02"/><rect class="cls-2" y="62.34" width="223.36" height="10.67"/><rect class="cls-2" y="153.05" width="223.36" height="10.67"/></g><g id="Layer_1" data-name="Layer 1"><rect class="cls-3" x="33.52" y="61.49" width="5.87" height="14.3"/><rect class="cls-3" x="2.93" y="61.49" width="5.87" height="14.3"/><path class="cls-3" d="M21.16,26.8A21.16,21.16,0,0,0,0,48v7.9a1.79,1.79,0,0,0,1.79,1.79H40.53a1.79,1.79,0,0,0,1.79-1.79V48A21.16,21.16,0,0,0,21.16,26.8Z"/><rect class="cls-4" y="60.07" width="42.32" height="9.69" rx="2.83" ry="2.83"/><rect class="cls-5" x="124.04" y="61.49" width="5.87" height="14.3"/><rect class="cls-5" x="93.45" y="61.49" width="5.87" height="14.3"/><path class="cls-5" d="M111.68,26.8A21.16,21.16,0,0,0,90.52,48v7.9a1.79,1.79,0,0,0,1.79,1.79h38.74a1.79,1.79,0,0,0,1.79-1.79V48A21.16,21.16,0,0,0,111.68,26.8Z"/><rect class="cls-6" x="90.52" y="60.07" width="42.32" height="9.69" rx="2.83" ry="2.83"/><rect class="cls-3" x="169.3" y="61.49" width="5.87" height="14.3"/><rect class="cls-3" x="138.71" y="61.49" width="5.87" height="14.3"/><path class="cls-3" d="M156.94,26.8A21.16,21.16,0,0,0,135.78,48v7.9a1.79,1.79,0,0,0,1.79,1.79h38.74a1.79,1.79,0,0,0,1.79-1.79V48A21.16,21.16,0,0,0,156.94,26.8Z"/><rect class="cls-4" x="135.78" y="60.07" width="42.32" height="9.69" rx="2.83" ry="2.83"/><rect class="cls-3" x="78.78" y="61.49" width="5.87" height="14.3"/><rect class="cls-3" x="48.19" y="61.49" width="5.87" height="14.3"/><path class="cls-3" d="M66.42,26.8A21.16,21.16,0,0,0,45.26,48v7.9a1.79,1.79,0,0,0,1.79,1.79H85.79a1.79,1.79,0,0,0,1.79-1.79V48A21.16,21.16,0,0,0,66.42,26.8Z"/><rect class="cls-4" x="45.26" y="60.07" width="42.32" height="9.69" rx="2.83" ry="2.83"/><rect class="cls-3" x="214.56" y="61.49" width="5.87" height="14.3"/><rect class="cls-3" x="183.97" y="61.49" width="5.87" height="14.3"/><path class="cls-3" d="M202.2,26.8A21.16,21.16,0,0,0,181,48v7.9a1.79,1.79,0,0,0,1.79,1.79h38.74a1.79,1.79,0,0,0,1.79-1.79V48A21.16,21.16,0,0,0,202.2,26.8Z"/><rect class="cls-4" x="181.04" y="60.07" width="42.32" height="9.69" rx="2.83" ry="2.83"/><rect class="cls-7" x="6.97" y="20.43" width="28.39" height="46.03" rx="5.67" ry="5.67"/><rect class="cls-8" x="16.55" y="13.69" width="8.83" height="20.25" rx="4.41" ry="4.41"/><rect class="cls-9" x="6.97" y="0.57" width="28.39" height="28.39" rx="5.67" ry="5.67"/><path class="cls-10" d="M30.94.57H11.38A4.41,4.41,0,0,0,7,5v7.79A3.75,3.75,0,0,0,10.72,9V8.73a4.41,4.41,0,0,1,4.41-4.41h12A4.41,4.41,0,0,1,31.6,8.73V9a3.75,3.75,0,0,0,3.75,3.75V5A4.41,4.41,0,0,0,30.94.57Z"/><circle class="cls-11" cx="15.71" cy="16.41" r="1.73"/><circle class="cls-11" cx="26.62" cy="16.41" r="1.73"/><path class="cls-12" d="M24.8,21a1.8,1.8,0,0,1,1.63,2.57,5.87,5.87,0,0,1-10.55,0A1.8,1.8,0,0,1,17.52,21Z"/><rect class="cls-13" x="142.75" y="29.77" width="28.39" height="46.03" rx="5.67" ry="5.67"/><rect class="cls-8" x="152.33" y="13.69" width="8.83" height="20.25" rx="4.41" ry="4.41"/><rect class="cls-9" x="142.75" y="0.57" width="28.39" height="28.39" rx="5.67" ry="5.67"/><path class="cls-10" d="M166.72.57H147.16A4.41,4.41,0,0,0,142.75,5v7.79A3.75,3.75,0,0,0,146.5,9V8.73a4.41,4.41,0,0,1,4.41-4.41h12a4.41,4.41,0,0,1,4.41,4.41V9a3.75,3.75,0,0,0,3.75,3.75V5A4.41,4.41,0,0,0,166.72.57Z"/><circle class="cls-11" cx="151.49" cy="16.41" r="1.73"/><circle class="cls-11" cx="162.4" cy="16.41" r="1.73"/><path class="cls-12" d="M160.58,21a1.8,1.8,0,0,1,1.63,2.57,5.87,5.87,0,0,1-10.55,0A1.8,1.8,0,0,1,153.3,21Z"/><rect class="cls-14" x="97.49" y="29.77" width="28.39" height="46.03" rx="5.67" ry="5.67"/><rect class="cls-8" x="107.07" y="13.69" width="8.83" height="20.25" rx="4.41" ry="4.41"/><rect class="cls-9" x="97.49" y="0.57" width="28.39" height="28.39" rx="5.67" ry="5.67"/><path class="cls-15" d="M121.46.57H101.9A4.41,4.41,0,0,0,97.49,5v7.79A3.75,3.75,0,0,0,101.24,9V8.73a4.41,4.41,0,0,1,4.41-4.41h12a4.41,4.41,0,0,1,4.41,4.41V9a3.75,3.75,0,0,0,3.75,3.75V5A4.41,4.41,0,0,0,121.46.57Z"/><circle class="cls-11" cx="106.23" cy="16.41" r="1.73"/><circle class="cls-11" cx="117.14" cy="16.41" r="1.73"/><path class="cls-12" d="M115.32,21A1.8,1.8,0,0,1,117,23.59a5.87,5.87,0,0,1-10.55,0A1.8,1.8,0,0,1,108,21Z"/><rect class="cls-7" x="188.01" y="29.77" width="28.39" height="46.03" rx="5.67" ry="5.67"/><rect class="cls-8" x="197.59" y="13.69" width="8.83" height="20.25" rx="4.41" ry="4.41"/><rect class="cls-9" x="188.01" y="0.57" width="28.39" height="28.39" rx="5.67" ry="5.67"/><path class="cls-15" d="M212,.57H192.42A4.41,4.41,0,0,0,188,5v7.79A3.75,3.75,0,0,0,191.76,9V8.73a4.41,4.41,0,0,1,4.41-4.41h12a4.41,4.41,0,0,1,4.41,4.41V9a3.75,3.75,0,0,0,3.75,3.75V5A4.41,4.41,0,0,0,212,.57Z"/><circle class="cls-11" cx="196.75" cy="16.41" r="1.73"/><circle class="cls-11" cx="207.66" cy="16.41" r="1.73"/><path class="cls-12" d="M205.84,21a1.8,1.8,0,0,1,1.63,2.57,5.87,5.87,0,0,1-10.55,0A1.8,1.8,0,0,1,198.56,21Z"/><rect class="cls-7" x="52.12" y="29.42" width="28.6" height="46.38" rx="5.67" ry="5.67"/><rect class="cls-8" x="61.78" y="13.22" width="8.9" height="20.4" rx="4.45" ry="4.45"/><rect class="cls-9" x="52.12" width="28.6" height="28.6" rx="5.67" ry="5.67"/><path class="cls-16" d="M76.28,0H56.57a4.45,4.45,0,0,0-4.45,4.45V12.3A3.78,3.78,0,0,0,55.9,8.51V8.22a4.45,4.45,0,0,1,4.45-4.45H72.49a4.45,4.45,0,0,1,4.45,4.45v.29a3.78,3.78,0,0,0,3.78,3.78V4.45A4.45,4.45,0,0,0,76.28,0Z"/><circle class="cls-11" cx="60.93" cy="15.96" r="1.75"/><circle class="cls-11" cx="71.92" cy="15.96" r="1.75"/><path class="cls-12" d="M70.09,20.61a1.81,1.81,0,0,1,1.65,2.59,5.91,5.91,0,0,1-10.63,0,1.81,1.81,0,0,1,1.65-2.59Z"/><rect class="cls-3" x="33.52" y="110.49" width="5.87" height="14.3"/><rect class="cls-3" x="2.93" y="110.49" width="5.87" height="14.3"/><path class="cls-3" d="M21.16,75.79A21.16,21.16,0,0,0,0,97v7.9a1.79,1.79,0,0,0,1.79,1.79H40.53a1.79,1.79,0,0,0,1.79-1.79V97A21.16,21.16,0,0,0,21.16,75.79Z"/><rect class="cls-4" y="109.06" width="42.32" height="9.69" rx="2.83" ry="2.83"/><rect class="cls-5" x="124.04" y="110.49" width="5.87" height="14.3"/><rect class="cls-5" x="93.45" y="110.49" width="5.87" height="14.3"/><path class="cls-5" d="M111.68,75.79A21.16,21.16,0,0,0,90.52,97v7.9a1.79,1.79,0,0,0,1.79,1.79h38.74a1.79,1.79,0,0,0,1.79-1.79V97A21.16,21.16,0,0,0,111.68,75.79Z"/><rect class="cls-6" x="90.52" y="109.06" width="42.32" height="9.69" rx="2.83" ry="2.83"/><rect class="cls-3" x="169.3" y="110.49" width="5.87" height="14.3"/><rect class="cls-3" x="138.71" y="110.49" width="5.87" height="14.3"/><path class="cls-3" d="M156.94,75.79A21.16,21.16,0,0,0,135.78,97v7.9a1.79,1.79,0,0,0,1.79,1.79h38.74a1.79,1.79,0,0,0,1.79-1.79V97A21.16,21.16,0,0,0,156.94,75.79Z"/><rect class="cls-4" x="135.78" y="109.06" width="42.32" height="9.69" rx="2.83" ry="2.83"/><rect class="cls-3" x="78.78" y="110.49" width="5.87" height="14.3"/><rect class="cls-3" x="48.19" y="110.49" width="5.87" height="14.3"/><path class="cls-3" d="M66.42,75.79A21.16,21.16,0,0,0,45.26,97v7.9a1.79,1.79,0,0,0,1.79,1.79H85.79a1.79,1.79,0,0,0,1.79-1.79V97A21.16,21.16,0,0,0,66.42,75.79Z"/><rect class="cls-4" x="45.26" y="109.06" width="42.32" height="9.69" rx="2.83" ry="2.83"/><rect class="cls-5" x="214.56" y="110.49" width="5.87" height="14.3"/><rect class="cls-5" x="183.97" y="110.49" width="5.87" height="14.3"/><path class="cls-5" d="M202.2,75.79A21.16,21.16,0,0,0,181,97v7.9a1.79,1.79,0,0,0,1.79,1.79h38.74a1.79,1.79,0,0,0,1.79-1.79V97A21.16,21.16,0,0,0,202.2,75.79Z"/><rect class="cls-6" x="181.04" y="109.06" width="42.32" height="9.69" rx="2.83" ry="2.83"/><rect class="cls-7" x="6.97" y="78.76" width="28.39" height="46.03" rx="5.67" ry="5.67"/><rect class="cls-8" x="16.55" y="62.68" width="8.83" height="20.25" rx="4.41" ry="4.41"/><rect class="cls-9" x="6.97" y="49.56" width="28.39" height="28.39" rx="5.67" ry="5.67"/><path class="cls-10" d="M30.94,49.56H11.38A4.41,4.41,0,0,0,7,54v7.79A3.75,3.75,0,0,0,10.72,58v-.29a4.41,4.41,0,0,1,4.41-4.41h12a4.41,4.41,0,0,1,4.41,4.41V58a3.75,3.75,0,0,0,3.75,3.75V54A4.41,4.41,0,0,0,30.94,49.56Z"/><circle class="cls-11" cx="15.71" cy="65.4" r="1.73"/><circle class="cls-11" cx="26.62" cy="65.4" r="1.73"/><path class="cls-12" d="M24.8,70a1.8,1.8,0,0,1,1.63,2.57,5.87,5.87,0,0,1-10.55,0A1.8,1.8,0,0,1,17.52,70Z"/><rect class="cls-7" x="142.75" y="78.76" width="28.39" height="46.03" rx="5.67" ry="5.67"/><rect class="cls-8" x="152.33" y="62.68" width="8.83" height="20.25" rx="4.41" ry="4.41"/><rect class="cls-9" x="142.75" y="49.56" width="28.39" height="28.39" rx="5.67" ry="5.67"/><path class="cls-10" d="M166.72,49.56H147.16A4.41,4.41,0,0,0,142.75,54v7.79A3.75,3.75,0,0,0,146.5,58v-.29a4.41,4.41,0,0,1,4.41-4.41h12a4.41,4.41,0,0,1,4.41,4.41V58a3.75,3.75,0,0,0,3.75,3.75V54A4.41,4.41,0,0,0,166.72,49.56Z"/><circle class="cls-11" cx="151.49" cy="65.4" r="1.73"/><circle class="cls-11" cx="162.4" cy="65.4" r="1.73"/><path class="cls-12" d="M160.58,70a1.8,1.8,0,0,1,1.63,2.57,5.87,5.87,0,0,1-10.55,0A1.8,1.8,0,0,1,153.3,70Z"/><rect class="cls-13" x="97.49" y="78.76" width="28.39" height="46.03" rx="5.67" ry="5.67"/><rect class="cls-8" x="107.07" y="62.68" width="8.83" height="20.25" rx="4.41" ry="4.41"/><rect class="cls-9" x="97.49" y="49.56" width="28.39" height="28.39" rx="5.67" ry="5.67"/><path class="cls-15" d="M121.46,49.56H101.9A4.41,4.41,0,0,0,97.49,54v7.79A3.75,3.75,0,0,0,101.24,58v-.29a4.41,4.41,0,0,1,4.41-4.41h12a4.41,4.41,0,0,1,4.41,4.41V58a3.75,3.75,0,0,0,3.75,3.75V54A4.41,4.41,0,0,0,121.46,49.56Z"/><circle class="cls-11" cx="106.23" cy="65.4" r="1.73"/><circle class="cls-11" cx="117.14" cy="65.4" r="1.73"/><path class="cls-12" d="M115.32,70A1.8,1.8,0,0,1,117,72.58a5.87,5.87,0,0,1-10.55,0A1.8,1.8,0,0,1,108,70Z"/><rect class="cls-13" x="188.01" y="78.76" width="28.39" height="46.03" rx="5.67" ry="5.67"/><rect class="cls-8" x="197.59" y="62.68" width="8.83" height="20.25" rx="4.41" ry="4.41"/><rect class="cls-9" x="188.01" y="49.56" width="28.39" height="28.39" rx="5.67" ry="5.67"/><path class="cls-15" d="M212,49.56H192.42A4.41,4.41,0,0,0,188,54v7.79A3.75,3.75,0,0,0,191.76,58v-.29a4.41,4.41,0,0,1,4.41-4.41h12a4.41,4.41,0,0,1,4.41,4.41V58a3.75,3.75,0,0,0,3.75,3.75V54A4.41,4.41,0,0,0,212,49.56Z"/><circle class="cls-11" cx="196.75" cy="65.4" r="1.73"/><circle class="cls-11" cx="207.66" cy="65.4" r="1.73"/><path class="cls-12" d="M205.84,70a1.8,1.8,0,0,1,1.63,2.57,5.87,5.87,0,0,1-10.55,0A1.8,1.8,0,0,1,198.56,70Z"/><rect class="cls-14" x="52.12" y="78.41" width="28.6" height="46.38" rx="5.67" ry="5.67"/><rect class="cls-8" x="61.78" y="62.21" width="8.9" height="20.4" rx="4.45" ry="4.45"/><rect class="cls-9" x="52.12" y="48.99" width="28.6" height="28.6" rx="5.67" ry="5.67"/><path class="cls-16" d="M76.28,49H56.57a4.45,4.45,0,0,0-4.45,4.45v7.85a3.78,3.78,0,0,0,3.78-3.78v-.29a4.45,4.45,0,0,1,4.45-4.45H72.49a4.45,4.45,0,0,1,4.45,4.45v.29a3.78,3.78,0,0,0,3.78,3.78V53.44A4.45,4.45,0,0,0,76.28,49Z"/><circle class="cls-11" cx="60.93" cy="64.95" r="1.75"/><circle class="cls-11" cx="71.92" cy="64.95" r="1.75"/><path class="cls-12" d="M70.09,69.6a1.81,1.81,0,0,1,1.65,2.59,5.91,5.91,0,0,1-10.63,0,1.81,1.81,0,0,1,1.65-2.59Z"/><rect class="cls-5" x="33.52" y="159.03" width="5.87" height="14.3"/><rect class="cls-5" x="2.93" y="159.03" width="5.87" height="14.3"/><path class="cls-5" d="M21.16,124.34A21.16,21.16,0,0,0,0,145.5v7.9a1.79,1.79,0,0,0,1.79,1.79H40.53a1.79,1.79,0,0,0,1.79-1.79v-7.9A21.16,21.16,0,0,0,21.16,124.34Z"/><rect class="cls-6" y="157.61" width="42.32" height="9.69" rx="2.83" ry="2.83"/><rect class="cls-3" x="124.04" y="159.03" width="5.87" height="14.3"/><rect class="cls-3" x="93.45" y="159.03" width="5.87" height="14.3"/><path class="cls-3" d="M111.68,124.34A21.16,21.16,0,0,0,90.52,145.5v7.9a1.79,1.79,0,0,0,1.79,1.79h38.74a1.79,1.79,0,0,0,1.79-1.79v-7.9A21.16,21.16,0,0,0,111.68,124.34Z"/><rect class="cls-6" x="90.52" y="157.61" width="42.32" height="9.69" rx="2.83" ry="2.83"/><rect class="cls-3" x="169.3" y="159.03" width="5.87" height="14.3"/><rect class="cls-3" x="138.71" y="159.03" width="5.87" height="14.3"/><path class="cls-3" d="M156.94,124.34a21.16,21.16,0,0,0-21.16,21.16v7.9a1.79,1.79,0,0,0,1.79,1.79h38.74a1.79,1.79,0,0,0,1.79-1.79v-7.9A21.16,21.16,0,0,0,156.94,124.34Z"/><rect class="cls-4" x="135.78" y="157.61" width="42.32" height="9.69" rx="2.83" ry="2.83"/><rect class="cls-3" x="78.78" y="159.03" width="5.87" height="14.3"/><rect class="cls-3" x="48.19" y="159.03" width="5.87" height="14.3"/><path class="cls-3" d="M66.42,124.34A21.16,21.16,0,0,0,45.26,145.5v7.9a1.79,1.79,0,0,0,1.79,1.79H85.79a1.79,1.79,0,0,0,1.79-1.79v-7.9A21.16,21.16,0,0,0,66.42,124.34Z"/><rect class="cls-4" x="45.26" y="157.61" width="42.32" height="9.69" rx="2.83" ry="2.83"/><rect class="cls-3" x="214.56" y="159.03" width="5.87" height="14.3"/><rect class="cls-3" x="183.97" y="159.03" width="5.87" height="14.3"/><path class="cls-3" d="M202.2,124.34A21.16,21.16,0,0,0,181,145.5v7.9a1.79,1.79,0,0,0,1.79,1.79h38.74a1.79,1.79,0,0,0,1.79-1.79v-7.9A21.16,21.16,0,0,0,202.2,124.34Z"/><rect class="cls-6" x="181.04" y="157.61" width="42.32" height="9.69" rx="2.83" ry="2.83"/><rect class="cls-7" x="6.97" y="127.31" width="28.39" height="46.03" rx="5.67" ry="5.67"/><rect class="cls-8" x="16.55" y="111.23" width="8.83" height="20.25" rx="4.41" ry="4.41"/><rect class="cls-9" x="6.97" y="98.11" width="28.39" height="28.39" rx="5.67" ry="5.67"/><path class="cls-10" d="M30.94,98.11H11.38A4.41,4.41,0,0,0,7,102.52v7.79a3.75,3.75,0,0,0,3.75-3.75v-.29a4.41,4.41,0,0,1,4.41-4.41h12a4.41,4.41,0,0,1,4.41,4.41v.29a3.75,3.75,0,0,0,3.75,3.75v-7.79A4.41,4.41,0,0,0,30.94,98.11Z"/><circle class="cls-11" cx="15.71" cy="113.95" r="1.73"/><circle class="cls-11" cx="26.62" cy="113.95" r="1.73"/><path class="cls-12" d="M24.8,118.56a1.8,1.8,0,0,1,1.63,2.57,5.87,5.87,0,0,1-10.55,0,1.8,1.8,0,0,1,1.63-2.57Z"/><rect class="cls-13" x="142.75" y="127.31" width="28.39" height="46.03" rx="5.67" ry="5.67"/><rect class="cls-8" x="152.33" y="111.23" width="8.83" height="20.25" rx="4.41" ry="4.41"/><rect class="cls-9" x="142.75" y="98.11" width="28.39" height="28.39" rx="5.67" ry="5.67"/><path class="cls-10" d="M166.72,98.11H147.16a4.41,4.41,0,0,0-4.41,4.41v7.79a3.75,3.75,0,0,0,3.75-3.75v-.29a4.41,4.41,0,0,1,4.41-4.41h12a4.41,4.41,0,0,1,4.41,4.41v.29a3.75,3.75,0,0,0,3.75,3.75v-7.79A4.41,4.41,0,0,0,166.72,98.11Z"/><circle class="cls-11" cx="151.49" cy="113.95" r="1.73"/><circle class="cls-11" cx="162.4" cy="113.95" r="1.73"/><path class="cls-12" d="M160.58,118.56a1.8,1.8,0,0,1,1.63,2.57,5.87,5.87,0,0,1-10.55,0,1.8,1.8,0,0,1,1.63-2.57Z"/><rect class="cls-14" x="97.49" y="127.31" width="28.39" height="46.03" rx="5.67" ry="5.67"/><rect class="cls-8" x="107.07" y="111.23" width="8.83" height="20.25" rx="4.41" ry="4.41"/><rect class="cls-9" x="97.49" y="98.11" width="28.39" height="28.39" rx="5.67" ry="5.67"/><path class="cls-15" d="M121.46,98.11H101.9a4.41,4.41,0,0,0-4.41,4.41v7.79a3.75,3.75,0,0,0,3.75-3.75v-.29a4.41,4.41,0,0,1,4.41-4.41h12a4.41,4.41,0,0,1,4.41,4.41v.29a3.75,3.75,0,0,0,3.75,3.75v-7.79A4.41,4.41,0,0,0,121.46,98.11Z"/><circle class="cls-11" cx="106.23" cy="113.95" r="1.73"/><circle class="cls-11" cx="117.14" cy="113.95" r="1.73"/><path class="cls-12" d="M115.32,118.56a1.8,1.8,0,0,1,1.63,2.57,5.87,5.87,0,0,1-10.55,0,1.8,1.8,0,0,1,1.63-2.57Z"/><rect class="cls-7" x="188.01" y="127.31" width="28.39" height="46.03" rx="5.67" ry="5.67"/><rect class="cls-8" x="197.59" y="111.23" width="8.83" height="20.25" rx="4.41" ry="4.41"/><rect class="cls-9" x="188.01" y="98.11" width="28.39" height="28.39" rx="5.67" ry="5.67"/><path class="cls-15" d="M212,98.11H192.42a4.41,4.41,0,0,0-4.41,4.41v7.79a3.75,3.75,0,0,0,3.75-3.75v-.29a4.41,4.41,0,0,1,4.41-4.41h12a4.41,4.41,0,0,1,4.41,4.41v.29a3.75,3.75,0,0,0,3.75,3.75v-7.79A4.41,4.41,0,0,0,212,98.11Z"/><circle class="cls-11" cx="196.75" cy="113.95" r="1.73"/><circle class="cls-11" cx="207.66" cy="113.95" r="1.73"/><path class="cls-12" d="M205.84,118.56a1.8,1.8,0,0,1,1.63,2.57,5.87,5.87,0,0,1-10.55,0,1.8,1.8,0,0,1,1.63-2.57Z"/><rect class="cls-7" x="52.12" y="126.96" width="28.6" height="46.38" rx="5.67" ry="5.67"/><rect class="cls-8" x="61.78" y="110.76" width="8.9" height="20.4" rx="4.45" ry="4.45"/><rect class="cls-9" x="52.12" y="97.54" width="28.6" height="28.6" rx="5.67" ry="5.67"/><path class="cls-16" d="M76.28,97.54H56.57A4.45,4.45,0,0,0,52.12,102v7.85a3.78,3.78,0,0,0,3.78-3.78v-.29a4.45,4.45,0,0,1,4.45-4.45H72.49a4.45,4.45,0,0,1,4.45,4.45v.29a3.78,3.78,0,0,0,3.78,3.78V102A4.45,4.45,0,0,0,76.28,97.54Z"/><circle class="cls-11" cx="60.93" cy="113.5" r="1.75"/><circle class="cls-11" cx="71.92" cy="113.5" r="1.75"/><path class="cls-12" d="M70.09,118.15a1.81,1.81,0,0,1,1.65,2.59,5.91,5.91,0,0,1-10.63,0,1.81,1.81,0,0,1,1.65-2.59Z"/><rect class="cls-3" x="33.52" y="208.03" width="5.87" height="14.3"/><rect class="cls-3" x="2.93" y="208.03" width="5.87" height="14.3"/><path class="cls-3" d="M21.16,173.33A21.16,21.16,0,0,0,0,194.5v7.9a1.79,1.79,0,0,0,1.79,1.79H40.53a1.79,1.79,0,0,0,1.79-1.79v-7.9A21.16,21.16,0,0,0,21.16,173.33Z"/><rect class="cls-4" y="206.6" width="42.32" height="9.69" rx="2.83" ry="2.83"/><rect class="cls-5" x="124.04" y="208.03" width="5.87" height="14.3"/><rect class="cls-5" x="93.45" y="208.03" width="5.87" height="14.3"/><path class="cls-5" d="M111.68,173.33A21.16,21.16,0,0,0,90.52,194.5v7.9a1.79,1.79,0,0,0,1.79,1.79h38.74a1.79,1.79,0,0,0,1.79-1.79v-7.9A21.16,21.16,0,0,0,111.68,173.33Z"/><rect class="cls-6" x="90.52" y="206.6" width="42.32" height="9.69" rx="2.83" ry="2.83"/><rect class="cls-3" x="169.3" y="208.03" width="5.87" height="14.3"/><rect class="cls-3" x="138.71" y="208.03" width="5.87" height="14.3"/><path class="cls-3" d="M156.94,173.33a21.16,21.16,0,0,0-21.16,21.16v7.9a1.79,1.79,0,0,0,1.79,1.79h38.74a1.79,1.79,0,0,0,1.79-1.79v-7.9A21.16,21.16,0,0,0,156.94,173.33Z"/><rect class="cls-4" x="135.78" y="206.6" width="42.32" height="9.69" rx="2.83" ry="2.83"/><rect class="cls-3" x="78.78" y="208.03" width="5.87" height="14.3"/><rect class="cls-3" x="48.19" y="208.03" width="5.87" height="14.3"/><path class="cls-3" d="M66.42,173.33A21.16,21.16,0,0,0,45.26,194.5v7.9a1.79,1.79,0,0,0,1.79,1.79H85.79a1.79,1.79,0,0,0,1.79-1.79v-7.9A21.16,21.16,0,0,0,66.42,173.33Z"/><rect class="cls-4" x="45.26" y="206.6" width="42.32" height="9.69" rx="2.83" ry="2.83"/><rect class="cls-3" x="214.56" y="208.03" width="5.87" height="14.3"/><rect class="cls-3" x="183.97" y="208.03" width="5.87" height="14.3"/><path class="cls-3" d="M202.2,173.33A21.16,21.16,0,0,0,181,194.5v7.9a1.79,1.79,0,0,0,1.79,1.79h38.74a1.79,1.79,0,0,0,1.79-1.79v-7.9A21.16,21.16,0,0,0,202.2,173.33Z"/><rect class="cls-4" x="181.04" y="206.6" width="42.32" height="9.69" rx="2.83" ry="2.83"/><rect class="cls-7" x="6.97" y="176.3" width="28.39" height="46.03" rx="5.67" ry="5.67"/><rect class="cls-8" x="16.55" y="160.22" width="8.83" height="20.25" rx="4.41" ry="4.41"/><rect class="cls-9" x="6.97" y="147.1" width="28.39" height="28.39" rx="5.67" ry="5.67"/><path class="cls-10" d="M30.94,147.1H11.38A4.41,4.41,0,0,0,7,151.52v7.79a3.75,3.75,0,0,0,3.75-3.75v-.29a4.41,4.41,0,0,1,4.41-4.41h12a4.41,4.41,0,0,1,4.41,4.41v.29a3.75,3.75,0,0,0,3.75,3.75v-7.79A4.41,4.41,0,0,0,30.94,147.1Z"/><circle class="cls-11" cx="15.71" cy="162.94" r="1.73"/><circle class="cls-11" cx="26.62" cy="162.94" r="1.73"/><path class="cls-12" d="M24.8,167.55a1.8,1.8,0,0,1,1.63,2.57,5.87,5.87,0,0,1-10.55,0,1.8,1.8,0,0,1,1.63-2.57Z"/><rect class="cls-7" x="142.75" y="176.3" width="28.39" height="46.03" rx="5.67" ry="5.67"/><rect class="cls-8" x="152.33" y="160.22" width="8.83" height="20.25" rx="4.41" ry="4.41"/><rect class="cls-9" x="142.75" y="147.1" width="28.39" height="28.39" rx="5.67" ry="5.67"/><path class="cls-10" d="M166.72,147.1H147.16a4.41,4.41,0,0,0-4.41,4.41v7.79a3.75,3.75,0,0,0,3.75-3.75v-.29a4.41,4.41,0,0,1,4.41-4.41h12a4.41,4.41,0,0,1,4.41,4.41v.29a3.75,3.75,0,0,0,3.75,3.75v-7.79A4.41,4.41,0,0,0,166.72,147.1Z"/><circle class="cls-11" cx="151.49" cy="162.94" r="1.73"/><circle class="cls-11" cx="162.4" cy="162.94" r="1.73"/><path class="cls-12" d="M160.58,167.55a1.8,1.8,0,0,1,1.63,2.57,5.87,5.87,0,0,1-10.55,0,1.8,1.8,0,0,1,1.63-2.57Z"/><rect class="cls-13" x="97.49" y="176.3" width="28.39" height="46.03" rx="5.67" ry="5.67"/><rect class="cls-8" x="107.07" y="160.22" width="8.83" height="20.25" rx="4.41" ry="4.41"/><rect class="cls-9" x="97.49" y="147.1" width="28.39" height="28.39" rx="5.67" ry="5.67"/><path class="cls-15" d="M121.46,147.1H101.9a4.41,4.41,0,0,0-4.41,4.41v7.79a3.75,3.75,0,0,0,3.75-3.75v-.29a4.41,4.41,0,0,1,4.41-4.41h12a4.41,4.41,0,0,1,4.41,4.41v.29a3.75,3.75,0,0,0,3.75,3.75v-7.79A4.41,4.41,0,0,0,121.46,147.1Z"/><circle class="cls-11" cx="106.23" cy="162.94" r="1.73"/><circle class="cls-11" cx="117.14" cy="162.94" r="1.73"/><path class="cls-12" d="M115.32,167.55a1.8,1.8,0,0,1,1.63,2.57,5.87,5.87,0,0,1-10.55,0,1.8,1.8,0,0,1,1.63-2.57Z"/><rect class="cls-13" x="188.01" y="176.3" width="28.39" height="46.03" rx="5.67" ry="5.67"/><rect class="cls-8" x="197.59" y="160.22" width="8.83" height="20.25" rx="4.41" ry="4.41"/><rect class="cls-9" x="188.01" y="147.1" width="28.39" height="28.39" rx="5.67" ry="5.67"/><path class="cls-15" d="M212,147.1H192.42a4.41,4.41,0,0,0-4.41,4.41v7.79a3.75,3.75,0,0,0,3.75-3.75v-.29a4.41,4.41,0,0,1,4.41-4.41h12a4.41,4.41,0,0,1,4.41,4.41v.29a3.75,3.75,0,0,0,3.75,3.75v-7.79A4.41,4.41,0,0,0,212,147.1Z"/><circle class="cls-11" cx="196.75" cy="162.94" r="1.73"/><circle class="cls-11" cx="207.66" cy="162.94" r="1.73"/><path class="cls-12" d="M205.84,167.55a1.8,1.8,0,0,1,1.63,2.57,5.87,5.87,0,0,1-10.55,0,1.8,1.8,0,0,1,1.63-2.57Z"/><rect class="cls-14" x="52.12" y="175.95" width="28.6" height="46.38" rx="5.67" ry="5.67"/><rect class="cls-8" x="61.78" y="159.75" width="8.9" height="20.4" rx="4.45" ry="4.45"/><rect class="cls-9" x="52.12" y="146.53" width="28.6" height="28.6" rx="5.67" ry="5.67"/><path class="cls-16" d="M76.28,146.53H56.57A4.45,4.45,0,0,0,52.12,151v7.85A3.78,3.78,0,0,0,55.9,155v-.29a4.45,4.45,0,0,1,4.45-4.45H72.49a4.45,4.45,0,0,1,4.45,4.45V155a3.78,3.78,0,0,0,3.78,3.78V151A4.45,4.45,0,0,0,76.28,146.53Z"/><circle class="cls-11" cx="60.93" cy="162.49" r="1.75"/><circle class="cls-11" cx="71.92" cy="162.49" r="1.75"/><path class="cls-12" d="M70.09,167.14a1.81,1.81,0,0,1,1.65,2.59,5.91,5.91,0,0,1-10.63,0,1.81,1.81,0,0,1,1.65-2.59Z"/><rect class="cls-5" x="33.52" y="257.02" width="5.87" height="14.3"/><rect class="cls-5" x="2.93" y="257.02" width="5.87" height="14.3"/><path class="cls-5" d="M21.16,222.33A21.16,21.16,0,0,0,0,243.49v7.9a1.79,1.79,0,0,0,1.79,1.79H40.53a1.79,1.79,0,0,0,1.79-1.79v-7.9A21.16,21.16,0,0,0,21.16,222.33Z"/><rect class="cls-6" y="255.6" width="42.32" height="9.69" rx="2.83" ry="2.83"/><rect class="cls-5" x="124.04" y="257.02" width="5.87" height="14.3"/><rect class="cls-5" x="93.45" y="257.02" width="5.87" height="14.3"/><path class="cls-5" d="M111.68,222.33a21.16,21.16,0,0,0-21.16,21.16v7.9a1.79,1.79,0,0,0,1.79,1.79h38.74a1.79,1.79,0,0,0,1.79-1.79v-7.9A21.16,21.16,0,0,0,111.68,222.33Z"/><rect class="cls-6" x="90.52" y="255.6" width="42.32" height="9.69" rx="2.83" ry="2.83"/><rect class="cls-3" x="169.3" y="257.02" width="5.87" height="14.3"/><rect class="cls-3" x="138.71" y="257.02" width="5.87" height="14.3"/><path class="cls-3" d="M156.94,222.33a21.16,21.16,0,0,0-21.16,21.16v7.9a1.79,1.79,0,0,0,1.79,1.79h38.74a1.79,1.79,0,0,0,1.79-1.79v-7.9A21.16,21.16,0,0,0,156.94,222.33Z"/><rect class="cls-4" x="135.78" y="255.6" width="42.32" height="9.69" rx="2.83" ry="2.83"/><rect class="cls-5" x="78.78" y="257.02" width="5.87" height="14.3"/><rect class="cls-5" x="48.19" y="257.02" width="5.87" height="14.3"/><path class="cls-5" d="M66.42,222.33a21.16,21.16,0,0,0-21.16,21.16v7.9a1.79,1.79,0,0,0,1.79,1.79H85.79a1.79,1.79,0,0,0,1.79-1.79v-7.9A21.16,21.16,0,0,0,66.42,222.33Z"/><rect class="cls-6" x="45.26" y="255.6" width="42.32" height="9.69" rx="2.83" ry="2.83"/><rect class="cls-3" x="214.56" y="257.02" width="5.87" height="14.3"/><rect class="cls-3" x="183.97" y="257.02" width="5.87" height="14.3"/><path class="cls-3" d="M202.2,222.33A21.16,21.16,0,0,0,181,243.49v7.9a1.79,1.79,0,0,0,1.79,1.79h38.74a1.79,1.79,0,0,0,1.79-1.79v-7.9A21.16,21.16,0,0,0,202.2,222.33Z"/><rect class="cls-4" x="181.04" y="255.6" width="42.32" height="9.69" rx="2.83" ry="2.83"/><rect class="cls-7" x="6.97" y="225.29" width="28.39" height="46.03" rx="5.67" ry="5.67"/><rect class="cls-8" x="16.55" y="209.22" width="8.83" height="20.25" rx="4.41" ry="4.41"/><rect class="cls-9" x="6.97" y="196.1" width="28.39" height="28.39" rx="5.67" ry="5.67"/><path class="cls-10" d="M30.94,196.1H11.38A4.41,4.41,0,0,0,7,200.51v7.79a3.75,3.75,0,0,0,3.75-3.75v-.29a4.41,4.41,0,0,1,4.41-4.41h12a4.41,4.41,0,0,1,4.41,4.41v.29a3.75,3.75,0,0,0,3.75,3.75v-7.79A4.41,4.41,0,0,0,30.94,196.1Z"/><circle class="cls-11" cx="15.71" cy="211.93" r="1.73"/><circle class="cls-11" cx="26.62" cy="211.93" r="1.73"/><path class="cls-12" d="M24.8,216.55a1.8,1.8,0,0,1,1.63,2.57,5.87,5.87,0,0,1-10.55,0,1.8,1.8,0,0,1,1.63-2.57Z"/><rect class="cls-13" x="142.75" y="225.29" width="28.39" height="46.03" rx="5.67" ry="5.67"/><rect class="cls-8" x="152.33" y="209.22" width="8.83" height="20.25" rx="4.41" ry="4.41"/><rect class="cls-9" x="142.75" y="196.1" width="28.39" height="28.39" rx="5.67" ry="5.67"/><path class="cls-10" d="M166.72,196.1H147.16a4.41,4.41,0,0,0-4.41,4.41v7.79a3.75,3.75,0,0,0,3.75-3.75v-.29a4.41,4.41,0,0,1,4.41-4.41h12a4.41,4.41,0,0,1,4.41,4.41v.29a3.75,3.75,0,0,0,3.75,3.75v-7.79A4.41,4.41,0,0,0,166.72,196.1Z"/><circle class="cls-11" cx="151.49" cy="211.93" r="1.73"/><circle class="cls-11" cx="162.4" cy="211.93" r="1.73"/><path class="cls-12" d="M160.58,216.55a1.8,1.8,0,0,1,1.63,2.57,5.87,5.87,0,0,1-10.55,0,1.8,1.8,0,0,1,1.63-2.57Z"/><rect class="cls-14" x="97.49" y="225.29" width="28.39" height="46.03" rx="5.67" ry="5.67"/><rect class="cls-8" x="107.07" y="209.22" width="8.83" height="20.25" rx="4.41" ry="4.41"/><rect class="cls-9" x="97.49" y="196.1" width="28.39" height="28.39" rx="5.67" ry="5.67"/><path class="cls-15" d="M121.46,196.1H101.9a4.41,4.41,0,0,0-4.41,4.41v7.79a3.75,3.75,0,0,0,3.75-3.75v-.29a4.41,4.41,0,0,1,4.41-4.41h12a4.41,4.41,0,0,1,4.41,4.41v.29a3.75,3.75,0,0,0,3.75,3.75v-7.79A4.41,4.41,0,0,0,121.46,196.1Z"/><circle class="cls-11" cx="106.23" cy="211.93" r="1.73"/><circle class="cls-11" cx="117.14" cy="211.93" r="1.73"/><path class="cls-12" d="M115.32,216.55a1.8,1.8,0,0,1,1.63,2.57,5.87,5.87,0,0,1-10.55,0,1.8,1.8,0,0,1,1.63-2.57Z"/><rect class="cls-7" x="188.01" y="225.29" width="28.39" height="46.03" rx="5.67" ry="5.67"/><rect class="cls-8" x="197.59" y="209.22" width="8.83" height="20.25" rx="4.41" ry="4.41"/><rect class="cls-9" x="188.01" y="196.1" width="28.39" height="28.39" rx="5.67" ry="5.67"/><path class="cls-15" d="M212,196.1H192.42a4.41,4.41,0,0,0-4.41,4.41v7.79a3.75,3.75,0,0,0,3.75-3.75v-.29a4.41,4.41,0,0,1,4.41-4.41h12a4.41,4.41,0,0,1,4.41,4.41v.29a3.75,3.75,0,0,0,3.75,3.75v-7.79A4.41,4.41,0,0,0,212,196.1Z"/><circle class="cls-11" cx="196.75" cy="211.93" r="1.73"/><circle class="cls-11" cx="207.66" cy="211.93" r="1.73"/><path class="cls-12" d="M205.84,216.55a1.8,1.8,0,0,1,1.63,2.57,5.87,5.87,0,0,1-10.55,0,1.8,1.8,0,0,1,1.63-2.57Z"/><rect class="cls-7" x="52.12" y="224.94" width="28.6" height="46.38" rx="5.67" ry="5.67"/><rect class="cls-8" x="61.78" y="208.75" width="8.9" height="20.4" rx="4.45" ry="4.45"/><rect class="cls-9" x="52.12" y="195.53" width="28.6" height="28.6" rx="5.67" ry="5.67"/><path class="cls-16" d="M76.28,195.53H56.57A4.45,4.45,0,0,0,52.12,200v7.85A3.78,3.78,0,0,0,55.9,204v-.29a4.45,4.45,0,0,1,4.45-4.45H72.49a4.45,4.45,0,0,1,4.45,4.45V204a3.78,3.78,0,0,0,3.78,3.78V200A4.45,4.45,0,0,0,76.28,195.53Z"/><circle class="cls-11" cx="60.93" cy="211.49" r="1.75"/><circle class="cls-11" cx="71.92" cy="211.49" r="1.75"/><path class="cls-12" d="M70.09,216.13a1.81,1.81,0,0,1,1.65,2.59,5.91,5.91,0,0,1-10.63,0,1.81,1.81,0,0,1,1.65-2.59Z"/><rect class="cls-3" x="33.52" y="306.01" width="5.87" height="14.3"/><rect class="cls-3" x="2.93" y="306.01" width="5.87" height="14.3"/><path class="cls-3" d="M21.16,271.32A21.16,21.16,0,0,0,0,292.48v7.9a1.79,1.79,0,0,0,1.79,1.79H40.53a1.79,1.79,0,0,0,1.79-1.79v-7.9A21.16,21.16,0,0,0,21.16,271.32Z"/><rect class="cls-4" y="304.59" width="42.32" height="9.69" rx="2.83" ry="2.83"/><rect class="cls-3" x="124.04" y="306.01" width="5.87" height="14.3"/><rect class="cls-3" x="93.45" y="306.01" width="5.87" height="14.3"/><path class="cls-3" d="M111.68,271.32a21.16,21.16,0,0,0-21.16,21.16v7.9a1.79,1.79,0,0,0,1.79,1.79h38.74a1.79,1.79,0,0,0,1.79-1.79v-7.9A21.16,21.16,0,0,0,111.68,271.32Z"/><rect class="cls-4" x="90.52" y="304.59" width="42.32" height="9.69" rx="2.83" ry="2.83"/><rect class="cls-3" x="169.3" y="306.01" width="5.87" height="14.3"/><rect class="cls-3" x="138.71" y="306.01" width="5.87" height="14.3"/><path class="cls-3" d="M156.94,271.32a21.16,21.16,0,0,0-21.16,21.16v7.9a1.79,1.79,0,0,0,1.79,1.79h38.74a1.79,1.79,0,0,0,1.79-1.79v-7.9A21.16,21.16,0,0,0,156.94,271.32Z"/><rect class="cls-4" x="135.78" y="304.59" width="42.32" height="9.69" rx="2.83" ry="2.83"/><rect class="cls-5" x="78.78" y="306.01" width="5.87" height="14.3"/><rect class="cls-5" x="48.19" y="306.01" width="5.87" height="14.3"/><path class="cls-5" d="M66.42,271.32a21.16,21.16,0,0,0-21.16,21.16v7.9a1.79,1.79,0,0,0,1.79,1.79H85.79a1.79,1.79,0,0,0,1.79-1.79v-7.9A21.16,21.16,0,0,0,66.42,271.32Z"/><rect class="cls-6" x="45.26" y="304.59" width="42.32" height="9.69" rx="2.83" ry="2.83"/><rect class="cls-3" x="214.56" y="306.01" width="5.87" height="14.3"/><rect class="cls-3" x="183.97" y="306.01" width="5.87" height="14.3"/><path class="cls-3" d="M202.2,271.32A21.16,21.16,0,0,0,181,292.48v7.9a1.79,1.79,0,0,0,1.79,1.79h38.74a1.79,1.79,0,0,0,1.79-1.79v-7.9A21.16,21.16,0,0,0,202.2,271.32Z"/><rect class="cls-4" x="181.04" y="304.59" width="42.32" height="9.69" rx="2.83" ry="2.83"/><rect class="cls-7" x="6.97" y="274.29" width="28.39" height="46.03" rx="5.67" ry="5.67"/><rect class="cls-8" x="16.55" y="258.21" width="8.83" height="20.25" rx="4.41" ry="4.41"/><rect class="cls-9" x="6.97" y="245.09" width="28.39" height="28.39" rx="5.67" ry="5.67"/><path class="cls-10" d="M30.94,245.09H11.38A4.41,4.41,0,0,0,7,249.5v7.79a3.75,3.75,0,0,0,3.75-3.75v-.29a4.41,4.41,0,0,1,4.41-4.41h12a4.41,4.41,0,0,1,4.41,4.41v.29a3.75,3.75,0,0,0,3.75,3.75V249.5A4.41,4.41,0,0,0,30.94,245.09Z"/><circle class="cls-11" cx="15.71" cy="260.93" r="1.73"/><circle class="cls-11" cx="26.62" cy="260.93" r="1.73"/><path class="cls-12" d="M24.8,265.54a1.8,1.8,0,0,1,1.63,2.57,5.87,5.87,0,0,1-10.55,0,1.8,1.8,0,0,1,1.63-2.57Z"/><rect class="cls-7" x="142.75" y="274.29" width="28.39" height="46.03" rx="5.67" ry="5.67"/><rect class="cls-8" x="152.33" y="258.21" width="8.83" height="20.25" rx="4.41" ry="4.41"/><rect class="cls-9" x="142.75" y="245.09" width="28.39" height="28.39" rx="5.67" ry="5.67"/><path class="cls-10" d="M166.72,245.09H147.16a4.41,4.41,0,0,0-4.41,4.41v7.79a3.75,3.75,0,0,0,3.75-3.75v-.29a4.41,4.41,0,0,1,4.41-4.41h12a4.41,4.41,0,0,1,4.41,4.41v.29a3.75,3.75,0,0,0,3.75,3.75V249.5A4.41,4.41,0,0,0,166.72,245.09Z"/><circle class="cls-11" cx="151.49" cy="260.93" r="1.73"/><circle class="cls-11" cx="162.4" cy="260.93" r="1.73"/><path class="cls-12" d="M160.58,265.54a1.8,1.8,0,0,1,1.63,2.57,5.87,5.87,0,0,1-10.55,0,1.8,1.8,0,0,1,1.63-2.57Z"/><rect class="cls-13" x="97.49" y="274.29" width="28.39" height="46.03" rx="5.67" ry="5.67"/><rect class="cls-8" x="107.07" y="258.21" width="8.83" height="20.25" rx="4.41" ry="4.41"/><rect class="cls-9" x="97.49" y="245.09" width="28.39" height="28.39" rx="5.67" ry="5.67"/><path class="cls-15" d="M121.46,245.09H101.9a4.41,4.41,0,0,0-4.41,4.41v7.79a3.75,3.75,0,0,0,3.75-3.75v-.29a4.41,4.41,0,0,1,4.41-4.41h12a4.41,4.41,0,0,1,4.41,4.41v.29a3.75,3.75,0,0,0,3.75,3.75V249.5A4.41,4.41,0,0,0,121.46,245.09Z"/><circle class="cls-11" cx="106.23" cy="260.93" r="1.73"/><circle class="cls-11" cx="117.14" cy="260.93" r="1.73"/><path class="cls-12" d="M115.32,265.54a1.8,1.8,0,0,1,1.63,2.57,5.87,5.87,0,0,1-10.55,0,1.8,1.8,0,0,1,1.63-2.57Z"/><rect class="cls-13" x="188.01" y="274.29" width="28.39" height="46.03" rx="5.67" ry="5.67"/><rect class="cls-8" x="197.59" y="258.21" width="8.83" height="20.25" rx="4.41" ry="4.41"/><rect class="cls-9" x="188.01" y="245.09" width="28.39" height="28.39" rx="5.67" ry="5.67"/><path class="cls-15" d="M212,245.09H192.42A4.41,4.41,0,0,0,188,249.5v7.79a3.75,3.75,0,0,0,3.75-3.75v-.29a4.41,4.41,0,0,1,4.41-4.41h12a4.41,4.41,0,0,1,4.41,4.41v.29a3.75,3.75,0,0,0,3.75,3.75V249.5A4.41,4.41,0,0,0,212,245.09Z"/><circle class="cls-11" cx="196.75" cy="260.93" r="1.73"/><circle class="cls-11" cx="207.66" cy="260.93" r="1.73"/><path class="cls-12" d="M205.84,265.54a1.8,1.8,0,0,1,1.63,2.57,5.87,5.87,0,0,1-10.55,0,1.8,1.8,0,0,1,1.63-2.57Z"/><rect class="cls-14" x="52.12" y="273.94" width="28.6" height="46.38" rx="5.67" ry="5.67"/><rect class="cls-8" x="61.78" y="257.74" width="8.9" height="20.4" rx="4.45" ry="4.45"/><rect class="cls-9" x="52.12" y="244.52" width="28.6" height="28.6" rx="5.67" ry="5.67"/><path class="cls-16" d="M76.28,244.52H56.57A4.45,4.45,0,0,0,52.12,249v7.85A3.78,3.78,0,0,0,55.9,253v-.29a4.45,4.45,0,0,1,4.45-4.45H72.49a4.45,4.45,0,0,1,4.45,4.45V253a3.78,3.78,0,0,0,3.78,3.78V249A4.45,4.45,0,0,0,76.28,244.52Z"/><circle class="cls-11" cx="60.93" cy="260.48" r="1.75"/><circle class="cls-11" cx="71.92" cy="260.48" r="1.75"/><path class="cls-12" d="M70.09,265.13a1.81,1.81,0,0,1,1.65,2.59,5.91,5.91,0,0,1-10.63,0,1.81,1.81,0,0,1,1.65-2.59Z"/><rect class="cls-3" x="33.52" y="354.56" width="5.87" height="14.3"/><rect class="cls-3" x="2.93" y="354.56" width="5.87" height="14.3"/><path class="cls-3" d="M21.16,319.87A21.16,21.16,0,0,0,0,341v7.9a1.79,1.79,0,0,0,1.79,1.79H40.53a1.79,1.79,0,0,0,1.79-1.79V341A21.16,21.16,0,0,0,21.16,319.87Z"/><rect class="cls-4" y="353.14" width="42.32" height="9.69" rx="2.83" ry="2.83"/><rect class="cls-5" x="124.04" y="354.56" width="5.87" height="14.3"/><rect class="cls-5" x="93.45" y="354.56" width="5.87" height="14.3"/><path class="cls-5" d="M111.68,319.87A21.16,21.16,0,0,0,90.52,341v7.9a1.79,1.79,0,0,0,1.79,1.79h38.74a1.79,1.79,0,0,0,1.79-1.79V341A21.16,21.16,0,0,0,111.68,319.87Z"/><rect class="cls-6" x="90.52" y="353.14" width="42.32" height="9.69" rx="2.83" ry="2.83"/><rect class="cls-3" x="169.3" y="354.56" width="5.87" height="14.3"/><rect class="cls-3" x="138.71" y="354.56" width="5.87" height="14.3"/><path class="cls-3" d="M156.94,319.87A21.16,21.16,0,0,0,135.78,341v7.9a1.79,1.79,0,0,0,1.79,1.79h38.74a1.79,1.79,0,0,0,1.79-1.79V341A21.16,21.16,0,0,0,156.94,319.87Z"/><rect class="cls-4" x="135.78" y="353.14" width="42.32" height="9.69" rx="2.83" ry="2.83"/><rect class="cls-3" x="78.78" y="354.56" width="5.87" height="14.3"/><rect class="cls-3" x="48.19" y="354.56" width="5.87" height="14.3"/><path class="cls-3" d="M66.42,319.87A21.16,21.16,0,0,0,45.26,341v7.9a1.79,1.79,0,0,0,1.79,1.79H85.79a1.79,1.79,0,0,0,1.79-1.79V341A21.16,21.16,0,0,0,66.42,319.87Z"/><rect class="cls-4" x="45.26" y="353.14" width="42.32" height="9.69" rx="2.83" ry="2.83"/><rect class="cls-5" x="214.56" y="354.56" width="5.87" height="14.3"/><rect class="cls-5" x="183.97" y="354.56" width="5.87" height="14.3"/><path class="cls-5" d="M202.2,319.87A21.16,21.16,0,0,0,181,341v7.9a1.79,1.79,0,0,0,1.79,1.79h38.74a1.79,1.79,0,0,0,1.79-1.79V341A21.16,21.16,0,0,0,202.2,319.87Z"/><rect class="cls-6" x="181.04" y="353.14" width="42.32" height="9.69" rx="2.83" ry="2.83"/><rect class="cls-7" x="6.97" y="322.83" width="28.39" height="46.03" rx="5.67" ry="5.67"/><rect class="cls-8" x="16.55" y="306.76" width="8.83" height="20.25" rx="4.41" ry="4.41"/><rect class="cls-9" x="6.97" y="293.64" width="28.39" height="28.39" rx="5.67" ry="5.67"/><path class="cls-10" d="M30.94,293.64H11.38A4.41,4.41,0,0,0,7,298.05v7.79a3.75,3.75,0,0,0,3.75-3.75v-.29a4.41,4.41,0,0,1,4.41-4.41h12a4.41,4.41,0,0,1,4.41,4.41v.29a3.75,3.75,0,0,0,3.75,3.75v-7.79A4.41,4.41,0,0,0,30.94,293.64Z"/><circle class="cls-11" cx="15.71" cy="309.47" r="1.73"/><circle class="cls-11" cx="26.62" cy="309.47" r="1.73"/><path class="cls-12" d="M24.8,314.09a1.8,1.8,0,0,1,1.63,2.57,5.87,5.87,0,0,1-10.55,0,1.8,1.8,0,0,1,1.63-2.57Z"/><rect class="cls-13" x="142.75" y="322.83" width="28.39" height="46.03" rx="5.67" ry="5.67"/><rect class="cls-8" x="152.33" y="306.76" width="8.83" height="20.25" rx="4.41" ry="4.41"/><rect class="cls-9" x="142.75" y="293.64" width="28.39" height="28.39" rx="5.67" ry="5.67"/><path class="cls-10" d="M166.72,293.64H147.16a4.41,4.41,0,0,0-4.41,4.41v7.79a3.75,3.75,0,0,0,3.75-3.75v-.29a4.41,4.41,0,0,1,4.41-4.41h12a4.41,4.41,0,0,1,4.41,4.41v.29a3.75,3.75,0,0,0,3.75,3.75v-7.79A4.41,4.41,0,0,0,166.72,293.64Z"/><circle class="cls-11" cx="151.49" cy="309.47" r="1.73"/><circle class="cls-11" cx="162.4" cy="309.47" r="1.73"/><path class="cls-12" d="M160.58,314.09a1.8,1.8,0,0,1,1.63,2.57,5.87,5.87,0,0,1-10.55,0,1.8,1.8,0,0,1,1.63-2.57Z"/><rect class="cls-14" x="97.49" y="322.83" width="28.39" height="46.03" rx="5.67" ry="5.67"/><rect class="cls-8" x="107.07" y="306.76" width="8.83" height="20.25" rx="4.41" ry="4.41"/><rect class="cls-9" x="97.49" y="293.64" width="28.39" height="28.39" rx="5.67" ry="5.67"/><path class="cls-15" d="M121.46,293.64H101.9a4.41,4.41,0,0,0-4.41,4.41v7.79a3.75,3.75,0,0,0,3.75-3.75v-.29a4.41,4.41,0,0,1,4.41-4.41h12a4.41,4.41,0,0,1,4.41,4.41v.29a3.75,3.75,0,0,0,3.75,3.75v-7.79A4.41,4.41,0,0,0,121.46,293.64Z"/><circle class="cls-11" cx="106.23" cy="309.47" r="1.73"/><circle class="cls-11" cx="117.14" cy="309.47" r="1.73"/><path class="cls-12" d="M115.32,314.09a1.8,1.8,0,0,1,1.63,2.57,5.87,5.87,0,0,1-10.55,0,1.8,1.8,0,0,1,1.63-2.57Z"/><rect class="cls-7" x="188.01" y="322.83" width="28.39" height="46.03" rx="5.67" ry="5.67"/><rect class="cls-8" x="197.59" y="306.76" width="8.83" height="20.25" rx="4.41" ry="4.41"/><rect class="cls-9" x="188.01" y="293.64" width="28.39" height="28.39" rx="5.67" ry="5.67"/><path class="cls-15" d="M212,293.64H192.42a4.41,4.41,0,0,0-4.41,4.41v7.79a3.75,3.75,0,0,0,3.75-3.75v-.29a4.41,4.41,0,0,1,4.41-4.41h12a4.41,4.41,0,0,1,4.41,4.41v.29a3.75,3.75,0,0,0,3.75,3.75v-7.79A4.41,4.41,0,0,0,212,293.64Z"/><circle class="cls-11" cx="196.75" cy="309.47" r="1.73"/><circle class="cls-11" cx="207.66" cy="309.47" r="1.73"/><path class="cls-12" d="M205.84,314.09a1.8,1.8,0,0,1,1.63,2.57,5.87,5.87,0,0,1-10.55,0,1.8,1.8,0,0,1,1.63-2.57Z"/><rect class="cls-7" x="52.12" y="322.49" width="28.6" height="46.38" rx="5.67" ry="5.67"/><rect class="cls-8" x="61.78" y="306.29" width="8.9" height="20.4" rx="4.45" ry="4.45"/><rect class="cls-9" x="52.12" y="293.07" width="28.6" height="28.6" rx="5.67" ry="5.67"/><path class="cls-16" d="M76.28,293.07H56.57a4.45,4.45,0,0,0-4.45,4.45v7.85a3.78,3.78,0,0,0,3.78-3.78v-.29a4.45,4.45,0,0,1,4.45-4.45H72.49a4.45,4.45,0,0,1,4.45,4.45v.29a3.78,3.78,0,0,0,3.78,3.78v-7.85A4.45,4.45,0,0,0,76.28,293.07Z"/><circle class="cls-11" cx="60.93" cy="309.03" r="1.75"/><circle class="cls-11" cx="71.92" cy="309.03" r="1.75"/><path class="cls-12" d="M70.09,313.67a1.81,1.81,0,0,1,1.65,2.59,5.91,5.91,0,0,1-10.63,0,1.81,1.81,0,0,1,1.65-2.59Z"/><rect class="cls-3" x="33.52" y="403.55" width="5.87" height="14.3"/><rect class="cls-3" x="2.93" y="403.55" width="5.87" height="14.3"/><path class="cls-3" d="M21.16,368.86A21.16,21.16,0,0,0,0,390v7.9a1.79,1.79,0,0,0,1.79,1.79H40.53a1.79,1.79,0,0,0,1.79-1.79V390A21.16,21.16,0,0,0,21.16,368.86Z"/><rect class="cls-4" y="402.13" width="42.32" height="9.69" rx="2.83" ry="2.83"/><rect class="cls-3" x="124.04" y="403.55" width="5.87" height="14.3"/><rect class="cls-3" x="93.45" y="403.55" width="5.87" height="14.3"/><path class="cls-3" d="M111.68,368.86A21.16,21.16,0,0,0,90.52,390v7.9a1.79,1.79,0,0,0,1.79,1.79h38.74a1.79,1.79,0,0,0,1.79-1.79V390A21.16,21.16,0,0,0,111.68,368.86Z"/><rect class="cls-4" x="90.52" y="402.13" width="42.32" height="9.69" rx="2.83" ry="2.83"/><rect class="cls-3" x="169.3" y="403.55" width="5.87" height="14.3"/><rect class="cls-3" x="138.71" y="403.55" width="5.87" height="14.3"/><path class="cls-3" d="M156.94,368.86A21.16,21.16,0,0,0,135.78,390v7.9a1.79,1.79,0,0,0,1.79,1.79h38.74a1.79,1.79,0,0,0,1.79-1.79V390A21.16,21.16,0,0,0,156.94,368.86Z"/><rect class="cls-4" x="135.78" y="402.13" width="42.32" height="9.69" rx="2.83" ry="2.83"/><rect class="cls-5" x="78.78" y="403.55" width="5.87" height="14.3"/><rect class="cls-5" x="48.19" y="403.55" width="5.87" height="14.3"/><path class="cls-5" d="M66.42,368.86A21.16,21.16,0,0,0,45.26,390v7.9a1.79,1.79,0,0,0,1.79,1.79H85.79a1.79,1.79,0,0,0,1.79-1.79V390A21.16,21.16,0,0,0,66.42,368.86Z"/><rect class="cls-6" x="45.26" y="402.13" width="42.32" height="9.69" rx="2.83" ry="2.83"/><rect class="cls-5" x="214.56" y="403.55" width="5.87" height="14.3"/><rect class="cls-5" x="183.97" y="403.55" width="5.87" height="14.3"/><path class="cls-5" d="M202.2,368.86A21.16,21.16,0,0,0,181,390v7.9a1.79,1.79,0,0,0,1.79,1.79h38.74a1.79,1.79,0,0,0,1.79-1.79V390A21.16,21.16,0,0,0,202.2,368.86Z"/><rect class="cls-6" x="181.04" y="402.13" width="42.32" height="9.69" rx="2.83" ry="2.83"/><rect class="cls-7" x="6.97" y="371.83" width="28.39" height="46.03" rx="5.67" ry="5.67"/><rect class="cls-8" x="16.55" y="355.75" width="8.83" height="20.25" rx="4.41" ry="4.41"/><rect class="cls-9" x="6.97" y="342.63" width="28.39" height="28.39" rx="5.67" ry="5.67"/><path class="cls-10" d="M30.94,342.63H11.38A4.41,4.41,0,0,0,7,347v7.79a3.75,3.75,0,0,0,3.75-3.75v-.29a4.41,4.41,0,0,1,4.41-4.41h12a4.41,4.41,0,0,1,4.41,4.41v.29a3.75,3.75,0,0,0,3.75,3.75V347A4.41,4.41,0,0,0,30.94,342.63Z"/><circle class="cls-11" cx="15.71" cy="358.47" r="1.73"/><circle class="cls-11" cx="26.62" cy="358.47" r="1.73"/><path class="cls-12" d="M24.8,363.08a1.8,1.8,0,0,1,1.63,2.57,5.87,5.87,0,0,1-10.55,0,1.8,1.8,0,0,1,1.63-2.57Z"/><rect class="cls-7" x="142.75" y="371.83" width="28.39" height="46.03" rx="5.67" ry="5.67"/><rect class="cls-8" x="152.33" y="355.75" width="8.83" height="20.25" rx="4.41" ry="4.41"/><rect class="cls-9" x="142.75" y="342.63" width="28.39" height="28.39" rx="5.67" ry="5.67"/><path class="cls-10" d="M166.72,342.63H147.16a4.41,4.41,0,0,0-4.41,4.41v7.79a3.75,3.75,0,0,0,3.75-3.75v-.29a4.41,4.41,0,0,1,4.41-4.41h12a4.41,4.41,0,0,1,4.41,4.41v.29a3.75,3.75,0,0,0,3.75,3.75V347A4.41,4.41,0,0,0,166.72,342.63Z"/><circle class="cls-11" cx="151.49" cy="358.47" r="1.73"/><circle class="cls-11" cx="162.4" cy="358.47" r="1.73"/><path class="cls-12" d="M160.58,363.08a1.8,1.8,0,0,1,1.63,2.57,5.87,5.87,0,0,1-10.55,0,1.8,1.8,0,0,1,1.63-2.57Z"/><rect class="cls-13" x="97.49" y="371.83" width="28.39" height="46.03" rx="5.67" ry="5.67"/><rect class="cls-8" x="107.07" y="355.75" width="8.83" height="20.25" rx="4.41" ry="4.41"/><rect class="cls-9" x="97.49" y="342.63" width="28.39" height="28.39" rx="5.67" ry="5.67"/><path class="cls-15" d="M121.46,342.63H101.9A4.41,4.41,0,0,0,97.49,347v7.79a3.75,3.75,0,0,0,3.75-3.75v-.29a4.41,4.41,0,0,1,4.41-4.41h12a4.41,4.41,0,0,1,4.41,4.41v.29a3.75,3.75,0,0,0,3.75,3.75V347A4.41,4.41,0,0,0,121.46,342.63Z"/><circle class="cls-11" cx="106.23" cy="358.47" r="1.73"/><circle class="cls-11" cx="117.14" cy="358.47" r="1.73"/><path class="cls-12" d="M115.32,363.08a1.8,1.8,0,0,1,1.63,2.57,5.87,5.87,0,0,1-10.55,0,1.8,1.8,0,0,1,1.63-2.57Z"/><rect class="cls-13" x="188.01" y="371.83" width="28.39" height="46.03" rx="5.67" ry="5.67"/><rect class="cls-8" x="197.59" y="355.75" width="8.83" height="20.25" rx="4.41" ry="4.41"/><rect class="cls-9" x="188.01" y="342.63" width="28.39" height="28.39" rx="5.67" ry="5.67"/><path class="cls-15" d="M212,342.63H192.42A4.41,4.41,0,0,0,188,347v7.79a3.75,3.75,0,0,0,3.75-3.75v-.29a4.41,4.41,0,0,1,4.41-4.41h12a4.41,4.41,0,0,1,4.41,4.41v.29a3.75,3.75,0,0,0,3.75,3.75V347A4.41,4.41,0,0,0,212,342.63Z"/><circle class="cls-11" cx="196.75" cy="358.47" r="1.73"/><circle class="cls-11" cx="207.66" cy="358.47" r="1.73"/><path class="cls-12" d="M205.84,363.08a1.8,1.8,0,0,1,1.63,2.57,5.87,5.87,0,0,1-10.55,0,1.8,1.8,0,0,1,1.63-2.57Z"/><rect class="cls-14" x="52.12" y="371.48" width="28.6" height="46.38" rx="5.67" ry="5.67"/><rect class="cls-8" x="61.78" y="355.28" width="8.9" height="20.4" rx="4.45" ry="4.45"/><rect class="cls-9" x="52.12" y="342.06" width="28.6" height="28.6" rx="5.67" ry="5.67"/><path class="cls-16" d="M76.28,342.06H56.57a4.45,4.45,0,0,0-4.45,4.45v7.85a3.78,3.78,0,0,0,3.78-3.78v-.29a4.45,4.45,0,0,1,4.45-4.45H72.49a4.45,4.45,0,0,1,4.45,4.45v.29a3.78,3.78,0,0,0,3.78,3.78v-7.85A4.45,4.45,0,0,0,76.28,342.06Z"/><circle class="cls-11" cx="60.93" cy="358.02" r="1.75"/><circle class="cls-11" cx="71.92" cy="358.02" r="1.75"/><path class="cls-12" d="M70.09,362.67a1.81,1.81,0,0,1,1.65,2.59,5.91,5.91,0,0,1-10.63,0,1.81,1.81,0,0,1,1.65-2.59Z"/></g></svg>