<?xml version="1.0" encoding="utf-8"?>
<!-- Generator: Adobe Illustrator 20.1.0, SVG Export Plug-In . SVG Version: 6.00 Build 0)  -->
<svg version="1.1" id="Layer_1" xmlns="http://www.w3.org/2000/svg" xmlns:xlink="http://www.w3.org/1999/xlink" x="0px" y="0px"
	 viewBox="0 0 58.2 58.2" style="enable-background:new 0 0 58.2 58.2;" xml:space="preserve">
<style type="text/css">
	.st0{fill:#333333;}
	.st1{fill:#FFFFFF;}
	.st2{fill:#D8C5BC;}
	.st3{fill:#EFE0D7;}
	.st4{fill:#EACE7D;}
	.st5{fill:#B73130;}
	.st6{fill:#DDB546;}
	.st7{fill:#7B2020;}
	.st8{fill:#C8B9AE;}
	.st9{fill:#443C31;}
	.st10{fill:#9C2929;}
	.st11{fill:#C69A2C;}
</style>
<rect x="20" y="25.5" class="st0" width="18.4" height="6.1"/>
<path class="st1" d="M30.1,47.9h-2c-1.7,0-3.1-1.4-3.1-3.1v-5.1h8.2v5.1C33.2,46.5,31.8,47.9,30.1,47.9z"/>
<circle class="st2" cx="42" cy="28.4" r="1.6"/>
<circle class="st2" cx="16.2" cy="28.4" r="1.6"/>
<path class="st3" d="M35.1,15.5H23.2c-3.8,0-6.9,3.1-6.9,6.9v11.9c0,3.8,3.1,6.9,6.9,6.9h11.9c3.8,0,6.9-3.1,6.9-6.9V22.4
	C42,18.6,38.9,15.5,35.1,15.5z M23.4,30.1c-1,0-1.8-0.8-1.8-1.8s0.8-1.8,1.8-1.8s1.8,0.8,1.8,1.8C25.2,29.3,24.4,30.1,23.4,30.1z
	 M34.8,30.1c-1,0-1.8-0.8-1.8-1.8s0.8-1.8,1.8-1.8s1.8,0.8,1.8,1.8C36.6,29.3,35.8,30.1,34.8,30.1z"/>
<path class="st4" d="M42,15.5c-0.1-1.5-1.4-2.7-2.9-2.7h-20c-1.5,0-2.8,1.2-2.9,2.7l0,0v0.2V18v5.2c1.5,0,2.7-1.2,2.7-2.7v-2
	c0-0.9,0.7-1.6,1.6-1.6h17.3c0.9,0,1.6,0.7,1.6,1.6v2c0,1.5,1.2,2.7,2.7,2.7V17v-1.3L42,15.5L42,15.5z"/>
<path class="st4" d="M16.4,16.8c0-0.7-1.5-3-1.5-3c0.3-0.1,1.9,0.3,1.9,0.3c-0.4-0.7-0.6-1.6-0.6-2.2c0-0.3,0.3-0.4,0.5-0.3
	c0.6,0.5,1.4,1.2,1.4,1.2c0.6-1.3,1.2-1.9,1.6-2.2c0.3-0.2,0.6,0.1,0.5,0.4c-0.2,0.7-0.4,1.6-0.4,1.6C26.2,9.5,31,9.2,33.2,9.2
	c0.4,0,0.5,0.5,0.2,0.7c-0.7,0.5-1.5,1.2-1.5,1.2c6.4-1.3,11.6,2.2,11.6,2.5s-1.7,1-1.7,1c0.3-0.1,2,1.2,1.7,1.4
	C37.9,20.6,27,17,27,17c0.1,0.3,1.5,1.2,2.3,1.7c0.2,0.1,0.2,0.4-0.1,0.5C24.6,20.7,16.4,16.8,16.4,16.8L16.4,16.8z"/>
<path class="st5" d="M29.1,58.2c-16,0-29.1-13-29.1-29.1S13.1,0,29.1,0s29.1,13.1,29.1,29.1S45.2,58.2,29.1,58.2z M29.1,4.1
	c-13.8,0-25,11.2-25,25s11.2,25,25,25s25-11.2,25-25S42.9,4.1,29.1,4.1z"/>
<path class="st6" d="M38.1,49c0.8-0.4,1.2-1.4,0.7-2.2c-0.9-1.4-2.5-2.4-4.3-2.4H23.8c-1.8,0-3.4,1-4.3,2.4
	c-0.5,0.8-0.2,1.8,0.7,2.2c2.7,1.2,5.8,1.9,9,1.9C32.3,50.9,35.3,50.2,38.1,49z"/>
<rect x="23.4" y="41.2" class="st7" width="11.4" height="3.2"/>
<path class="st1" d="M32.8,34.3c0.7,0,1.1,0.6,1,1.3c-0.6,2-2.4,3.5-4.6,3.5s-4.1-1.5-4.6-3.5c-0.2-0.6,0.3-1.3,1-1.3H32.8z"/>
<path class="st8" d="M30.2,29.5v-0.1c0-0.6-0.5-1.1-1.1-1.1S28,28.8,28,29.4v2.2l0,0c0,0.5,0.5,1,1.1,1s1.1-0.5,1.1-1.1v-0.1V29.5z"
	/>
<path class="st9" d="M24.6,23.6h-2.3c-0.3,0-0.6,0.3-0.6,0.6v0.3c0,0.3,0.3,0.6,0.6,0.6h2.3c0.3,0,0.6-0.3,0.6-0.6v-0.3
	C25.2,23.9,24.9,23.6,24.6,23.6z"/>
<path class="st9" d="M35.9,23.6h-2.3c-0.3,0-0.6,0.3-0.6,0.6v0.3c0,0.3,0.3,0.6,0.6,0.6h2.3c0.3,0,0.6-0.3,0.6-0.6v-0.3
	C36.5,23.9,36.2,23.6,35.9,23.6z"/>
<g>
	<rect x="23" y="48.7" class="st10" width="3.3" height="2.6"/>
	<rect x="24.4" y="46.8" class="st10" width="0.5" height="5.6"/>
	<rect x="25.4" y="46.7" class="st10" width="0.5" height="5.6"/>
	<rect x="23.4" y="46.7" class="st10" width="0.5" height="5.6"/>
	<rect x="23.1" y="46.1" class="st11" width="3.3" height="2.6"/>
	<rect x="23.1" y="43.4" class="st10" width="3.3" height="2.6"/>
	<rect x="23" y="41.3" class="st11" width="3.3" height="2.1"/>
</g>
<g>
	<rect x="33.1" y="48.6" class="st10" width="3.3" height="2.6"/>
	<rect x="34.5" y="46.8" class="st10" width="0.5" height="5.6"/>
	<rect x="35.4" y="46.7" class="st10" width="0.5" height="5.6"/>
	<rect x="33.5" y="46.7" class="st10" width="0.5" height="5.6"/>
	<rect x="33.2" y="46" class="st11" width="3.3" height="2.6"/>
	<rect x="33.1" y="43.4" class="st10" width="3.3" height="2.6"/>
	<rect x="33.1" y="41.3" class="st11" width="3.3" height="2.1"/>
</g>
</svg>
