<?xml version="1.0" encoding="utf-8"?>
<!-- Generator: Adobe Illustrator 20.1.0, SVG Export Plug-In . SVG Version: 6.00 Build 0)  -->
<svg version="1.1" xmlns="http://www.w3.org/2000/svg" xmlns:xlink="http://www.w3.org/1999/xlink" x="0px" y="0px"
	 viewBox="0 0 58.2 58.2" style="enable-background:new 0 0 58.2 58.2;" xml:space="preserve">
<style type="text/css">
	.st0{fill:#B73332;}
	.st1{fill:#7F5940;}
	.st2{fill:#AA794D;}
	.st3{fill:#D1A32E;}
	.st4{fill:#99741F;}
</style>
<g id="Layer_1">
	<path class="st0" d="M31.5,58.1C13.6,59.5-1.3,44.6,0.1,26.7C1.2,12.6,12.6,1.2,26.7,0.1c17.9-1.4,32.8,13.5,31.4,31.4
		C57,45.6,45.6,57,31.5,58.1z M31.1,4.2C15.8,3,3,15.8,4.2,31.1c1,12.2,10.8,22,22.9,22.9c15.4,1.2,28.2-11.6,27-27
		C53.1,15,43.3,5.2,31.1,4.2z"/>
</g>
<g id="Layer_2">
	<path class="st1" d="M42.2,45.8H16c-1.1,0-2-0.9-2-2V16.9c0-0.8,0.5-1.5,1.2-1.8c2.2-0.9,7.2-2.7,13.9-2.7c6.7,0,11.6,1.8,13.8,2.7
		c0.7,0.3,1.2,1,1.2,1.8v26.8C44.2,44.9,43.3,45.8,42.2,45.8z"/>
	<path class="st2" d="M39.8,42.8H18.4c-0.9,0-1.6-0.7-1.6-1.6v-22c0-0.7,0.4-1.3,1-1.5c1.8-0.8,5.9-2.2,11.4-2.2
		c5.5,0,9.5,1.4,11.3,2.2c0.6,0.3,1,0.9,1,1.5v22C41.5,42.1,40.7,42.8,39.8,42.8z"/>
	<rect x="14.7" y="22.1" class="st1" width="28.7" height="3"/>
	<path class="st1" d="M33.3,28.8h-8.4c-0.6,0-1-0.4-1-1v-8.4c0-0.6,0.4-1,1-1h8.4c0.6,0,1,0.4,1,1v8.4
		C34.3,28.3,33.8,28.8,33.3,28.8z"/>
	<path class="st3" d="M31.1,26.5h-3.9c-0.6,0-1-0.4-1-1v-3.9c0-0.6,0.4-1,1-1h3.9c0.6,0,1,0.4,1,1v3.9
		C32.1,26.1,31.6,26.5,31.1,26.5z"/>
	<g>
		<circle class="st4" cx="29.1" cy="22.9" r="1.3"/>
		<path class="st4" d="M29.2,25.6H29c-0.2,0-0.4-0.2-0.4-0.4v-1.9c0-0.2,0.2-0.4,0.4-0.4h0.3c0.2,0,0.4,0.2,0.4,0.4v1.9
			C29.7,25.4,29.5,25.6,29.2,25.6z"/>
	</g>
</g>
</svg>
