<?xml version="1.0" encoding="utf-8"?>
<!-- Generator: Adobe Illustrator 20.1.0, SVG Export Plug-In . SVG Version: 6.00 Build 0)  -->
<svg version="1.1" xmlns="http://www.w3.org/2000/svg" xmlns:xlink="http://www.w3.org/1999/xlink" x="0px" y="0px"
	 viewBox="0 0 58.2 58.2" style="enable-background:new 0 0 58.2 58.2;" xml:space="preserve">
<style type="text/css">
	.st0{fill:#942C2D;}
	.st1{fill:#B2A193;}
	.st2{fill:#EADBCB;}
</style>
<g id="Layer_1">
	<path class="st0" d="M29.1,58.2c-16,0-29.1-13-29.1-29.1S13.1,0,29.1,0s29.1,13.1,29.1,29.1S45.2,58.2,29.1,58.2z M29.1,4.1
		c-13.8,0-25,11.2-25,25s11.2,25,25,25s25-11.2,25-25S42.9,4.1,29.1,4.1z"/>
</g>
<g id="Layer_2">
</g>
<g id="Layer_3">
	<path class="st1" d="M18.3,20.4h-10c-0.6,0-1,0.4-1,1v15.4c0,0.6,0.4,1,1,1h10c0.6,0,1-0.4,1-1V21.4C19.3,20.8,18.8,20.4,18.3,20.4
		z"/>
	<path class="st2" d="M17.2,21.5H9.4c-0.6,0-1,0.4-1,1v13.3c0,0.6,0.4,1,1,1h7.8c0.6,0,1-0.4,1-1V22.5
		C18.2,21.9,17.7,21.5,17.2,21.5z"/>
	<g>
		<g>
			<g>
				<path class="st1" d="M9.8,29.9c0.2-0.1,0.4-0.1,0.5,0c0.1,0.1,0.1,0.4,0,0.5c-0.1,0.2-0.4,0.2-0.6,0C9.6,30.3,9.6,30,9.8,29.9z"
					/>
			</g>
			<g>
				<path class="st1" d="M9.6,29.2c0.1,0,0.2,0,0.3,0.1c0.1,0,0.1,0.1,0.2,0.2c0,0.1,0,0.3-0.2,0.5c-0.2,0.1-0.5,0-0.5-0.2
					c0-0.1,0-0.3,0-0.4C9.4,29.2,9.5,29.2,9.6,29.2z"/>
			</g>
			<g>
				<path class="st1" d="M9.8,28.5c0.1,0.1,0.2,0.1,0.2,0.2c0,0.1,0,0.2,0,0.2c0,0.1-0.1,0.1-0.2,0.2c-0.1,0-0.2,0.1-0.3,0.1
					c-0.1,0-0.2,0-0.3-0.1c-0.1-0.1-0.1-0.2,0-0.4c0-0.1,0.1-0.2,0.2-0.3C9.6,28.4,9.7,28.4,9.8,28.5z"/>
			</g>
			<g>
				<path class="st1" d="M10.4,27.9c0.1,0.2,0.1,0.4,0,0.5c-0.1,0.1-0.1,0.1-0.2,0.1c-0.1,0-0.2,0-0.3-0.1c-0.1-0.1-0.2-0.2-0.2-0.3
					c0-0.1,0-0.2,0.1-0.3C10,27.7,10.2,27.7,10.4,27.9z"/>
			</g>
			<g>
				<path class="st1" d="M11,27.5c0,0.1,0,0.2,0,0.3c0,0.1-0.1,0.2-0.2,0.2c-0.2,0.1-0.4,0-0.5-0.1c-0.1-0.2-0.1-0.4,0.1-0.6
					c0.1-0.1,0.2-0.1,0.3,0C10.9,27.4,11,27.4,11,27.5z"/>
			</g>
			<g>
				<path class="st1" d="M11.8,27.3c0.1,0.2-0.1,0.4-0.2,0.5c-0.2,0.1-0.4,0-0.5-0.2c-0.1-0.2,0-0.4,0.2-0.5
					C11.5,26.9,11.7,27.1,11.8,27.3z"/>
			</g>
			<g>
				<path class="st1" d="M12.5,27.1c0,0.2-0.1,0.4-0.3,0.4c-0.2,0-0.4-0.1-0.4-0.3c-0.1-0.2,0.1-0.4,0.3-0.5
					C12.3,26.8,12.5,26.9,12.5,27.1z"/>
			</g>
			<g>
				<path class="st1" d="M13.3,27.1c0,0.2-0.2,0.4-0.4,0.4c-0.2,0-0.4-0.1-0.4-0.4c0-0.2,0.1-0.4,0.4-0.4
					C13.1,26.7,13.3,26.9,13.3,27.1z"/>
			</g>
			<g>
				<path class="st1" d="M14.1,27.1c0,0.2-0.2,0.4-0.4,0.4c-0.2,0-0.4-0.2-0.4-0.4c0-0.2,0.2-0.4,0.4-0.4
					C13.9,26.7,14.1,26.9,14.1,27.1z"/>
			</g>
			<g>
				<path class="st1" d="M14.8,27.3c-0.1,0.2-0.3,0.3-0.4,0.3c-0.2,0-0.3-0.2-0.3-0.4c0-0.2,0.2-0.4,0.5-0.3
					C14.7,26.9,14.9,27.1,14.8,27.3z"/>
			</g>
			<g>
				<path class="st1" d="M15.5,27.5c-0.1,0.2-0.3,0.3-0.5,0.2c-0.2-0.1-0.3-0.3-0.2-0.5c0.1-0.2,0.3-0.3,0.5-0.3
					C15.5,27.1,15.6,27.3,15.5,27.5z"/>
			</g>
			<g>
				<path class="st1" d="M16.2,27.9c-0.1,0.2-0.4,0.2-0.5,0.1c-0.1,0-0.1-0.1-0.2-0.2c0-0.1,0-0.2,0-0.3c0-0.1,0.1-0.2,0.2-0.2
					c0.1,0,0.2,0,0.3,0C16.3,27.5,16.3,27.7,16.2,27.9z"/>
			</g>
			<g>
				<path class="st1" d="M16.8,28.5c-0.1,0.1-0.2,0.1-0.3,0.1c-0.1,0-0.2,0-0.2-0.1c-0.1-0.1-0.1-0.3,0-0.5c0.1-0.2,0.4-0.2,0.6,0
					c0.1,0.1,0.1,0.2,0.1,0.3C16.9,28.3,16.8,28.4,16.8,28.5z"/>
			</g>
			<g>
				<path class="st1" d="M17,29.2c-0.1,0-0.2,0-0.3-0.1c-0.1,0-0.1-0.1-0.2-0.2c0-0.1,0-0.2,0-0.2c0-0.1,0.1-0.2,0.2-0.2
					c0.1-0.1,0.2-0.1,0.3,0c0.1,0,0.2,0.1,0.2,0.3c0,0.1,0,0.3,0,0.4C17.2,29.1,17.1,29.2,17,29.2z"/>
			</g>
			<g>
				<path class="st1" d="M16.8,29.9c-0.2-0.1-0.3-0.3-0.2-0.5c0-0.1,0.1-0.1,0.2-0.2c0.1,0,0.2-0.1,0.3-0.1c0.1,0,0.2,0,0.3,0.1
					c0.1,0.1,0.1,0.2,0,0.4C17.2,30,16.9,30,16.8,29.9z"/>
			</g>
			<g>
				<path class="st1" d="M16.2,30.5c-0.1-0.2-0.1-0.4,0-0.5c0.1-0.1,0.3-0.1,0.5,0c0.2,0.1,0.2,0.4,0,0.6
					C16.6,30.7,16.4,30.6,16.2,30.5z"/>
			</g>
		</g>
		<ellipse class="st2" cx="13.3" cy="29.2" rx="3.7" ry="2.1"/>
		<path class="st1" d="M13.3,27.3c1.9,0,3.5,0.9,3.5,1.9c0,1-1.6,1.9-3.5,1.9s-3.5-0.9-3.5-1.9C9.8,28.2,11.4,27.3,13.3,27.3
			 M13.3,27.1c-2,0-3.7,0.9-3.7,2.1c0,1.2,1.7,2.1,3.7,2.1s3.7-0.9,3.7-2.1C17,28,15.3,27.1,13.3,27.1L13.3,27.1z"/>
		<g>
			<g>
				<path class="st1" d="M15.5,28.5c-0.2,0.1-0.4,0-0.5-0.1c-0.1-0.1,0-0.3,0.1-0.5c0.2-0.1,0.4-0.1,0.5,0.1
					C15.8,28.2,15.8,28.4,15.5,28.5z"/>
			</g>
			<g>
				<path class="st1" d="M15.7,29.2c-0.2,0-0.4-0.1-0.4-0.3c0-0.1,0.1-0.3,0.3-0.4c0.2-0.1,0.4,0,0.5,0.3
					C16.1,29,15.9,29.2,15.7,29.2z"/>
			</g>
			<g>
				<path class="st1" d="M15.5,29.9c-0.2-0.1-0.3-0.3-0.3-0.4c0-0.1,0.2-0.3,0.4-0.3c0.2,0,0.4,0.2,0.4,0.4
					C16,29.9,15.7,30,15.5,29.9z"/>
			</g>
			<g>
				<path class="st1" d="M15.2,30.5C15,30.3,15,30.1,15.1,30c0.1-0.1,0.3-0.2,0.5-0.1c0.2,0.1,0.3,0.3,0.2,0.5
					C15.6,30.6,15.3,30.6,15.2,30.5z"/>
			</g>
		</g>
		<g>
			<g>
				<path class="st1" d="M11,29.9c0.2-0.1,0.4,0,0.5,0.1c0.1,0.1,0,0.3-0.1,0.5c-0.2,0.1-0.4,0.1-0.5-0.1C10.7,30.2,10.8,30,11,29.9
					z"/>
			</g>
			<g>
				<path class="st1" d="M10.9,29.2c0.2,0,0.4,0.1,0.4,0.3c0,0.1-0.1,0.3-0.3,0.4c-0.2,0.1-0.4,0-0.5-0.3
					C10.5,29.4,10.7,29.2,10.9,29.2z"/>
			</g>
			<g>
				<path class="st1" d="M11,28.5c0.2,0.1,0.3,0.3,0.3,0.4c0,0.1-0.2,0.3-0.4,0.3c-0.2,0-0.4-0.2-0.4-0.4
					C10.6,28.5,10.8,28.4,11,28.5z"/>
			</g>
			<g>
				<path class="st1" d="M11.4,27.9c0.2,0.1,0.2,0.4,0.1,0.5c-0.1,0.1-0.3,0.2-0.5,0.1c-0.2-0.1-0.3-0.3-0.2-0.5
					C11,27.8,11.2,27.8,11.4,27.9z"/>
			</g>
		</g>
		<ellipse class="st2" cx="13.3" cy="29.2" rx="2.4" ry="2.1"/>
		<path class="st1" d="M13.3,27.3c1.2,0,2.2,0.8,2.2,1.9c0,1-1,1.9-2.2,1.9s-2.2-0.8-2.2-1.9C11.1,28.2,12.1,27.3,13.3,27.3
			 M13.3,27.1c-1.3,0-2.4,0.9-2.4,2.1c0,1.2,1.1,2.1,2.4,2.1s2.4-0.9,2.4-2.1C15.7,28,14.6,27.1,13.3,27.1L13.3,27.1z"/>
		<path class="st1" d="M13.3,27.3c0.3,0,0.7,0.7,0.7,1.9c0,1.1-0.4,1.9-0.7,1.9s-0.7-0.7-0.7-1.9C12.6,28.1,13,27.3,13.3,27.3
			 M13.3,27.1c-0.5,0-0.9,0.9-0.9,2.1c0,1.2,0.4,2.1,0.9,2.1s0.9-0.9,0.9-2.1C14.2,28,13.8,27.1,13.3,27.1L13.3,27.1z"/>
		<path class="st1" d="M10.3,30.5c0-0.4,1.3-0.6,3-0.6s3,0.3,3,0.6"/>
		<rect x="10.3" y="30.5" class="st1" width="6" height="0.7"/>
		<ellipse class="st2" cx="13.3" cy="31.2" rx="3" ry="0.6"/>
		<path class="st1" d="M13.3,30.8c1.6,0,2.5,0.2,2.7,0.4c-0.2,0.2-1.2,0.4-2.7,0.4s-2.5-0.2-2.7-0.4C10.8,31,11.7,30.8,13.3,30.8
			 M13.3,30.5c-1.7,0-3,0.3-3,0.6s1.3,0.6,3,0.6s3-0.3,3-0.6S14.9,30.5,13.3,30.5L13.3,30.5z"/>
		<circle class="st1" cx="13.3" cy="29.4" r="0.3"/>
		<circle class="st1" cx="13.3" cy="28.7" r="0.3"/>
		<circle class="st1" cx="13.3" cy="27.9" r="0.3"/>
		<path class="st1" d="M14.3,26L14.3,26c0-0.1-0.1-0.3-0.3-0.3h-1.6c-0.1,0-0.3,0.1-0.3,0.3l0,0c0,0.1,0.1,0.3,0.3,0.3h1.6
			C14.2,26.3,14.3,26.2,14.3,26z"/>
		<path class="st1" d="M13,27.1h0.5v-1.8c0-0.1-0.1-0.3-0.3-0.3l0,0c-0.1,0-0.3,0.1-0.3,0.3V27.1z"/>
		<g>
			<g>
				<path class="st2" d="M11.2,30.5c0,0.1-0.1,0.3-0.2,0.3c-0.1,0-0.3,0-0.4-0.2c-0.1-0.1,0-0.3,0.2-0.3
					C11,30.3,11.2,30.4,11.2,30.5z"/>
			</g>
			<g>
				<path class="st2" d="M12.4,30.4c0,0.1-0.1,0.3-0.3,0.3c-0.2,0-0.3-0.1-0.3-0.2c0-0.1,0.1-0.3,0.3-0.3
					C12.2,30.1,12.4,30.2,12.4,30.4z"/>
			</g>
			<g>
				<ellipse class="st2" cx="13.3" cy="30.4" rx="0.3" ry="0.3"/>
			</g>
			<g>
				<path class="st2" d="M14.8,30.4c0,0.1-0.2,0.2-0.3,0.2c-0.2,0-0.3-0.1-0.3-0.3c0-0.1,0.2-0.3,0.3-0.2
					C14.7,30.1,14.8,30.3,14.8,30.4z"/>
			</g>
			<g>
				<path class="st2" d="M16,30.6c-0.1,0.1-0.2,0.2-0.4,0.2c-0.1,0-0.2-0.2-0.2-0.3c0-0.1,0.2-0.2,0.4-0.2
					C15.9,30.3,16,30.5,16,30.6z"/>
			</g>
		</g>
	</g>
	<path class="st2" d="M9.4,21.5h7.8c0.6,0,1,0.4,1,1v13.3c0,0.6-0.4,1-1,1H9.4c-0.6,0-1-0.4-1-1V22.5C8.4,21.9,8.9,21.5,9.4,21.5z"
		/>
	<g>
		<g>
			<g>
				<path class="st1" d="M16.8,29.9c-0.2-0.1-0.4-0.1-0.5,0c-0.1,0.1-0.1,0.4,0,0.5c0.1,0.2,0.4,0.2,0.6,0C17,30.3,17,30,16.8,29.9z
					"/>
			</g>
			<g>
				<path class="st1" d="M17,29.2c-0.1,0-0.2,0-0.3,0.1c-0.1,0-0.1,0.1-0.2,0.2c0,0.1,0,0.3,0.2,0.5c0.2,0.1,0.5,0,0.5-0.2
					c0-0.1,0-0.3,0-0.4C17.2,29.2,17.1,29.2,17,29.2z"/>
			</g>
			<g>
				<path class="st1" d="M16.8,28.5c-0.1,0.1-0.2,0.1-0.2,0.2c0,0.1,0,0.2,0,0.2c0,0.1,0.1,0.1,0.2,0.2c0.1,0,0.2,0.1,0.3,0.1
					c0.1,0,0.2,0,0.3-0.1c0.1-0.1,0.1-0.2,0-0.4c0-0.1-0.1-0.2-0.2-0.3C17,28.4,16.9,28.4,16.8,28.5z"/>
			</g>
			<g>
				<path class="st1" d="M16.2,27.9c-0.1,0.2-0.1,0.4,0,0.5c0.1,0.1,0.1,0.1,0.2,0.1c0.1,0,0.2,0,0.3-0.1c0.1-0.1,0.2-0.2,0.2-0.3
					c0-0.1,0-0.2-0.1-0.3C16.6,27.7,16.4,27.7,16.2,27.9z"/>
			</g>
			<g>
				<path class="st1" d="M15.6,27.5c0,0.1,0,0.2,0,0.3c0,0.1,0.1,0.2,0.2,0.2c0.2,0.1,0.4,0,0.5-0.1c0.1-0.2,0.1-0.4-0.1-0.6
					c-0.1-0.1-0.2-0.1-0.3,0C15.7,27.4,15.6,27.4,15.6,27.5z"/>
			</g>
			<g>
				<path class="st1" d="M14.8,27.3c-0.1,0.2,0.1,0.4,0.2,0.5c0.2,0.1,0.4,0,0.5-0.2c0.1-0.2,0-0.4-0.2-0.5
					C15.1,26.9,14.9,27.1,14.8,27.3z"/>
			</g>
			<g>
				<path class="st1" d="M14.1,27.1c0,0.2,0.1,0.4,0.3,0.4c0.2,0,0.4-0.1,0.4-0.3c0.1-0.2-0.1-0.4-0.3-0.5
					C14.3,26.8,14.1,26.9,14.1,27.1z"/>
			</g>
			<g>
				<path class="st1" d="M13.3,27.1c0,0.2,0.2,0.4,0.4,0.4c0.2,0,0.4-0.1,0.4-0.4c0-0.2-0.1-0.4-0.4-0.4
					C13.5,26.7,13.3,26.9,13.3,27.1z"/>
			</g>
			<g>
				<path class="st1" d="M12.5,27.1c0,0.2,0.2,0.4,0.4,0.4c0.2,0,0.4-0.2,0.4-0.4c0-0.2-0.2-0.4-0.4-0.4
					C12.7,26.7,12.5,26.9,12.5,27.1z"/>
			</g>
			<g>
				<path class="st1" d="M11.8,27.3c0.1,0.2,0.3,0.3,0.4,0.3c0.2,0,0.3-0.2,0.3-0.4c0-0.2-0.2-0.4-0.5-0.3
					C11.9,26.9,11.7,27.1,11.8,27.3z"/>
			</g>
			<g>
				<path class="st1" d="M11.1,27.5c0.1,0.2,0.3,0.3,0.5,0.2c0.2-0.1,0.3-0.3,0.2-0.5c-0.1-0.2-0.3-0.3-0.5-0.3
					C11.1,27.1,11,27.3,11.1,27.5z"/>
			</g>
			<g>
				<path class="st1" d="M10.4,27.9c0.1,0.2,0.4,0.2,0.5,0.1c0.1,0,0.1-0.1,0.2-0.2c0-0.1,0-0.2,0-0.3c0-0.1-0.1-0.2-0.2-0.2
					c-0.1,0-0.2,0-0.3,0C10.3,27.5,10.2,27.7,10.4,27.9z"/>
			</g>
			<g>
				<path class="st1" d="M9.8,28.5c0.1,0.1,0.2,0.1,0.3,0.1c0.1,0,0.2,0,0.2-0.1c0.1-0.1,0.1-0.3,0-0.5c-0.1-0.2-0.4-0.2-0.6,0
					c-0.1,0.1-0.1,0.2-0.1,0.3C9.7,28.3,9.8,28.4,9.8,28.5z"/>
			</g>
			<g>
				<path class="st1" d="M9.6,29.2c0.1,0,0.2,0,0.3-0.1c0.1,0,0.1-0.1,0.2-0.2c0-0.1,0-0.2,0-0.2c0-0.1-0.1-0.2-0.2-0.2
					c-0.1-0.1-0.2-0.1-0.3,0c-0.1,0-0.2,0.1-0.2,0.3c0,0.1,0,0.3,0,0.4C9.4,29.1,9.5,29.2,9.6,29.2z"/>
			</g>
			<g>
				<path class="st1" d="M9.8,29.9c0.2-0.1,0.3-0.3,0.2-0.5c0-0.1-0.1-0.1-0.2-0.2c-0.1,0-0.2-0.1-0.3-0.1c-0.1,0-0.2,0-0.3,0.1
					c-0.1,0.1-0.1,0.2,0,0.4C9.4,30,9.7,30,9.8,29.9z"/>
			</g>
			<g>
				<path class="st1" d="M10.4,30.5c0.1-0.2,0.1-0.4,0-0.5c-0.1-0.1-0.3-0.1-0.5,0c-0.2,0.1-0.2,0.4,0,0.6
					C10,30.7,10.2,30.6,10.4,30.5z"/>
			</g>
		</g>
		<ellipse class="st2" cx="13.3" cy="29.2" rx="3.7" ry="2.1"/>
		<path class="st1" d="M13.3,27.3c1.9,0,3.5,0.9,3.5,1.9c0,1-1.6,1.9-3.5,1.9s-3.5-0.9-3.5-1.9C9.9,28.2,11.4,27.3,13.3,27.3
			 M13.3,27.1c-2,0-3.7,0.9-3.7,2.1c0,1.2,1.7,2.1,3.7,2.1s3.7-0.9,3.7-2.1C17,28,15.4,27.1,13.3,27.1L13.3,27.1z"/>
		<g>
			<g>
				<path class="st1" d="M11.1,28.5c0.2,0.1,0.4,0,0.5-0.1c0.1-0.1,0-0.3-0.1-0.5c-0.2-0.1-0.4-0.1-0.5,0.1
					C10.8,28.2,10.8,28.4,11.1,28.5z"/>
			</g>
			<g>
				<path class="st1" d="M10.9,29.2c0.2,0,0.4-0.1,0.4-0.3c0-0.1-0.1-0.3-0.3-0.4c-0.2-0.1-0.4,0-0.5,0.3
					C10.5,29,10.7,29.2,10.9,29.2z"/>
			</g>
			<g>
				<path class="st1" d="M11.1,29.9c0.2-0.1,0.3-0.3,0.3-0.4c0-0.1-0.2-0.3-0.4-0.3c-0.2,0-0.4,0.2-0.4,0.4
					C10.6,29.9,10.9,30,11.1,29.9z"/>
			</g>
			<g>
				<path class="st1" d="M11.4,30.5c0.2-0.1,0.2-0.4,0.1-0.5c-0.1-0.1-0.3-0.2-0.5-0.1c-0.2,0.1-0.3,0.3-0.2,0.5
					C11,30.6,11.3,30.6,11.4,30.5z"/>
			</g>
		</g>
		<g>
			<g>
				<path class="st1" d="M15.6,29.9c-0.2-0.1-0.4,0-0.5,0.1c-0.1,0.1,0,0.3,0.1,0.5c0.2,0.1,0.4,0.1,0.5-0.1
					C15.9,30.2,15.8,30,15.6,29.9z"/>
			</g>
			<g>
				<path class="st1" d="M15.7,29.2c-0.2,0-0.4,0.1-0.4,0.3c0,0.1,0.1,0.3,0.3,0.4c0.2,0.1,0.4,0,0.5-0.3
					C16.1,29.4,15.9,29.2,15.7,29.2z"/>
			</g>
			<g>
				<path class="st1" d="M15.6,28.5c-0.2,0.1-0.3,0.3-0.3,0.4c0,0.1,0.2,0.3,0.4,0.3c0.2,0,0.4-0.2,0.4-0.4
					C16,28.5,15.8,28.4,15.6,28.5z"/>
			</g>
			<g>
				<path class="st1" d="M15.2,27.9C15,28,15,28.3,15.1,28.4c0.1,0.1,0.3,0.2,0.5,0.1c0.2-0.1,0.3-0.3,0.2-0.5
					C15.6,27.8,15.4,27.8,15.2,27.9z"/>
			</g>
		</g>
		<ellipse class="st2" cx="13.3" cy="29.2" rx="2.4" ry="2.1"/>
		<path class="st1" d="M13.3,27.3c1.2,0,2.2,0.8,2.2,1.9c0,1-1,1.9-2.2,1.9s-2.2-0.8-2.2-1.9C11.2,28.2,12.1,27.3,13.3,27.3
			 M13.3,27.1c-1.3,0-2.4,0.9-2.4,2.1c0,1.2,1.1,2.1,2.4,2.1s2.4-0.9,2.4-2.1C15.7,28,14.6,27.1,13.3,27.1L13.3,27.1z"/>
		<path class="st1" d="M13.3,27.3c0.3,0,0.7,0.7,0.7,1.9c0,1.1-0.4,1.9-0.7,1.9c-0.3,0-0.7-0.7-0.7-1.9C12.6,28.1,13,27.3,13.3,27.3
			 M13.3,27.1c-0.5,0-0.9,0.9-0.9,2.1c0,1.2,0.4,2.1,0.9,2.1c0.5,0,0.9-0.9,0.9-2.1C14.2,28,13.8,27.1,13.3,27.1L13.3,27.1z"/>
		<path class="st1" d="M16.3,30.5c0-0.4-1.3-0.6-3-0.6s-3,0.3-3,0.6"/>
		
			<rect x="10.3" y="30.5" transform="matrix(-1 -4.489488e-11 4.489488e-11 -1 26.6209 61.6227)" class="st1" width="6" height="0.7"/>
		<ellipse class="st2" cx="13.3" cy="31.2" rx="3" ry="0.6"/>
		<path class="st1" d="M13.3,30.8c1.6,0,2.5,0.2,2.7,0.4c-0.2,0.2-1.2,0.4-2.7,0.4s-2.5-0.2-2.7-0.4C10.8,31,11.8,30.8,13.3,30.8
			 M13.3,30.5c-1.7,0-3,0.3-3,0.6s1.3,0.6,3,0.6s3-0.3,3-0.6S15,30.5,13.3,30.5L13.3,30.5z"/>
		<circle class="st1" cx="13.3" cy="29.4" r="0.3"/>
		<circle class="st1" cx="13.3" cy="28.7" r="0.3"/>
		<circle class="st1" cx="13.3" cy="27.9" r="0.3"/>
		<path class="st1" d="M12.3,26L12.3,26c0-0.1,0.1-0.3,0.3-0.3h1.6c0.1,0,0.3,0.1,0.3,0.3l0,0c0,0.1-0.1,0.3-0.3,0.3h-1.6
			C12.4,26.3,12.3,26.2,12.3,26z"/>
		<path class="st1" d="M13.6,27.1h-0.5v-1.8c0-0.1,0.1-0.3,0.3-0.3h0c0.1,0,0.3,0.1,0.3,0.3V27.1z"/>
		<g>
			<g>
				<path class="st2" d="M15.4,30.5c0,0.1,0.1,0.3,0.2,0.3c0.1,0,0.3,0,0.4-0.2c0.1-0.1,0-0.3-0.2-0.3
					C15.6,30.3,15.4,30.4,15.4,30.5z"/>
			</g>
			<g>
				<path class="st2" d="M14.2,30.4c0,0.1,0.1,0.3,0.3,0.3c0.2,0,0.3-0.1,0.3-0.2c0-0.1-0.1-0.3-0.3-0.3
					C14.4,30.1,14.2,30.2,14.2,30.4z"/>
			</g>
			<g>
				<ellipse class="st2" cx="13.3" cy="30.4" rx="0.3" ry="0.3"/>
			</g>
			<g>
				<path class="st2" d="M11.8,30.4c0,0.1,0.2,0.2,0.3,0.2c0.2,0,0.3-0.1,0.3-0.3c0-0.1-0.2-0.3-0.3-0.2
					C11.9,30.1,11.8,30.3,11.8,30.4z"/>
			</g>
			<g>
				<path class="st2" d="M10.6,30.6c0.1,0.1,0.2,0.2,0.4,0.2c0.1,0,0.2-0.2,0.2-0.3c0-0.1-0.2-0.2-0.4-0.2
					C10.7,30.3,10.6,30.5,10.6,30.6z"/>
			</g>
		</g>
	</g>
	<path class="st1" d="M50,20.4H40c-0.6,0-1,0.4-1,1v15.4c0,0.6,0.4,1,1,1h10c0.6,0,1-0.4,1-1V21.4C51,20.8,50.5,20.4,50,20.4z"/>
	<path class="st2" d="M48.9,21.5h-7.8c-0.6,0-1,0.4-1,1v13.3c0,0.6,0.4,1,1,1h7.8c0.6,0,1-0.4,1-1V22.5
		C49.9,21.9,49.4,21.5,48.9,21.5z"/>
	<g>
		<g>
			<g>
				<path class="st1" d="M41.5,29.9c0.2-0.1,0.4-0.1,0.5,0c0.1,0.1,0.1,0.4,0,0.5c-0.1,0.2-0.4,0.2-0.6,0
					C41.3,30.3,41.3,30,41.5,29.9z"/>
			</g>
			<g>
				<path class="st1" d="M41.3,29.2c0.1,0,0.2,0,0.3,0.1c0.1,0,0.1,0.1,0.2,0.2c0,0.1,0,0.3-0.2,0.5C41.3,30,41,30,41,29.7
					c0-0.1,0-0.3,0-0.4C41.1,29.2,41.2,29.2,41.3,29.2z"/>
			</g>
			<g>
				<path class="st1" d="M41.5,28.5c0.1,0.1,0.2,0.1,0.2,0.2c0,0.1,0,0.2,0,0.2c0,0.1-0.1,0.1-0.2,0.2c-0.1,0-0.2,0.1-0.3,0.1
					c-0.1,0-0.2,0-0.3-0.1c-0.1-0.1-0.1-0.2,0-0.4c0-0.1,0.1-0.2,0.2-0.3C41.3,28.4,41.4,28.4,41.5,28.5z"/>
			</g>
			<g>
				<path class="st1" d="M42.1,27.9c0.1,0.2,0.1,0.4,0,0.5c-0.1,0.1-0.1,0.1-0.2,0.1c-0.1,0-0.2,0-0.3-0.1c-0.1-0.1-0.2-0.2-0.2-0.3
					c0-0.1,0-0.2,0.1-0.3C41.7,27.7,41.9,27.7,42.1,27.9z"/>
			</g>
			<g>
				<path class="st1" d="M42.7,27.5c0,0.1,0,0.2,0,0.3c0,0.1-0.1,0.2-0.2,0.2c-0.2,0.1-0.4,0-0.5-0.1c-0.1-0.2-0.1-0.4,0.1-0.6
					c0.1-0.1,0.2-0.1,0.3,0C42.6,27.4,42.7,27.4,42.7,27.5z"/>
			</g>
			<g>
				<path class="st1" d="M43.5,27.3c0.1,0.2-0.1,0.4-0.2,0.5c-0.2,0.1-0.4,0-0.5-0.2c-0.1-0.2,0-0.4,0.2-0.5
					C43.2,26.9,43.4,27.1,43.5,27.3z"/>
			</g>
			<g>
				<path class="st1" d="M44.2,27.1c0,0.2-0.1,0.4-0.3,0.4c-0.2,0-0.4-0.1-0.4-0.3c-0.1-0.2,0.1-0.4,0.3-0.5
					C44,26.8,44.2,26.9,44.2,27.1z"/>
			</g>
			<g>
				<path class="st1" d="M45,27.1c0,0.2-0.2,0.4-0.4,0.4c-0.2,0-0.4-0.1-0.4-0.4c0-0.2,0.1-0.4,0.4-0.4C44.8,26.7,45,26.9,45,27.1z"
					/>
			</g>
			<g>
				<path class="st1" d="M45.7,27.1c0,0.2-0.2,0.4-0.4,0.4c-0.2,0-0.4-0.2-0.4-0.4c0-0.2,0.2-0.4,0.4-0.4
					C45.6,26.7,45.8,26.9,45.7,27.1z"/>
			</g>
			<g>
				<path class="st1" d="M46.5,27.3c-0.1,0.2-0.3,0.3-0.4,0.3c-0.2,0-0.3-0.2-0.3-0.4c0-0.2,0.2-0.4,0.5-0.3
					C46.4,26.9,46.6,27.1,46.5,27.3z"/>
			</g>
			<g>
				<path class="st1" d="M47.2,27.5c-0.1,0.2-0.3,0.3-0.5,0.2c-0.2-0.1-0.3-0.3-0.2-0.5c0.1-0.2,0.3-0.3,0.5-0.3
					C47.2,27.1,47.3,27.3,47.2,27.5z"/>
			</g>
			<g>
				<path class="st1" d="M47.9,27.9c-0.1,0.2-0.4,0.2-0.5,0.1c-0.1,0-0.1-0.1-0.2-0.2c0-0.1,0-0.2,0-0.3c0-0.1,0.1-0.2,0.2-0.2
					c0.1,0,0.2,0,0.3,0C48,27.5,48,27.7,47.9,27.9z"/>
			</g>
			<g>
				<path class="st1" d="M48.4,28.5c-0.1,0.1-0.2,0.1-0.3,0.1c-0.1,0-0.2,0-0.2-0.1c-0.1-0.1-0.1-0.3,0-0.5c0.1-0.2,0.4-0.2,0.6,0
					c0.1,0.1,0.1,0.2,0.1,0.3C48.6,28.3,48.5,28.4,48.4,28.5z"/>
			</g>
			<g>
				<path class="st1" d="M48.7,29.2c-0.1,0-0.2,0-0.3-0.1c-0.1,0-0.1-0.1-0.2-0.2c0-0.1,0-0.2,0-0.2c0-0.1,0.1-0.2,0.2-0.2
					c0.1-0.1,0.2-0.1,0.3,0c0.1,0,0.2,0.1,0.2,0.3c0,0.1,0,0.3,0,0.4C48.9,29.1,48.8,29.2,48.7,29.2z"/>
			</g>
			<g>
				<path class="st1" d="M48.5,29.9c-0.2-0.1-0.3-0.3-0.2-0.5c0-0.1,0.1-0.1,0.2-0.2c0.1,0,0.2-0.1,0.3-0.1c0.1,0,0.2,0,0.3,0.1
					c0.1,0.1,0.1,0.2,0,0.4C48.9,30,48.6,30,48.5,29.9z"/>
			</g>
			<g>
				<path class="st1" d="M47.9,30.5c-0.1-0.2-0.1-0.4,0-0.5c0.1-0.1,0.3-0.1,0.5,0c0.2,0.1,0.2,0.4,0,0.6
					C48.3,30.7,48.1,30.6,47.9,30.5z"/>
			</g>
		</g>
		<ellipse class="st2" cx="45" cy="29.2" rx="3.7" ry="2.1"/>
		<path class="st1" d="M45,27.3c1.9,0,3.5,0.9,3.5,1.9c0,1-1.6,1.9-3.5,1.9s-3.5-0.9-3.5-1.9C41.5,28.2,43.1,27.3,45,27.3 M45,27.1
			c-2,0-3.7,0.9-3.7,2.1c0,1.2,1.7,2.1,3.7,2.1c2,0,3.7-0.9,3.7-2.1C48.7,28,47,27.1,45,27.1L45,27.1z"/>
		<g>
			<g>
				<path class="st1" d="M47.2,28.5c-0.2,0.1-0.4,0-0.5-0.1c-0.1-0.1,0-0.3,0.1-0.5c0.2-0.1,0.4-0.1,0.5,0.1
					C47.5,28.2,47.4,28.4,47.2,28.5z"/>
			</g>
			<g>
				<path class="st1" d="M47.4,29.2c-0.2,0-0.4-0.1-0.4-0.3c0-0.1,0.1-0.3,0.3-0.4c0.2-0.1,0.4,0,0.5,0.3
					C47.8,29,47.6,29.2,47.4,29.2z"/>
			</g>
			<g>
				<path class="st1" d="M47.2,29.9c-0.2-0.1-0.3-0.3-0.3-0.4c0-0.1,0.2-0.3,0.4-0.3c0.2,0,0.4,0.2,0.4,0.4
					C47.7,29.9,47.4,30,47.2,29.9z"/>
			</g>
			<g>
				<path class="st1" d="M46.9,30.5c-0.2-0.1-0.2-0.4-0.1-0.5c0.1-0.1,0.3-0.2,0.5-0.1c0.2,0.1,0.3,0.3,0.2,0.5
					C47.3,30.6,47,30.6,46.9,30.5z"/>
			</g>
		</g>
		<g>
			<g>
				<path class="st1" d="M42.7,29.9c0.2-0.1,0.4,0,0.5,0.1c0.1,0.1,0,0.3-0.1,0.5c-0.2,0.1-0.4,0.1-0.5-0.1
					C42.4,30.2,42.5,30,42.7,29.9z"/>
			</g>
			<g>
				<path class="st1" d="M42.6,29.2c0.2,0,0.4,0.1,0.4,0.3c0,0.1-0.1,0.3-0.3,0.4c-0.2,0.1-0.4,0-0.5-0.3
					C42.2,29.4,42.4,29.2,42.6,29.2z"/>
			</g>
			<g>
				<path class="st1" d="M42.7,28.5c0.2,0.1,0.3,0.3,0.3,0.4c0,0.1-0.2,0.3-0.4,0.3c-0.2,0-0.4-0.2-0.4-0.4
					C42.3,28.5,42.5,28.4,42.7,28.5z"/>
			</g>
			<g>
				<path class="st1" d="M43.1,27.9c0.2,0.1,0.2,0.4,0.1,0.5c-0.1,0.1-0.3,0.2-0.5,0.1c-0.2-0.1-0.3-0.3-0.2-0.5
					C42.7,27.8,42.9,27.8,43.1,27.9z"/>
			</g>
		</g>
		<ellipse class="st2" cx="45" cy="29.2" rx="2.4" ry="2.1"/>
		<path class="st1" d="M45,27.3c1.2,0,2.2,0.8,2.2,1.9c0,1-1,1.9-2.2,1.9c-1.2,0-2.2-0.8-2.2-1.9C42.8,28.2,43.8,27.3,45,27.3
			 M45,27.1c-1.3,0-2.4,0.9-2.4,2.1c0,1.2,1.1,2.1,2.4,2.1c1.3,0,2.4-0.9,2.4-2.1C47.4,28,46.3,27.1,45,27.1L45,27.1z"/>
		<path class="st1" d="M45,27.3c0.3,0,0.7,0.7,0.7,1.9c0,1.1-0.4,1.9-0.7,1.9c-0.3,0-0.7-0.7-0.7-1.9C44.3,28.1,44.7,27.3,45,27.3
			 M45,27.1c-0.5,0-0.9,0.9-0.9,2.1c0,1.2,0.4,2.1,0.9,2.1c0.5,0,0.9-0.9,0.9-2.1C45.9,28,45.5,27.1,45,27.1L45,27.1z"/>
		<path class="st1" d="M42,30.5c0-0.4,1.3-0.6,3-0.6c1.7,0,3,0.3,3,0.6"/>
		<rect x="42" y="30.5" class="st1" width="6" height="0.7"/>
		<ellipse class="st2" cx="45" cy="31.2" rx="3" ry="0.6"/>
		<path class="st1" d="M45,30.8c1.6,0,2.5,0.2,2.7,0.4c-0.2,0.2-1.2,0.4-2.7,0.4c-1.6,0-2.5-0.2-2.7-0.4C42.5,31,43.4,30.8,45,30.8
			 M45,30.5c-1.7,0-3,0.3-3,0.6s1.3,0.6,3,0.6c1.7,0,3-0.3,3-0.6S46.6,30.5,45,30.5L45,30.5z"/>
		<circle class="st1" cx="45" cy="29.4" r="0.3"/>
		<circle class="st1" cx="45" cy="28.7" r="0.3"/>
		<circle class="st1" cx="45" cy="27.9" r="0.3"/>
		<path class="st1" d="M46,26L46,26c0-0.1-0.1-0.3-0.3-0.3h-1.6c-0.1,0-0.3,0.1-0.3,0.3l0,0c0,0.1,0.1,0.3,0.3,0.3h1.6
			C45.9,26.3,46,26.2,46,26z"/>
		<path class="st1" d="M44.7,27.1h0.5v-1.8c0-0.1-0.1-0.3-0.3-0.3l0,0c-0.1,0-0.3,0.1-0.3,0.3V27.1z"/>
		<g>
			<g>
				<path class="st2" d="M42.9,30.5c0,0.1-0.1,0.3-0.2,0.3c-0.1,0-0.3,0-0.4-0.2c-0.1-0.1,0-0.3,0.2-0.3
					C42.7,30.3,42.9,30.4,42.9,30.5z"/>
			</g>
			<g>
				<path class="st2" d="M44.1,30.4c0,0.1-0.1,0.3-0.3,0.3c-0.2,0-0.3-0.1-0.3-0.2c0-0.1,0.1-0.3,0.3-0.3
					C43.9,30.1,44.1,30.2,44.1,30.4z"/>
			</g>
			<g>
				<ellipse class="st2" cx="45" cy="30.4" rx="0.3" ry="0.3"/>
			</g>
			<g>
				<path class="st2" d="M46.5,30.4c0,0.1-0.2,0.2-0.3,0.2c-0.2,0-0.3-0.1-0.3-0.3c0-0.1,0.2-0.3,0.3-0.2
					C46.4,30.1,46.5,30.3,46.5,30.4z"/>
			</g>
			<g>
				<path class="st2" d="M47.6,30.6c-0.1,0.1-0.2,0.2-0.4,0.2c-0.1,0-0.2-0.2-0.2-0.3c0-0.1,0.2-0.2,0.4-0.2
					C47.6,30.3,47.7,30.5,47.6,30.6z"/>
			</g>
		</g>
	</g>
	<path class="st2" d="M41.1,21.5h7.8c0.6,0,1,0.4,1,1v13.3c0,0.6-0.4,1-1,1h-7.8c-0.6,0-1-0.4-1-1V22.5
		C40.1,21.9,40.5,21.5,41.1,21.5z"/>
	<g>
		<g>
			<g>
				<path class="st1" d="M48.5,29.9c-0.2-0.1-0.4-0.1-0.5,0c-0.1,0.1-0.1,0.4,0,0.5c0.1,0.2,0.4,0.2,0.6,0
					C48.7,30.3,48.7,30,48.5,29.9z"/>
			</g>
			<g>
				<path class="st1" d="M48.7,29.2c-0.1,0-0.2,0-0.3,0.1c-0.1,0-0.1,0.1-0.2,0.2c0,0.1,0,0.3,0.2,0.5c0.2,0.1,0.5,0,0.5-0.2
					c0-0.1,0-0.3,0-0.4C48.9,29.2,48.8,29.2,48.7,29.2z"/>
			</g>
			<g>
				<path class="st1" d="M48.5,28.5c-0.1,0.1-0.2,0.1-0.2,0.2c0,0.1,0,0.2,0,0.2c0,0.1,0.1,0.1,0.2,0.2c0.1,0,0.2,0.1,0.3,0.1
					c0.1,0,0.2,0,0.3-0.1c0.1-0.1,0.1-0.2,0-0.4c0-0.1-0.1-0.2-0.2-0.3C48.7,28.4,48.6,28.4,48.5,28.5z"/>
			</g>
			<g>
				<path class="st1" d="M47.9,27.9c-0.1,0.2-0.1,0.4,0,0.5c0.1,0.1,0.1,0.1,0.2,0.1c0.1,0,0.2,0,0.3-0.1c0.1-0.1,0.2-0.2,0.2-0.3
					c0-0.1,0-0.2-0.1-0.3C48.3,27.7,48.1,27.7,47.9,27.9z"/>
			</g>
			<g>
				<path class="st1" d="M47.3,27.5c0,0.1,0,0.2,0,0.3c0,0.1,0.1,0.2,0.2,0.2c0.2,0.1,0.4,0,0.5-0.1c0.1-0.2,0.1-0.4-0.1-0.6
					c-0.1-0.1-0.2-0.1-0.3,0C47.4,27.4,47.3,27.4,47.3,27.5z"/>
			</g>
			<g>
				<path class="st1" d="M46.5,27.3c-0.1,0.2,0.1,0.4,0.2,0.5c0.2,0.1,0.4,0,0.5-0.2c0.1-0.2,0-0.4-0.2-0.5
					C46.8,26.9,46.6,27.1,46.5,27.3z"/>
			</g>
			<g>
				<path class="st1" d="M45.8,27.1c0,0.2,0.1,0.4,0.3,0.4c0.2,0,0.4-0.1,0.4-0.3c0.1-0.2-0.1-0.4-0.3-0.5
					C46,26.8,45.8,26.9,45.8,27.1z"/>
			</g>
			<g>
				<path class="st1" d="M45,27.1c0,0.2,0.2,0.4,0.4,0.4c0.2,0,0.4-0.1,0.4-0.4c0-0.2-0.1-0.4-0.4-0.4C45.2,26.7,45,26.9,45,27.1z"
					/>
			</g>
			<g>
				<path class="st1" d="M44.2,27.1c0,0.2,0.2,0.4,0.4,0.4c0.2,0,0.4-0.2,0.4-0.4c0-0.2-0.2-0.4-0.4-0.4
					C44.4,26.7,44.2,26.9,44.2,27.1z"/>
			</g>
			<g>
				<path class="st1" d="M43.5,27.3c0.1,0.2,0.3,0.3,0.4,0.3c0.2,0,0.3-0.2,0.3-0.4c0-0.2-0.2-0.4-0.5-0.3
					C43.6,26.9,43.4,27.1,43.5,27.3z"/>
			</g>
			<g>
				<path class="st1" d="M42.7,27.5c0.1,0.2,0.3,0.3,0.5,0.2c0.2-0.1,0.3-0.3,0.2-0.5c-0.1-0.2-0.3-0.3-0.5-0.3
					C42.8,27.1,42.7,27.3,42.7,27.5z"/>
			</g>
			<g>
				<path class="st1" d="M42.1,27.9c0.1,0.2,0.4,0.2,0.5,0.1c0.1,0,0.1-0.1,0.2-0.2c0-0.1,0-0.2,0-0.3c0-0.1-0.1-0.2-0.2-0.2
					c-0.1,0-0.2,0-0.3,0C42,27.5,41.9,27.7,42.1,27.9z"/>
			</g>
			<g>
				<path class="st1" d="M41.5,28.5c0.1,0.1,0.2,0.1,0.3,0.1c0.1,0,0.2,0,0.2-0.1c0.1-0.1,0.1-0.3,0-0.5c-0.1-0.2-0.4-0.2-0.6,0
					c-0.1,0.1-0.1,0.2-0.1,0.3C41.4,28.3,41.4,28.4,41.5,28.5z"/>
			</g>
			<g>
				<path class="st1" d="M41.3,29.2c0.1,0,0.2,0,0.3-0.1c0.1,0,0.1-0.1,0.2-0.2c0-0.1,0-0.2,0-0.2c0-0.1-0.1-0.2-0.2-0.2
					c-0.1-0.1-0.2-0.1-0.3,0c-0.1,0-0.2,0.1-0.2,0.3c0,0.1,0,0.3,0,0.4C41.1,29.1,41.2,29.2,41.3,29.2z"/>
			</g>
			<g>
				<path class="st1" d="M41.5,29.9c0.2-0.1,0.3-0.3,0.2-0.5c0-0.1-0.1-0.1-0.2-0.2c-0.1,0-0.2-0.1-0.3-0.1c-0.1,0-0.2,0-0.3,0.1
					c-0.1,0.1-0.1,0.2,0,0.4C41.1,30,41.3,30,41.5,29.9z"/>
			</g>
			<g>
				<path class="st1" d="M42.1,30.5c0.1-0.2,0.1-0.4,0-0.5c-0.1-0.1-0.3-0.1-0.5,0c-0.2,0.1-0.2,0.4,0,0.6
					C41.7,30.7,41.9,30.6,42.1,30.5z"/>
			</g>
		</g>
		<ellipse class="st2" cx="45" cy="29.2" rx="3.7" ry="2.1"/>
		<path class="st1" d="M45,27.3c1.9,0,3.5,0.9,3.5,1.9c0,1-1.6,1.9-3.5,1.9s-3.5-0.9-3.5-1.9C41.5,28.2,43.1,27.3,45,27.3 M45,27.1
			c-2,0-3.7,0.9-3.7,2.1c0,1.2,1.7,2.1,3.7,2.1s3.7-0.9,3.7-2.1C48.7,28,47,27.1,45,27.1L45,27.1z"/>
		<g>
			<g>
				<path class="st1" d="M42.7,28.5c0.2,0.1,0.4,0,0.5-0.1c0.1-0.1,0-0.3-0.1-0.5c-0.2-0.1-0.4-0.1-0.5,0.1
					C42.4,28.2,42.5,28.4,42.7,28.5z"/>
			</g>
			<g>
				<path class="st1" d="M42.6,29.2c0.2,0,0.4-0.1,0.4-0.3c0-0.1-0.1-0.3-0.3-0.4c-0.2-0.1-0.4,0-0.5,0.3
					C42.2,29,42.4,29.2,42.6,29.2z"/>
			</g>
			<g>
				<path class="st1" d="M42.7,29.9c0.2-0.1,0.3-0.3,0.3-0.4c0-0.1-0.2-0.3-0.4-0.3c-0.2,0-0.4,0.2-0.4,0.4
					C42.3,29.9,42.5,30,42.7,29.9z"/>
			</g>
			<g>
				<path class="st1" d="M43.1,30.5c0.2-0.1,0.2-0.4,0.1-0.5c-0.1-0.1-0.3-0.2-0.5-0.1c-0.2,0.1-0.3,0.3-0.2,0.5
					C42.7,30.6,43,30.6,43.1,30.5z"/>
			</g>
		</g>
		<g>
			<g>
				<path class="st1" d="M47.3,29.9c-0.2-0.1-0.4,0-0.5,0.1c-0.1,0.1,0,0.3,0.1,0.5c0.2,0.1,0.4,0.1,0.5-0.1
					C47.6,30.2,47.5,30,47.3,29.9z"/>
			</g>
			<g>
				<path class="st1" d="M47.4,29.2c-0.2,0-0.4,0.1-0.4,0.3c0,0.1,0.1,0.3,0.3,0.4c0.2,0.1,0.4,0,0.5-0.3
					C47.8,29.4,47.6,29.2,47.4,29.2z"/>
			</g>
			<g>
				<path class="st1" d="M47.3,28.5c-0.2,0.1-0.3,0.3-0.3,0.4c0,0.1,0.2,0.3,0.4,0.3c0.2,0,0.4-0.2,0.4-0.4
					C47.7,28.5,47.5,28.4,47.3,28.5z"/>
			</g>
			<g>
				<path class="st1" d="M46.9,27.9c-0.2,0.1-0.2,0.4-0.1,0.5c0.1,0.1,0.3,0.2,0.5,0.1c0.2-0.1,0.3-0.3,0.2-0.5
					C47.3,27.8,47,27.8,46.9,27.9z"/>
			</g>
		</g>
		<ellipse class="st2" cx="45" cy="29.2" rx="2.4" ry="2.1"/>
		<path class="st1" d="M45,27.3c1.2,0,2.2,0.8,2.2,1.9c0,1-1,1.9-2.2,1.9s-2.2-0.8-2.2-1.9C42.9,28.2,43.8,27.3,45,27.3 M45,27.1
			c-1.3,0-2.4,0.9-2.4,2.1c0,1.2,1.1,2.1,2.4,2.1s2.4-0.9,2.4-2.1C47.4,28,46.3,27.1,45,27.1L45,27.1z"/>
		<path class="st1" d="M45,27.3c0.3,0,0.7,0.7,0.7,1.9c0,1.1-0.4,1.9-0.7,1.9c-0.3,0-0.7-0.7-0.7-1.9C44.3,28.1,44.7,27.3,45,27.3
			 M45,27.1c-0.5,0-0.9,0.9-0.9,2.1c0,1.2,0.4,2.1,0.9,2.1s0.9-0.9,0.9-2.1C45.9,28,45.5,27.1,45,27.1L45,27.1z"/>
		<path class="st1" d="M48,30.5c0-0.4-1.3-0.6-3-0.6s-3,0.3-3,0.6"/>
		<rect x="42" y="30.5" transform="matrix(-1 -4.489488e-11 4.489488e-11 -1 90.001 61.6227)" class="st1" width="6" height="0.7"/>
		<ellipse class="st2" cx="45" cy="31.2" rx="3" ry="0.6"/>
		<path class="st1" d="M45,30.8c1.6,0,2.5,0.2,2.7,0.4c-0.2,0.2-1.2,0.4-2.7,0.4s-2.5-0.2-2.7-0.4C42.5,31,43.4,30.8,45,30.8
			 M45,30.5c-1.7,0-3,0.3-3,0.6s1.3,0.6,3,0.6s3-0.3,3-0.6S46.7,30.5,45,30.5L45,30.5z"/>
		<circle class="st1" cx="45" cy="29.4" r="0.3"/>
		<circle class="st1" cx="45" cy="28.7" r="0.3"/>
		<circle class="st1" cx="45" cy="27.9" r="0.3"/>
		<path class="st1" d="M44,26L44,26c0-0.1,0.1-0.3,0.3-0.3h1.6c0.1,0,0.3,0.1,0.3,0.3l0,0c0,0.1-0.1,0.3-0.3,0.3h-1.6
			C44.1,26.3,44,26.2,44,26z"/>
		<path class="st1" d="M45.3,27.1h-0.5v-1.8c0-0.1,0.1-0.3,0.3-0.3l0,0c0.1,0,0.3,0.1,0.3,0.3V27.1z"/>
		<g>
			<g>
				<path class="st2" d="M47.1,30.5c0,0.1,0.1,0.3,0.2,0.3c0.1,0,0.3,0,0.4-0.2c0.1-0.1,0-0.3-0.2-0.3
					C47.3,30.3,47.1,30.4,47.1,30.5z"/>
			</g>
			<g>
				<path class="st2" d="M45.9,30.4c0,0.1,0.1,0.3,0.3,0.3c0.2,0,0.3-0.1,0.3-0.2c0-0.1-0.1-0.3-0.3-0.3
					C46.1,30.1,45.9,30.2,45.9,30.4z"/>
			</g>
			<g>
				<ellipse class="st2" cx="45" cy="30.4" rx="0.3" ry="0.3"/>
			</g>
			<g>
				<path class="st2" d="M43.5,30.4c0,0.1,0.2,0.2,0.3,0.2c0.2,0,0.3-0.1,0.3-0.3c0-0.1-0.2-0.3-0.3-0.2
					C43.6,30.1,43.5,30.3,43.5,30.4z"/>
			</g>
			<g>
				<path class="st2" d="M42.3,30.6c0.1,0.1,0.2,0.2,0.4,0.2c0.1,0,0.2-0.2,0.2-0.3c0-0.1-0.2-0.2-0.4-0.2
					C42.4,30.3,42.3,30.5,42.3,30.6z"/>
			</g>
		</g>
	</g>
	<path class="st2" d="M29.1,46.5c-4.6,0-8.9-1.8-12.2-5c-0.3-0.3-0.3-0.8,0-1.1c0.3-0.3,0.8-0.3,1.1,0c3,2.9,6.9,4.5,11,4.5
		c3,0,5.8-0.8,8.3-2.4c0.4-0.2,0.9-0.1,1.1,0.3c0.2,0.4,0.1,0.9-0.3,1.1C35.6,45.6,32.4,46.5,29.1,46.5z"/>
	<path class="st2" d="M40.7,18.1c-0.2,0-0.4-0.1-0.6-0.2c-3-2.9-6.9-4.5-11-4.5c-2.9,0-5.7,0.8-8.2,2.3c-0.4,0.2-0.9,0.1-1.1-0.3
		c-0.2-0.4-0.1-0.9,0.3-1.1c2.7-1.7,5.9-2.5,9.1-2.5c4.6,0,8.9,1.8,12.2,5c0.3,0.3,0.3,0.8,0,1.1C41.1,18,40.9,18.1,40.7,18.1z"/>
	<g>
		<path class="st2" d="M36.3,41.4l3.5-0.4c0.4,0,0.7,0.4,0.6,0.7L39,45c-0.2,0.4-0.7,0.4-0.9,0.1l-2.1-2.8
			C35.7,42,35.9,41.5,36.3,41.4z"/>
	</g>
	<g>
		<path class="st2" d="M21.8,16.8l-3.5,0.4c-0.4,0.1-0.7-0.4-0.6-0.7l1.4-3.2c0.2-0.4,0.7-0.4,0.9-0.1l2.1,2.8
			C22.4,16.3,22.2,16.8,21.8,16.8z"/>
	</g>
</g>
</svg>
