<?xml version="1.0" encoding="utf-8"?>
<!-- Generator: Adobe Illustrator 21.0.2, SVG Export Plug-In . SVG Version: 6.00 Build 0)  -->
<svg version="1.1" id="Layer_1" xmlns="http://www.w3.org/2000/svg" xmlns:xlink="http://www.w3.org/1999/xlink" x="0px" y="0px"
	 viewBox="0 0 23.7 23.8" style="enable-background:new 0 0 23.7 23.8;" xml:space="preserve">
<style type="text/css">
	.st0{fill:#2B2E31;}
</style>
<path class="st0" d="M23.2,23.8c-0.3,0-0.5-0.2-0.5-0.5V0.5c0-0.3,0.2-0.5,0.5-0.5s0.5,0.2,0.5,0.5v22.8
	C23.7,23.6,23.5,23.8,23.2,23.8z"/>
<g>
	<circle class="st0" cx="8.7" cy="7.8" r="6.2"/>
	<path class="st0" d="M15.9,13.3c-0.6-0.7-1.7-0.8-2.4-0.2c-1.3,1.1-2.9,1.8-4.7,1.8c-1.8,0-3.5-0.7-4.7-1.8
		c-0.7-0.6-1.8-0.5-2.4,0.2c-1,1.1-1.5,2.5-1.5,4c0,3.9,3.9,4.9,8.7,4.9c4.8,0,8.7-1,8.7-4.9C17.4,15.8,16.8,14.4,15.9,13.3z"/>
</g>
</svg>
